<svg width="334" height="153" viewBox="0 0 334 153" fill="none" xmlns="http://www.w3.org/2000/svg">
<rect width="334" height="152.64" fill="#07B2C5"/>
<path d="M62.7578 58.0725C62.7578 68.1259 62.7912 68.8774 63.0751 69.7458C63.9936 72.4679 65.9475 74.5554 68.6028 75.6242C68.9201 75.7578 69.4211 75.9582 69.6883 76.0918C70.0891 76.2755 72.0096 76.3423 79.6749 76.3757L89.1438 76.4258V73.9208V71.4158L80.1759 71.3657C70.1225 71.3156 70.7571 71.3824 69.4378 70.0631C68.1018 68.7271 68.1853 69.5788 68.1352 57.822L68.0851 47.3511H65.4298H62.7578V58.0725Z" fill="#2C3779"/>
<path d="M102.872 47.635C102.788 47.802 102.638 48.2696 102.504 48.6871C102.387 49.1046 102.12 49.9563 101.903 50.6076C101.703 51.2422 101.402 52.1941 101.252 52.6951C101.118 53.1961 100.918 53.7639 100.851 53.9476C100.768 54.1313 100.55 54.8494 100.35 55.5341C100.133 56.2188 99.8991 56.9202 99.8156 57.0705C99.7321 57.2375 99.6653 57.488 99.6653 57.6216C99.6653 57.7552 99.5985 58.0057 99.515 58.1727C99.4148 58.323 99.1476 59.1246 98.9138 59.9596C98.68 60.7779 98.3794 61.7298 98.2625 62.0471C98.1456 62.3644 97.9118 63.0825 97.7448 63.6336C97.5945 64.1847 97.3941 64.7859 97.3273 64.9696C97.0768 65.5541 96.5257 67.2742 96.342 68.0591C96.2251 68.4766 96.0748 68.9609 96.008 69.1446C95.7909 69.6289 95.4068 70.8313 95.0728 71.9836C94.505 74.0043 94.171 74.6389 93.6032 74.7057C93.1857 74.7558 93.1523 74.8059 93.1523 75.5908V76.4091H95.6573H98.1623V75.5574C98.1623 74.856 98.1122 74.689 97.8283 74.6222C97.4776 74.522 97.3607 73.8373 97.6613 73.6536C97.7615 73.6035 97.8283 73.3697 97.8283 73.1526C97.8283 72.9188 97.9285 72.4512 98.0621 72.1172C98.179 71.7665 98.5297 70.6977 98.8303 69.7291C99.1309 68.7605 99.4983 67.5581 99.6653 67.0571C100.367 64.9028 101.001 62.7485 101.001 62.5314C101.001 62.3978 101.068 62.2141 101.135 62.1306C101.202 62.0304 101.402 61.5127 101.569 60.9616C101.736 60.4105 102.104 59.325 102.371 58.5401C102.638 57.7552 103.022 56.6196 103.222 55.985C103.657 54.6657 103.924 54.5989 104.291 55.7011C104.408 56.1186 104.592 56.6029 104.675 56.7866C104.759 56.9703 105.059 57.9055 105.36 58.8741C105.661 59.8427 105.961 60.6944 106.045 60.7779C106.112 60.8781 106.178 61.0952 106.178 61.2789C106.178 61.4793 106.295 61.8467 106.429 62.1139C106.562 62.3644 106.679 62.7318 106.679 62.8988C106.679 63.0825 106.746 63.3497 106.846 63.5167C106.93 63.667 107.531 65.4205 108.182 67.3911C108.817 69.3617 109.435 71.1987 109.535 71.4826C110.053 72.9188 110.387 74.2381 110.303 74.4719C110.236 74.6222 110.003 74.7391 109.769 74.7391C109.351 74.7391 109.335 74.7725 109.401 75.524L109.468 76.3256L112.24 76.3757L115.029 76.4091V75.4906C115.029 74.9395 114.963 74.5888 114.862 74.6556C114.779 74.7057 114.528 74.7057 114.311 74.6556C113.977 74.5721 113.844 74.3216 113.543 73.2695C113.326 72.5681 113.059 71.7164 112.908 71.3824C112.407 70.1633 112.424 70.1466 115.631 70.0965C117.785 70.0631 118.536 70.1132 118.653 70.2635C118.753 70.3804 118.954 70.8981 119.104 71.3991C119.271 71.9001 119.455 72.4679 119.522 72.6516C119.755 73.2528 120.039 74.1713 120.039 74.3717C120.039 74.4719 119.789 74.6055 119.488 74.6556C118.971 74.7558 118.954 74.7892 118.954 75.5407L118.971 76.3256L121.759 76.3757L124.548 76.4091V75.6075C124.548 74.856 124.515 74.8059 124.014 74.6556C123.513 74.5053 123.446 74.3717 123.045 73.0691C122.795 72.2842 122.561 71.5327 122.511 71.3991C122.394 71.1152 121.142 67.1072 120.757 65.8046C120.624 65.337 120.44 64.8193 120.373 64.6356C120.29 64.4519 119.989 63.5167 119.705 62.5481C119.421 61.5795 119.121 60.6443 119.037 60.4606C118.971 60.2769 118.77 59.6757 118.62 59.1246C118.453 58.5735 118.085 57.3711 117.785 56.4526C117.484 55.5341 116.883 53.647 116.466 52.2776C116.031 50.8915 115.497 49.2382 115.28 48.6036L114.896 47.4346L113.142 47.3845L111.372 47.3344L111.522 47.802C111.606 48.0525 111.79 48.6704 111.94 49.1714C112.374 50.5742 112.441 50.5408 109.218 50.5241C107.665 50.5074 106.312 50.4406 106.212 50.3738C106.095 50.307 105.811 49.6223 105.56 48.8374L105.093 47.4346L104.057 47.3845C103.206 47.3511 103.005 47.3845 102.872 47.635ZM112.591 51.5094C112.741 51.6263 112.858 51.8601 112.858 52.0104C112.858 52.1607 113.042 52.7953 113.276 53.4466C113.51 54.0812 113.66 54.6991 113.627 54.7993C113.543 55.0164 108.316 55.1333 107.798 54.9496C107.464 54.816 106.412 51.5261 106.663 51.3758C106.746 51.309 108.065 51.2756 109.568 51.2756C111.623 51.2756 112.374 51.3424 112.591 51.5094ZM113.977 55.9015C114.128 56.152 115.196 59.1914 115.196 59.4085C115.196 59.492 113.827 59.5254 112.157 59.5087L109.101 59.4586L108.55 57.8053C108.249 56.9035 108.032 56.0518 108.082 55.9349C108.199 55.6176 113.777 55.5842 113.977 55.9015ZM116.098 62.164C116.415 63.166 116.633 64.0177 116.566 64.0845C116.466 64.1847 114.228 64.2515 111.656 64.2348C110.57 64.2181 110.57 64.2181 109.869 62.0304C109.301 60.2435 109.084 60.3771 112.508 60.3771H115.514L116.098 62.164ZM117.551 66.5561C117.802 67.341 118.069 68.2595 118.119 68.5935L118.236 69.2114L116.299 69.2615C115.246 69.2949 113.894 69.2949 113.293 69.2615L112.207 69.1947L111.606 67.341C110.971 65.3537 110.938 65.1032 111.188 65.0197C111.272 64.9863 112.641 65.003 114.211 65.0531L117.067 65.1366L117.551 66.5561Z" fill="#2A859E"/>
<path d="M128.889 61.6129C128.889 69.4619 128.839 76.0083 128.789 76.1586C128.689 76.4091 129.457 76.4258 138.425 76.359C148.662 76.2922 148.211 76.3256 150.432 75.5574C152.954 74.7057 155.86 72.7518 157.563 70.7979C158.899 69.2448 159.951 67.2742 160.352 65.5541C160.519 64.8694 160.719 64.168 160.803 64.0177C160.886 63.8507 160.953 63.0157 160.953 62.164C160.953 60.6276 160.636 58.9409 160.001 57.0538C159.4 55.2669 157.463 52.6116 155.676 51.1754C154.59 50.2903 152.336 48.8541 152.035 48.8541C151.968 48.8541 151.668 48.7539 151.384 48.6203C151.083 48.4867 150.432 48.2529 149.931 48.1026C149.43 47.9523 148.795 47.7352 148.512 47.635C148.178 47.5181 144.904 47.4346 138.458 47.3845L128.889 47.3344V61.6129ZM148.512 52.9289C150.265 53.5969 151.384 54.315 152.636 55.5842C154.691 57.6383 155.743 60.661 155.275 63.166C154.891 65.1366 154.24 66.506 152.987 67.8754C151.785 69.2114 150.699 69.9796 149.063 70.681C147.877 71.1653 147.409 71.2655 145.589 71.3991C143.251 71.5828 134.901 71.6162 134.5 71.4659C134.266 71.3657 134.233 70.3804 134.233 61.9803C134.233 56.8033 134.283 52.5281 134.35 52.4613C134.417 52.3945 137.373 52.3611 140.913 52.3945L147.343 52.4613L148.512 52.9289Z" fill="#2C3779"/>
<path d="M166.916 47.468C166.849 47.5181 166.799 54.0645 166.799 61.997V76.4258L176.702 76.3757C183.766 76.3423 186.689 76.2755 186.922 76.1252C187.106 76.025 187.707 75.8079 188.258 75.6409C192.868 74.2214 196.976 70.3303 198.262 66.1386C198.445 65.5875 198.662 64.9529 198.763 64.7358C198.863 64.502 198.946 63.333 198.946 61.8801C198.946 60.4272 198.863 59.2582 198.763 59.0244C198.662 58.8073 198.429 58.1727 198.262 57.6216C197.377 54.7826 194.988 51.7599 192.25 50.0565C190.279 48.8207 188.709 48.2028 186.254 47.6851C184.885 47.3845 183.933 47.3678 175.884 47.3511C171.007 47.3511 166.966 47.4012 166.916 47.468ZM186.071 52.7452C189.143 53.7973 191.448 55.7345 192.584 58.2395C193.252 59.7091 193.352 60.1934 193.352 61.8968C193.352 66.0885 190.88 69.2615 186.254 71.0317C185.302 71.3991 182.714 71.5661 177.787 71.5661C175.065 71.5661 172.727 71.516 172.577 71.4659C172.343 71.3657 172.31 70.3804 172.31 61.9803C172.31 56.8033 172.36 52.5281 172.427 52.4613C172.494 52.3945 175.416 52.3611 178.906 52.4112C184.267 52.4613 185.386 52.5114 186.071 52.7452Z" fill="#2C3779"/>
<path d="M211.221 47.6183C208.182 48.4199 205.994 50.5241 205.059 53.5468C204.942 53.9476 204.875 56.7198 204.875 61.9803C204.875 70.4973 204.858 70.1967 205.86 72.2174C206.478 73.4031 207.965 74.8226 209.301 75.4572C209.852 75.7244 210.453 76.025 210.637 76.1252C210.887 76.2755 214.494 76.3423 224.047 76.3757L237.123 76.4258L237.073 73.9542L237.023 71.4826L224.581 71.3991L212.123 71.3156L211.605 70.8981C210.503 70.013 210.386 69.5955 210.386 66.339C210.386 64.7358 210.436 63.2996 210.486 63.1493C210.586 62.9155 211.655 62.8821 220.924 62.8821H231.261V60.4606V58.0391H220.924C211.655 58.0391 210.586 58.0057 210.486 57.7719C210.436 57.6216 210.386 56.8367 210.386 56.0017C210.386 54.2482 210.67 53.5468 211.689 52.8621L212.307 52.4446L224.665 52.3611L237.023 52.2776V49.8561V47.4346L224.581 47.4012C214.127 47.3845 211.989 47.4179 211.221 47.6183Z" fill="#2C3779"/>
<path d="M242.783 61.8801V76.4091H245.622H248.461V69.8794C248.445 65.1366 248.495 63.2829 248.645 63.1159C248.795 62.9322 249.447 62.8821 251.734 62.8821C256.778 62.8821 258.298 63.6002 260.084 66.8066C261.604 69.5788 262.055 70.3637 262.339 70.7645C262.523 70.9983 262.656 71.2488 262.656 71.3156C262.656 71.3824 262.907 71.8667 263.224 72.3844C263.775 73.3029 264.059 73.7872 265.011 75.4906L265.479 76.3256L268.568 76.3757C270.271 76.3924 271.674 76.3924 271.674 76.359C271.674 76.2755 271.123 75.2902 270.355 73.9542C269.704 72.852 269.436 72.3677 268.501 70.681C268.134 70.013 267.766 69.3617 267.666 69.2281C267.583 69.0945 267.349 68.6436 267.132 68.2261C266.931 67.8086 266.631 67.2909 266.481 67.0571C266.33 66.8233 265.929 66.1052 265.595 65.4706C265.245 64.8193 264.827 64.0511 264.644 63.7338C264.46 63.4165 264.36 63.1159 264.443 63.0491C264.51 62.9823 265.111 62.7819 265.746 62.6149C266.931 62.3143 267.549 62.0137 268.819 61.162C270.088 60.3103 271.674 57.7385 271.674 56.5027C271.674 56.2522 271.758 56.0017 271.841 55.9516C271.941 55.9015 272.008 55.5174 272.008 55.1166C272.008 54.7158 271.941 54.3317 271.841 54.2816C271.758 54.2315 271.674 54.0144 271.674 53.814C271.674 53.2629 271.056 51.7432 270.505 50.9249C269.603 49.6223 267.199 47.8521 266.314 47.8521C266.18 47.8521 265.963 47.7519 265.863 47.635C265.696 47.4847 263.09 47.4179 254.223 47.3845L242.783 47.3344V61.8801ZM264.443 52.5448C264.694 52.6283 265.128 52.9122 265.378 53.1627C266.865 54.5655 266.581 56.6196 264.777 57.5715C264.076 57.9556 264.042 57.9556 256.31 57.9556H248.545L248.495 55.3671C248.478 53.9476 248.495 52.6951 248.528 52.5782C248.645 52.2943 263.708 52.2609 264.443 52.5448Z" fill="#2C3779"/>
<path d="M82.662 89.528H85.4478V87.5751H77.7222V89.528H80.508V97.3398H82.662V89.528ZM95.914 87.5751V91.4666H92.6974V87.5751H90.5434V97.3398H92.6974V93.4195H95.914V97.3398H98.2116V87.5751H95.914ZM109.761 95.3868H106.257V93.4195H109.618V91.4666H106.257V89.528H109.761V87.5751H104.103V97.3398H109.761V95.3868ZM130.449 94.0227C130.047 94.8842 129.071 95.473 128.065 95.473C126.486 95.473 125.222 94.1232 125.222 92.4574C125.222 90.806 126.486 89.4419 128.065 89.4419C129.056 89.4419 130.033 89.9875 130.435 90.8635H132.833C132.172 88.8675 130.291 87.4315 128.065 87.4315C125.294 87.4315 123.039 89.686 123.039 92.4574C123.039 95.2289 125.294 97.4834 128.065 97.4834C130.291 97.4834 132.187 96.033 132.847 94.0227H130.449ZM142.931 93.6062H140.461L141.696 90.1311L142.931 93.6062ZM146.578 97.3398L142.615 87.5751H140.791L136.828 97.3398H139.14L139.843 95.3725H143.562L144.266 97.3398H146.578ZM153.836 93.8503H153.851L156.177 97.3398H158.905L156.105 93.7498C157.34 93.4483 158.331 92.3569 158.331 90.7055C158.331 88.8531 156.924 87.5751 155.344 87.5751H153.836H153.305H151.682V97.3398H153.836V93.8503ZM154.985 89.2695C155.617 89.2695 156.277 89.8152 156.277 90.7055C156.277 91.6389 155.617 92.1559 154.985 92.1559H153.836V89.2695H154.985ZM169.414 95.3868H165.91V93.4195H169.27V91.4666H165.91V89.528H169.414V87.5751H163.756V97.3398H169.414V95.3868ZM180.954 95.3868H177.45V93.4195H180.811V91.4666H177.45V89.528H180.954V87.5751H175.296V97.3398H180.954V95.3868ZM188.991 93.8503H189.005L191.332 97.3398H194.06L191.26 93.7498C192.495 93.4483 193.486 92.3569 193.486 90.7055C193.486 88.8531 192.078 87.5751 190.499 87.5751H188.991H188.46H186.837V97.3398H188.991V93.8503ZM190.14 89.2695C190.772 89.2695 191.432 89.8152 191.432 90.7055C191.432 91.6389 190.772 92.1559 190.14 92.1559H188.991V89.2695H190.14ZM211.547 89.4419C212.495 89.4419 213.471 89.8296 213.945 90.8635H216.315C215.64 88.8387 213.701 87.4315 211.547 87.4315C208.79 87.4315 206.521 89.7003 206.521 92.4574C206.521 95.2145 208.79 97.4834 211.547 97.4834C214.333 97.4834 216.559 95.2289 216.559 92.4574V92.1271H211.748V93.7498H214.233C213.701 95.2289 212.495 95.5304 211.547 95.5304C209.996 95.5304 208.704 94.1375 208.704 92.4861C208.704 90.8348 209.996 89.4419 211.547 89.4419ZM227.791 87.5751V93.2185C227.791 94.5683 227.389 95.3294 225.91 95.3294C224.445 95.3294 224.029 94.5683 224.029 93.2185V87.5751H221.875V93.5344C221.875 96.1336 223.368 97.4834 225.91 97.4834C228.451 97.4834 229.945 96.1336 229.945 93.5344V87.5751H227.791ZM237.776 93.8503H237.79L240.117 97.3398H242.845L240.045 93.7498C241.28 93.4483 242.27 92.3569 242.27 90.7055C242.27 88.8531 240.863 87.5751 239.284 87.5751H237.776H237.245H235.622V97.3398H237.776V93.8503ZM238.925 89.2695C239.556 89.2695 240.217 89.8152 240.217 90.7055C240.217 91.6389 239.556 92.1559 238.925 92.1559H237.776V89.2695H238.925ZM253.396 87.5751V93.2185C253.396 94.5683 252.994 95.3294 251.515 95.3294C250.05 95.3294 249.634 94.5683 249.634 93.2185V87.5751H247.48V93.5344C247.48 96.1336 248.973 97.4834 251.515 97.4834C254.057 97.4834 255.55 96.1336 255.55 93.5344V87.5751H253.396Z" fill="white"/>
</svg>
