<svg width="52" height="70" viewBox="0 0 52 70" fill="none" xmlns="http://www.w3.org/2000/svg">
<g clip-path="url(#clip0_28_835)">
<path d="M30.3333 18.5938V0H3.25C1.44896 0 0 1.46289 0 3.28125V66.7188C0 68.5371 1.44896 70 3.25 70H48.75C50.551 70 52 68.5371 52 66.7188V21.875H33.5833C31.7958 21.875 30.3333 20.3984 30.3333 18.5938ZM39.1598 48.1264H30.3333V59.0639C30.3333 60.2725 29.3638 61.2514 28.1667 61.2514H23.8333C22.6363 61.2514 21.6667 60.2725 21.6667 59.0639V48.1264H12.8402C10.9065 48.1264 9.94094 45.7625 11.3141 44.3857L24.3709 31.3018C25.2715 30.398 26.7258 30.398 27.6264 31.3018L40.6832 44.3857C42.0577 45.7625 41.0935 48.1264 39.1598 48.1264ZM51.0521 14.3555L37.7948 0.957031C37.1854 0.341797 36.3594 0 35.4927 0H34.6667V17.5H52V16.666C52 15.8047 51.6615 14.9707 51.0521 14.3555Z" fill="#248792"/>
</g>
<defs>
<clipPath id="clip0_28_835">
<rect width="52" height="70" fill="white"/>
</clipPath>
</defs>
</svg>
