<svg width="1569" height="311" viewBox="0 0 1569 311" fill="none" xmlns="http://www.w3.org/2000/svg">
<g filter="url(#filter0_d_290_1921)">
<rect x="4" width="1561" height="302.857" rx="12" fill="#06B2C5" shape-rendering="crispEdges"/>
<g clip-path="url(#clip0_290_1921)">
<rect x="4" width="1159.88" height="288.358" fill="#06B2C5"/>
<g opacity="0.12">
<path fill-rule="evenodd" clip-rule="evenodd" d="M511.148 24.4371C511.031 4.76939 464.337 -17.3475 444.392 -28.7501C404.954 -51.303 363.936 -72.1293 323.299 -93.2884C282.661 -114.447 241.914 -135.549 203.164 -158.779C178.003 -173.858 148.44 -190.841 131.376 -212.373C95.0246 -258.259 209.637 -251.445 239.325 -252.449C314.851 -255.012 401.48 -253.842 472.273 -277.737C514.534 -292.002 531.386 -315.926 522.309 -350.793C519.384 -362.133 510.724 -375.181 518.06 -386.228C525.893 -398.027 543.915 -404.835 558.872 -409.401C613.429 -426.034 676.155 -427.961 733.878 -430.049C796.121 -432.343 858.95 -431.672 920.754 -431.85C946.961 -431.925 974.33 -439.307 999.286 -445.306C1032 -453.17 1064.33 -462.003 1096.78 -470.543C1168.15 -489.288 1241.71 -509.03 1317.22 -513.791C1364.52 -516.773 1416.21 -512.741 1452.95 -486.798C1471.39 -473.772 1481.05 -454.409 1491.71 -437.207C1504.62 -416.427 1517.02 -395.446 1530.76 -374.992C1575.03 -309.117 1638.24 -244.746 1740.84 -241.511C1756.36 -241.023 1771.6 -242.612 1787.05 -242.91C1796.89 -243.094 1805.64 -241.23 1809.3 -233.159C1818.49 -212.918 1789.59 -180.964 1777.74 -164.904C1751.8 -129.75 1722.54 -96.1734 1695.14 -61.7247C1677.01 -38.9425 1645.62 -7.80904 1645.29 19.8715C1645 44.5351 1686.84 62.3616 1709.61 74.5099C1730.96 85.8838 1769.63 101.8 1771.97 124.938C1773.1 136.157 1763.66 145.455 1753.81 152.67C1736.54 165.289 1716.65 174.191 1701.11 188.587C1675.64 212.207 1654.35 244.706 1657.81 276.533C1660.21 298.587 1676.26 313.029 1696.67 326.835C1705.25 332.64 1712.22 336.747 1712.67 346.17C1713.4 361.135 1705.93 376.971 1699.77 390.846C1677.74 440.5 1646.45 488.514 1611.64 533.344C1594.25 555.748 1575.46 578.082 1552.4 597.194C1537.29 609.743 1516.92 624.679 1493.88 624.662C1467.21 624.662 1438.98 617.114 1413.05 611.47C1364.63 600.922 1316.79 588.728 1269.13 576.218C1158.93 547.276 1049.77 515.989 941.643 482.359C865.481 458.63 787.703 434.867 716.097 403.321C702.133 397.126 688.952 389.903 676.733 381.749C663.677 373.186 647.476 369.354 631.048 366.498C529.089 348.769 417.388 362.379 315.004 370.914C289.017 373.077 263.03 375.25 236.97 376.765C214.567 378.067 187.746 381.801 165.972 376.191C123.067 365.15 160.574 324.455 176.431 307.873C232.26 249.489 304.289 200.093 371.053 149.665C402.796 125.649 434.781 101.697 464.798 76.3223C480.428 63.1302 511.25 41.6787 511.148 24.4371Z" stroke="white" stroke-width="0.80547"/>
<path fill-rule="evenodd" clip-rule="evenodd" d="M530.387 21.1219C513.275 0.310442 483.252 -15.0717 458.33 -29.548C422.466 -50.3881 385.476 -70.07 349.041 -90.3196C314.59 -109.468 280.065 -128.835 248.161 -150.581C228.707 -163.842 204.297 -179.7 195.082 -199.313C175.094 -241.825 282.627 -235.375 309.173 -236.487C375.17 -239.239 449.994 -239.87 511.05 -262.252C549.176 -276.229 564.839 -299.409 556.707 -331.589C553.896 -342.723 548.832 -352.228 555.243 -363.305C562.657 -376.124 579.711 -384.116 595.345 -389.758C644.317 -407.433 702.204 -411.188 755.29 -414.313C810.132 -417.541 867.273 -419.817 920.352 -417.455C941.577 -416.514 966.008 -421.852 987.014 -425.946C1019.34 -432.252 1051.33 -439.527 1083.49 -446.293C1148.85 -460.052 1215.91 -473.307 1283.9 -474.815C1332.99 -475.904 1384.17 -469.999 1425.01 -447.176C1466.4 -424.031 1484.77 -388.152 1507.72 -354.046C1547.36 -295.08 1600.9 -223.387 1692.61 -210.928C1706.52 -209.037 1719.88 -210.063 1733.77 -209.598C1740.92 -209.363 1749.05 -208.618 1752.67 -203.097C1762.08 -188.764 1736.31 -162.558 1727.63 -151.579C1703.67 -121.239 1676.73 -92.3836 1651.62 -62.6284C1631.67 -39.002 1606.39 -12.7497 1598.68 15.2568C1589.31 49.2431 1650.48 73.4256 1671.99 97.3559C1709.28 138.853 1638.63 162.496 1603.8 182.281C1563.8 204.996 1530.78 246.436 1566.64 281.58C1580.36 295.019 1597.23 303.028 1603.36 320.566C1612.94 347.993 1605.69 379.336 1597.92 406.449C1586.21 447.206 1567.68 487.522 1542.49 524.357C1524.44 550.73 1494.5 592.083 1450.65 588.982C1421.13 586.912 1391.12 579.35 1362.38 572.665C1319.34 562.661 1276.85 551.257 1234.58 539.413C1137.01 512.146 1040.51 482.081 945.91 449.012C881.363 426.44 701.311 334.199 687.764 330.908C647.369 321.105 601.442 322.83 559.796 324.35C504.397 326.368 449.276 331.596 394.2 336.441C367.983 338.734 341.634 341.538 315.278 342.667C296.519 343.47 271.882 344.158 255.451 335.61C223.378 318.932 259.11 280.772 273.888 264.627C319.157 215.133 376.422 172.271 430.115 128.447C456.464 106.93 483.215 85.4481 507.134 62.2058C516.781 52.8206 540.963 33.9757 530.387 21.1219Z" stroke="white" stroke-width="0.80547"/>
<path fill-rule="evenodd" clip-rule="evenodd" d="M554.061 10.4485C507.328 -31.1975 442.827 -62.1711 387.158 -96.9525C359.218 -114.415 331.102 -132.353 307.003 -153.153C294.467 -163.969 278.814 -177.647 276.399 -192.723C269.944 -233.056 366.865 -227.602 395.874 -229.134C451.96 -232.104 515.319 -234.358 566.202 -254.94C597.289 -267.522 612.599 -288.173 606.788 -315.316C604.212 -327.359 600.202 -337.59 606.788 -349.415C613.462 -361.395 627.367 -369.848 641.447 -376.185C681.908 -394.41 732.191 -400.237 777.746 -404.578C831.186 -409.634 885.029 -411.608 938.838 -410.485C985.967 -409.515 1032.87 -420.417 1078.88 -427.603C1139.84 -437.117 1201.91 -445.427 1264.29 -444.171C1313.55 -443.173 1363.21 -435.333 1405.32 -414.499C1448.12 -393.28 1473.85 -361.521 1497.05 -327.25C1532.11 -275.442 1575.82 -206.017 1652.75 -186.341C1663.94 -183.473 1674.37 -183.158 1685.91 -182.659C1691.52 -182.418 1698.75 -182.343 1701.54 -177.761C1708.22 -166.728 1683.5 -145.337 1676.6 -137.882C1654.57 -114.082 1630.69 -91.3554 1608.11 -67.8714C1587.04 -45.9474 1564.08 -23.1 1550.99 2.59186C1530.15 43.5095 1596.76 67.435 1594.9 106.426C1593.73 130.632 1564.16 147.992 1540.74 160C1511.91 174.767 1470.39 184.476 1455.96 211.424C1445.21 231.496 1462.08 243.177 1475.07 258.409C1497.08 284.216 1498.58 319.198 1496.29 349.07C1493.2 389.437 1481.14 430.401 1460.6 467.505C1451.29 484.325 1439.89 501.822 1423.1 514.886C1407.37 527.129 1392.49 530.266 1371.47 527.76C1307.13 520.076 1242.17 498.656 1180.47 479.525C1102.95 455.485 1026.49 428.944 952.326 399.083C901.75 378.719 850.034 357.173 805.642 329.039C794.072 321.704 782.224 313.732 773.765 304.058C767.369 296.786 764.654 290.782 753.874 286.63C721.923 274.329 677.481 277.546 643.247 278.825C588.508 280.861 534.032 286.28 479.629 291.16C447.883 294.028 388.08 303.049 362.73 281.411C340.849 262.727 367.253 230.871 380.74 214.412C414.857 172.789 458.743 136.258 499.461 98.6437C518.122 81.4049 537.515 64.0343 552.927 44.8687C556.864 39.9826 563.172 33.5081 564.255 27.5726C565.47 20.7711 559.799 15.5811 554.061 10.4485Z" stroke="white" stroke-width="0.80547"/>
<path fill-rule="evenodd" clip-rule="evenodd" d="M558.079 20.1434C514.896 -16.6793 462.871 -46.9306 416.512 -81.3888C395.725 -96.8387 374.734 -113.046 358.895 -131.894C350.376 -142.029 341.329 -154.787 343.679 -167.385C350.419 -203.542 430.133 -200.276 462.337 -202.394C510.19 -205.505 565.164 -208.638 607.476 -228.134C635.194 -240.904 645.587 -259.763 640.412 -284.086C634.857 -310.176 647.278 -329.116 675.544 -343.67C710.984 -361.904 755.718 -369.336 796.867 -374.616C846.443 -380.947 896.646 -383.753 946.866 -383.001C995.707 -382.266 1043.03 -388.683 1091.54 -392.855C1155.87 -398.382 1222.26 -401.108 1285.87 -389.779C1341.24 -379.913 1391.26 -358.173 1428.76 -324.553C1467.92 -289.463 1487.31 -245.254 1519.12 -206.434C1538.95 -182.221 1566.61 -150.19 1603.67 -140.778C1616.04 -137.639 1638.56 -141.874 1628.69 -126.43C1623.05 -117.597 1612.49 -109.849 1604.14 -102.63C1590.66 -90.9618 1576.73 -79.6153 1563.02 -68.1082C1533.8 -43.5789 1502.52 -18.5273 1480.62 10.5188C1453.02 47.0889 1494.04 75.234 1489.04 112.315C1486.35 132.27 1468.66 148.196 1449.93 160.708C1437.82 168.812 1424.57 175.831 1411.03 182.379C1396.9 189.22 1380.18 194.431 1367.85 203.276C1350.28 215.862 1357.91 230.761 1361.2 247.031C1367 275.625 1368.27 304.671 1365 333.509C1360.98 368.857 1351.58 405.215 1331.77 437.337C1324.06 449.843 1314.3 463.101 1299.8 471.486C1285.3 479.87 1270.3 479.297 1253.69 476.771C1204.41 469.31 1155.23 451.949 1108.48 435.495C1049.97 414.897 992.611 391.877 937.834 365.689C900.023 347.611 862.088 328.08 830.454 303.568C821.254 296.434 812.501 288.795 805.423 280.267C800.563 274.419 797.957 266.872 790.916 262.475C768.886 248.753 724.656 252.851 698.819 253.648C647.256 255.238 596.505 262.797 545.007 264.633C516.901 265.638 472.884 268.163 452.244 249.401C432.833 231.765 450.414 203.987 462.015 186.993C484.814 153.58 515.445 123.811 542.899 92.75C554.185 79.9688 566.555 66.5965 573.866 52.0017C580.366 38.9967 569.145 29.5844 558.079 20.1434Z" stroke="white" stroke-width="0.80547"/>
<path fill-rule="evenodd" clip-rule="evenodd" d="M568.7 20.7456C534.327 -11.6573 492.89 -40.421 458.269 -73.3512C438.004 -92.6359 403.105 -125.056 418.778 -152.244C435.971 -182.119 495.903 -182.933 530.546 -185.34C571.779 -188.206 620.2 -192.12 655.486 -210.774C666.646 -216.671 676.154 -224.477 680.183 -234.758C684.498 -245.762 679.781 -255.39 679.167 -266.405C677.88 -289.512 695.475 -308.063 718.761 -320.803C751.67 -338.816 792.822 -347.332 831.692 -353.269C875.73 -359.966 920.498 -363.267 965.357 -363.126C1008.23 -363.012 1050.64 -363.757 1093.56 -364.616C1149.68 -365.763 1206.59 -363.912 1261.03 -352.226C1314.66 -340.707 1363.42 -319.118 1401.72 -287.363C1439.08 -256.376 1464.29 -218.5 1486.37 -179.919C1498.9 -158.021 1520.06 -125.297 1549.94 -114.236C1563.23 -109.313 1576.27 -109.651 1562.14 -96.8482C1544.35 -80.727 1520.37 -67.7922 1499.76 -54.0035C1470.03 -34.1055 1439.56 -13.8179 1414.6 9.83957C1398.67 24.9464 1391.57 39.6063 1392.66 59.1661C1393.51 74.0666 1397.36 88.8124 1395.41 103.77C1390.86 138.878 1355.59 162.954 1324.4 185.374C1304.34 199.793 1286.02 210.79 1275.7 231.302C1263.48 255.544 1258.36 281.918 1250.19 307.088C1241.23 334.728 1230.87 363.481 1211.3 387.826C1193.88 409.5 1172.7 419.22 1140.99 413.38C1091.53 404.28 1042.78 381.86 998.866 361.12C954.175 340.018 910.251 316.292 873.217 287.287C853.223 271.625 839.576 253.234 821.819 236.408C799.485 215.283 748.957 223.284 718.929 225.072C669.082 228.041 512.234 250.254 526.707 178.307C532.748 148.277 556.538 120.562 573.936 94.062C581.147 83.0642 591.583 69.8658 593.214 57.2634C594.991 43.5377 579.033 30.4997 568.7 20.7456Z" stroke="white" stroke-width="0.80547"/>
<path fill-rule="evenodd" clip-rule="evenodd" d="M586.848 23.4972C560.581 -5.86639 529.146 -33.6073 506.608 -65.3218C491.987 -85.8608 477.629 -113.304 496.49 -135.035C517.778 -159.559 564.719 -165.276 599.21 -168.401C634.746 -171.618 677.169 -174.324 706.214 -192.92C715.454 -198.843 723.072 -206.83 724.49 -216.394C725.857 -225.569 721.997 -234.743 723.276 -244.084C726.142 -265.059 742.364 -282.341 763.28 -294.875C825.148 -331.957 917.232 -340.202 991.879 -341.171C1029.24 -341.653 1067.7 -339.124 1105.3 -337.312C1154.1 -334.961 1202.97 -329.915 1249.51 -317.754C1348.46 -291.905 1414.78 -234.577 1461.1 -163.241C1475.67 -140.786 1486.83 -116.492 1509.68 -98.4469C1521.45 -89.1292 1518.88 -82.4377 1506.84 -73.94C1488.01 -60.6601 1465.05 -50.511 1444.16 -39.4272C1414.44 -23.6646 1384.09 -7.66684 1357.81 11.2151C1339.69 24.2312 1326.83 36.7713 1322.93 56.2897C1320.14 70.2061 1320.79 84.3861 1319.12 98.3885C1315.93 124.988 1305.02 151.387 1285.7 173.452C1270.34 190.94 1252.07 206.835 1233.18 221.99C1208.62 241.72 1187.85 261.766 1169.2 285.184C1144.48 316.181 1109.74 373.361 1051.5 358.229C987.273 341.531 927.071 299.106 885.862 257.999C872.023 244.197 860.663 227.271 841.999 217.093C814.058 201.881 785.708 202.414 752.475 202.477C702.719 202.563 594.451 211.032 593.281 152.592C592.82 129.438 605.599 107.546 611.718 85.2749C618.619 60.3322 604.788 43.5087 586.848 23.4972Z" stroke="white" stroke-width="0.80547"/>
<path fill-rule="evenodd" clip-rule="evenodd" d="M606.411 26.1151C580.43 -12.1553 522.17 -75.0415 566.481 -117.598C589.888 -140.088 631.288 -148.54 666.018 -153.576C693.967 -157.65 727.672 -159.18 748.789 -176.45C764.311 -189.148 757.42 -207.627 763.367 -223.522C770.747 -243.227 787.688 -259.351 808.505 -271.47C866.678 -305.34 947.562 -315.734 1017.54 -317.946C1090.22 -320.238 1170.3 -309.517 1238.69 -288.895C1323.96 -263.173 1387.85 -214.468 1432.52 -152.791C1440.77 -141.406 1448.26 -129.722 1456.17 -118.199C1461.49 -110.47 1469.37 -102.992 1473.57 -94.8614C1480.54 -81.3043 1472.32 -70.2226 1459.14 -61.387C1440.18 -48.6665 1416.89 -39.6132 1395.28 -30.0671C1365.72 -17.0028 1335.5 -4.17348 1308.01 11.1541C1289.53 21.4681 1270.19 32.5784 1263.58 50.4731C1259.07 62.6779 1258.13 75.6046 1258.29 88.2449C1258.64 115.348 1256.83 137.265 1240.69 162.087C1214.14 202.838 1173.31 239.481 1130.18 269.97C1096.33 293.899 1042.76 331.069 993.439 315.071C949.186 300.746 923.3 266.458 894.144 238.736C879.968 225.259 864.044 212.952 845.334 203.365C821.744 191.281 799.537 186.21 771.589 184.233C724.549 180.904 653.62 180.039 639.078 135.803C633.709 119.479 636.774 102.57 633.958 86.0332C630.279 64.1677 619.519 45.4193 606.411 26.1151Z" stroke="white" stroke-width="0.80547"/>
<path fill-rule="evenodd" clip-rule="evenodd" d="M633.427 27.5321C614.926 -14.343 590.621 -67.1172 635.306 -104.334C656.95 -122.364 687.395 -132.442 716.861 -139.974C737.964 -145.372 771.472 -146.961 784.41 -163.556C793.913 -175.769 795.229 -192.616 803.825 -205.701C815.638 -223.69 833.532 -238.507 854.526 -250.106C909.218 -280.331 980.451 -292.01 1045.41 -295.354C1186.57 -302.61 1330.19 -244.817 1405.72 -149.732C1428.24 -121.389 1457.31 -91.2213 1420.92 -62.2643C1381.18 -30.6744 1321.32 -15.8746 1273.9 6.57159C1255.77 15.1417 1232.68 25.4441 1222.57 40.9608C1216.49 50.2881 1216.08 61.9902 1215.8 72.2582C1215.07 98.4101 1212.3 121.929 1198.88 146.331C1178.17 184.042 1145.13 218.833 1107.7 247.331C1075.05 272.181 1028.5 301.384 981.087 283.47C944.736 269.702 921.681 240.482 893.436 218.942C862.004 194.952 823.13 178.787 780.441 170.889C738.914 163.225 693.367 158.056 671.482 125.497C663.975 114.328 656.131 99.8671 653.317 87.5053C648.774 67.1235 642.122 47.0661 633.427 27.5321Z" stroke="white" stroke-width="0.80547"/>
<path fill-rule="evenodd" clip-rule="evenodd" d="M663.551 27.8273C654.992 -14.4577 654.041 -58.5492 693.807 -91.876C712.367 -107.424 735.828 -118.47 759.552 -128.477C777.006 -135.841 795.032 -142.052 808.068 -154.125C820.146 -165.303 829.327 -178.281 840.988 -189.751C856.37 -204.952 874.775 -218.111 895.495 -228.721C947.435 -255.269 1010.62 -267.686 1071.07 -271.993C1100.33 -274.086 1132.07 -275.176 1161.13 -269.469C1189.2 -263.964 1216.96 -255.258 1242.77 -245.107C1297.63 -223.548 1345.18 -191.977 1379.66 -152.06C1403.29 -124.681 1416.07 -98.0584 1385.46 -70.2833C1350.96 -38.9753 1296.85 -21.7011 1252.26 -1.38165C1221.67 12.5547 1187.39 26.2157 1181.68 55.8319C1177.13 79.3974 1173.43 101.764 1161.66 124.04C1144.14 156.896 1118.39 186.659 1085.92 211.563C1056.22 234.251 1018.66 253.504 976.185 241.386C942.534 231.768 916.425 210.221 887.024 194.817C854.258 177.611 818.258 168.125 780.35 160.498C746.281 153.615 714.203 143.04 692.183 120.587C687.677 115.999 682.944 111.004 679.469 105.871C675.036 99.3212 675.38 92.8291 674.509 85.4881C672.242 66.1149 667.421 46.9653 663.551 27.8273Z" stroke="white" stroke-width="0.80547"/>
<path fill-rule="evenodd" clip-rule="evenodd" d="M696.765 24.3714C697.496 -15.793 709.817 -53.7517 743.562 -85.0526C757.989 -98.4427 775.216 -109.472 791.091 -121.742C803.872 -131.633 815.952 -140.824 830.649 -148.976C865.513 -168.277 893.847 -193.253 930.898 -210.44C980.356 -233.418 1037.01 -246.118 1093.23 -251.196C1120.68 -253.678 1149.03 -254.545 1176.8 -251.742C1200.65 -249.335 1223.5 -240.885 1244.69 -232.24C1286.22 -215.306 1326.55 -191.237 1353.51 -160.786C1412.97 -93.6519 1295.75 -44.8422 1235.58 -16.2583C1207.92 -3.10954 1165.64 12.1188 1154.3 38.1636C1146.2 56.7695 1141.27 75.6914 1130.83 93.7229C1102.8 142.148 1045.91 199.103 970.09 191.52C937.647 188.281 908.077 175.12 877.79 166.285C846.604 157.186 814.416 152.114 782.002 146.548C751.708 141.349 727.563 133.951 707.996 114.115C698.644 104.643 699.471 93.3035 698.637 81.6827C697.277 62.5943 696.436 43.3967 696.765 24.3714Z" stroke="white" stroke-width="0.80547"/>
<path fill-rule="evenodd" clip-rule="evenodd" d="M727.01 19.2267C739.19 -41.3979 784.429 -107.583 850.948 -142.79C929.193 -184.206 1013.96 -219.081 1107.45 -229.107C1150.79 -233.756 1198.27 -236.043 1239.17 -220.841C1270.29 -209.279 1306.45 -191.996 1323.58 -167.692C1365.48 -108.242 1272.27 -60.9163 1219.16 -33.4128C1190.57 -18.6063 1154.17 -4.17818 1132.62 17.444C1120.12 29.9805 1113.74 46.564 1103.64 60.3329C1073.05 102.058 1022.69 135.712 959.967 141.731C930.965 144.511 901.75 141.072 872.967 138.338C843.503 135.54 813.673 134.021 784.393 130.118C761.019 126.999 733.473 121.72 724.865 102.11C714.009 77.3979 722.039 43.9845 727.01 19.2267Z" stroke="white" stroke-width="0.80547"/>
<path fill-rule="evenodd" clip-rule="evenodd" d="M756.668 9.48758C774.432 -47.5098 812.051 -103.107 875.29 -137.134C908.826 -155.177 947.756 -167.632 985.133 -179.938C1027.5 -193.884 1071.77 -204.71 1116.98 -210.08C1173.27 -216.769 1264.44 -222.799 1293.85 -172.514C1323.04 -122.602 1249.27 -78.4266 1205.65 -53.2525C1177.69 -37.1257 1147.76 -22.3243 1121.04 -4.69436C1106.55 4.86353 1095.39 15.9073 1083.12 27.1175C1049.24 58.1778 1000.93 82.7667 951.685 95.893C903.96 108.618 844.92 114.252 794.542 110.046C772.805 108.239 757.269 102.141 750.695 84.8033C741.585 60.7021 749.324 33.0323 756.668 9.48758Z" stroke="white" stroke-width="0.80547"/>
<path fill-rule="evenodd" clip-rule="evenodd" d="M786.137 -5.86344C803.785 -56.0475 841.85 -101.884 897.373 -132.003C959.612 -165.768 1039.75 -184.53 1113.42 -194.071C1152.57 -199.138 1237.42 -212.878 1257.38 -173.555C1277.33 -134.232 1219.64 -95.4795 1186.43 -74.1467C1146.13 -48.2948 1102.68 -23.3341 1059.28 -0.138872C1021.57 20.0284 981.338 40.6471 940.496 56.2211C917.461 65.0561 893.465 72.2698 868.793 77.7767C850.524 81.8215 827.293 87.8546 808.14 84.8438C759.829 77.2396 777.697 18.1317 786.137 -5.86344Z" stroke="white" stroke-width="0.80547"/>
<path fill-rule="evenodd" clip-rule="evenodd" d="M822.513 -20.8911C861.235 -115.795 983.916 -162.471 1102.04 -178.74C1129.49 -182.516 1206.43 -196.132 1221.78 -167.141C1236.64 -139.033 1189.36 -105.698 1167.22 -89.9044C1098.63 -40.9653 1013.88 -4.67935 933.571 31.2685C908.504 42.489 863.295 66.8382 832.201 55.6062C798.44 43.3887 814.491 -1.21237 822.513 -20.8911Z" stroke="white" stroke-width="0.80547"/>
<path fill-rule="evenodd" clip-rule="evenodd" d="M862.176 -39.1579C895.85 -109.048 993.794 -149.132 1083.84 -162.346C1105.9 -165.58 1161.92 -175.647 1178.62 -156.143C1194.08 -138.102 1157.19 -111.96 1143.39 -101.572C1112.66 -78.4397 1076.24 -59.3835 1040.27 -41.0669C1007 -24.1205 973.38 -6.74984 938.379 7.5824C919.944 15.1269 885.368 31.2249 864.419 19.5756C841.864 7.04353 854.699 -23.6389 862.176 -39.1579Z" stroke="white" stroke-width="0.80547"/>
<path fill-rule="evenodd" clip-rule="evenodd" d="M-220.552 78.221C-221.48 33.4462 -251.827 -13.0876 -236.839 -58.7104C-224.533 -96.1803 -162.575 -99.3086 -125.406 -116.285C-95.8698 -129.771 -79.1077 -153.663 -63.1344 -176.586C-48.7825 -197.166 -35.8914 -218.364 -20.7727 -238.606C-10.9856 -251.692 5.82029 -277.388 27.045 -277.852C47.364 -278.299 65.9959 -258.275 77.7987 -246.438C93.1877 -231.009 106.831 -214.56 121.775 -198.885C146.958 -172.444 177.173 -152.872 211.771 -134.349C251.143 -113.273 291.165 -92.9165 331.838 -73.2801C361.783 -58.7791 391.933 -44.387 420.717 -28.4537C438.772 -18.456 478.621 0.301871 478.804 18.7332C478.891 27.5277 468.264 37.2676 461.099 44.2975C448.975 56.1974 435.156 67.0774 421.294 77.7225C395.475 97.5518 368.561 116.482 341.939 135.64C307.385 160.506 274.379 184.964 244.003 213.193C212.597 242.413 182.593 272.595 151.976 302.364C131.24 322.532 110.527 345.18 80.6179 357.555C43.157 373.024 12.4083 356.713 -25.4763 356.524C-58.0656 356.358 -55.6627 297.139 -59.8039 280.673C-63.9597 264.006 -73.1186 248.491 -76.6682 231.785C-81.0943 210.93 -81.1528 189.594 -82.241 168.515C-83.563 142.733 -84.0889 118.189 -119.227 108.357C-139.225 102.771 -160.859 101.597 -181.557 98.2508C-194.967 96.0793 -220.26 92.3667 -220.552 78.221Z" stroke="white" stroke-width="0.80547"/>
<path fill-rule="evenodd" clip-rule="evenodd" d="M-204.531 70.256C-207.947 32.7236 -228.128 -15.3151 -209.044 -54.0581C-192.739 -87.1665 -141.748 -91.4585 -107.412 -108.85C-79.0669 -123.195 -66.4488 -146.67 -52.28 -169.731C-40.9128 -188.23 -29.8894 -206.907 -16.986 -224.816C-7.47677 -238.013 7.04316 -260.294 26.8151 -263.025C44.5901 -265.481 63.6525 -245.811 73.6299 -235.804C88.1864 -221.195 100.636 -205.329 113.496 -189.797C136.091 -162.512 159.228 -137.977 192.298 -117.934C225.515 -97.8048 261.855 -82.7539 298.582 -67.0891C327.315 -54.8327 355.901 -42.2206 383.2 -28.0707C403.535 -17.5357 432.773 -4.05132 442.077 14.7349C449.443 29.5964 412.086 54.2584 401.07 62.9629C378.394 80.8598 354.365 97.6607 330.292 114.358C300.945 134.705 270.662 152.499 244.745 175.709C198.391 217.207 159.645 268.883 99.9998 299.725C64.0256 318.328 23.9916 323.084 -16.0205 320.301C-31.8644 319.2 -35.6681 301.659 -37.665 291.428C-40.9859 274.432 -41.4029 257.143 -43.9558 240.078C-46.3477 224.104 -51.6583 208.927 -55.9374 193.262C-60.2678 177.39 -61.482 161.129 -64.6713 145.149C-66.6463 135.228 -68.5994 123.683 -77.2382 115.707C-86.1769 107.45 -100.924 103.99 -113.812 101.362C-138.017 96.4729 -202.117 96.7426 -204.531 70.256Z" stroke="white" stroke-width="0.80547"/>
<path fill-rule="evenodd" clip-rule="evenodd" d="M-183.91 54.5444C-189.655 20.0925 -197.698 -22.8176 -174.293 -54.559C-155.163 -80.5125 -114.363 -86.1112 -85.2204 -103.022C-60.9817 -117.085 -51.8262 -139.451 -39.7947 -160.236C-29.9221 -177.284 -19.9982 -194.407 -8.03256 -210.63C1.04234 -222.933 12.7373 -239.615 30.7553 -243.907C46.1607 -247.574 63.564 -231.145 72.1046 -222.967C86.6464 -209.031 98.5023 -193.415 110.278 -178.006C129.54 -152.792 147.265 -125.858 174.68 -105.349C201.319 -85.4465 232.964 -73.6989 265.202 -60.4901C289.895 -50.37 314.434 -39.8602 337.699 -27.7917C355.563 -18.5312 377.702 -7.55726 387.011 7.85211C395.061 21.1412 374.394 36.8714 364.067 46.2466C347.015 61.719 328.09 75.9135 309.428 90.1653C289.287 105.54 266.981 119.723 247.492 135.477C206.508 168.628 173.765 205.332 123.253 230.729C90.5398 247.182 46.5193 262.127 7.84851 259.439C-19.9617 257.502 -18.132 209.24 -20.8033 193.819C-25.1943 168.605 -33.6765 142.112 -47.1498 118.887C-58.7203 98.9846 -86.2157 92.8472 -111.508 88.3831C-127.353 85.5809 -143.958 84.068 -159.283 79.7358C-177.023 74.7158 -181.502 68.9853 -183.91 54.5444Z" stroke="white" stroke-width="0.80547"/>
<path fill-rule="evenodd" clip-rule="evenodd" d="M-164.676 38.3952C-168.096 9.26787 -167.327 -25.1757 -145.17 -50.3719C-125.752 -72.4415 -91.18 -78.2521 -66.5911 -95.6377C-47.4004 -109.201 -39.8633 -131.317 -29.5429 -149.254C-16.9298 -171.186 0.744673 -211.693 32.5631 -219.946C62.1621 -227.619 93.1161 -178.606 103.832 -163.99C120.796 -140.857 134.984 -115.489 155.559 -94.1261C173.277 -75.7348 197.017 -65.5678 222.213 -54.6422C254.339 -40.6877 303.114 -24.1412 320.291 3.05506C333.094 23.3201 291.461 53.4474 277.244 67.4881C262.375 82.1552 251.175 99.5408 235.83 113.691C211.615 136.019 172.376 153.997 139.979 167.715C108.483 181.061 67.5823 195.831 31.8526 194.952C8.36965 194.377 3.90161 165.939 -1.10847 152.048C-8.28665 132.3 -17.8307 114.604 -38.3325 101.173C-59.2004 87.5002 -83.7967 81.0575 -109.653 75.4193C-122.925 72.5457 -138.065 70.3043 -149.938 64.4995C-163.057 58.1832 -163.357 49.591 -164.676 38.3952Z" stroke="white" stroke-width="0.80547"/>
<path fill-rule="evenodd" clip-rule="evenodd" d="M-141.241 21.6065C-141.051 -3.55734 -133.713 -30.3912 -111.957 -49.8017C-93.8356 -65.9694 -65.4715 -71.374 -48.1245 -87.902C-34.3842 -100.987 -27.3899 -119.357 -18.1907 -134.552C-6.93999 -153.174 8.96872 -185.704 36.9459 -192.166C64.2513 -198.457 88.4028 -162.627 98.8723 -148.45C114.204 -127.661 126.616 -105.625 142.086 -84.8938C154.206 -68.6288 169.027 -58.1458 188.761 -47.6628C211.927 -35.3496 244.248 -21.7096 256.623 -1.33835C265.545 13.4111 243.949 36.9793 236.108 49.973C230.851 58.7003 226.04 67.5649 223.397 77.0242C221.338 84.3904 221.134 91.2075 215.169 97.5328C200.151 113.443 167.224 115.519 144.883 120.764C115.212 127.724 83.7302 135.633 52.6794 137.143C33.5947 138.087 23.8553 124.298 12.9623 114.598C0.0908187 103.132 -18.1323 94.8849 -34.0483 86.2319C-55.0531 74.7938 -77.9123 67.6793 -101.56 60.3932C-112.227 57.1047 -124.755 53.8792 -133.02 47.3423C-141.649 40.5652 -141.306 30.6884 -141.241 21.6065Z" stroke="white" stroke-width="0.80547"/>
<path fill-rule="evenodd" clip-rule="evenodd" d="M-116.626 6.66793C-112.855 -14.4663 -101.103 -34.6657 -81.2537 -49.6059C-66.0376 -61.0763 -45.83 -67.5342 -33.6177 -81.3159C-22.2386 -94.1628 -14.309 -108.77 -4.91044 -122.506C5.03626 -137.028 19.8138 -161.299 42.7548 -165.251C67.479 -169.506 86.5246 -145.023 97.0706 -131.453C110.394 -114.305 120.516 -95.8547 132.428 -78.1157C141.403 -64.894 152.851 -52.8019 166.39 -42.2419C180.591 -31.1099 199.848 -20.4481 207.032 -5.14087C213.383 8.41716 201.5 24.8198 199.402 38.5671C197.159 53.255 201.091 68.6827 188.652 81.2945C162.999 107.304 98.62 102.48 61.815 103.037C25.4997 103.61 -3.69725 87.695 -33.0842 72.554C-52.4952 62.5575 -72.7102 54.0924 -92.6109 44.7784C-112.899 35.2751 -119.944 25.2672 -116.626 6.66793Z" stroke="white" stroke-width="0.80547"/>
<path fill-rule="evenodd" clip-rule="evenodd" d="M-93.7559 -5.42872C-82.6039 -36.0461 -47.773 -52.3192 -22.873 -75.4574C-2.49952 -94.3995 12.7769 -133.627 47.0885 -138.816C86.0438 -144.705 109.364 -92.7291 122.908 -72.6734C137.935 -50.4307 164.7 -32.3381 175.83 -8.79238C181.681 3.56595 176.657 15.0977 173.541 27.4503C170.126 41.014 167.56 54.882 155.771 65.7996C132.568 87.2846 87.2504 87.1353 54.6134 87.7265C20.8283 88.3407 -9.05911 73.6175 -35.9775 58.923C-64.5267 43.3617 -105.178 25.9694 -93.7559 -5.42872Z" stroke="white" stroke-width="0.80547"/>
<path fill-rule="evenodd" clip-rule="evenodd" d="M-75.0784 -13.731C-62.5121 -35.545 -36.1054 -53.2792 -14.6779 -70.0205C3.2065 -83.9774 22.4463 -112.074 49.7149 -114.076C81.7639 -116.439 101.188 -86.4367 113.798 -68.0406C126.21 -49.964 144.094 -30.8775 150.967 -11.0378C158.134 9.62928 139.049 37.4631 120.847 52.0875C100.547 68.3952 67.3341 74.4207 38.8354 73.7703C8.99612 73.1084 -18.383 59.6308 -40.9816 45.6512C-65.1418 30.7072 -89.6923 11.5922 -75.0784 -13.731Z" stroke="white" stroke-width="0.80547"/>
<path fill-rule="evenodd" clip-rule="evenodd" d="M-57.7465 -17.838C-45.7431 -35.9814 -24.9363 -51.3295 -5.75153 -65.02C9.05362 -75.5893 30.9001 -93.5612 52.2599 -94.0014C75.7579 -94.4873 95.6726 -79.4021 105.014 -63.9396C114.223 -48.6886 123.926 -29.5677 125.305 -12.8362C128.298 23.5992 67.3526 64.4133 21.5879 61.0921C-21.8027 57.9425 -81.6795 18.3116 -57.7465 -17.838Z" stroke="white" stroke-width="0.80547"/>
<path fill-rule="evenodd" clip-rule="evenodd" d="M-41.7179 -19.8386C-25.1586 -43.478 15.0643 -77.1792 52.3025 -77.9796C95.0458 -78.8943 105.776 -41.3914 100.204 -14.2132C94.5447 13.5252 45.2646 53.6751 5.97032 48.2497C-32.3807 42.9559 -61.343 8.19706 -41.7179 -19.8386Z" stroke="white" stroke-width="0.80547"/>
<path fill-rule="evenodd" clip-rule="evenodd" d="M-24.7943 -23.6605C-10.774 -43.4534 19.1441 -68.1759 50.348 -68.9242C87.5283 -69.8096 86.8269 -38.1467 78.3958 -18.4395C69.6286 2.02169 31.0163 36.9691 -1.53925 31.4511C-33.1962 26.0644 -38.23 -4.69017 -24.7943 -23.6605Z" stroke="white" stroke-width="0.80547"/>
<path fill-rule="evenodd" clip-rule="evenodd" d="M-10.0532 -25.9387C-0.798899 -40.0618 22.3625 -57.9119 44.3809 -58.483C71.294 -59.1696 66.0623 -34.056 59.1087 -21.9348C50.8436 -7.51171 23.1393 17.5499 -0.110125 13.4884C-23.0005 9.49027 -17.6882 -14.3021 -10.0532 -25.9387Z" stroke="white" stroke-width="0.80547"/>
</g>
</g>
</g>
<defs>
<filter id="filter0_d_290_1921" x="0" y="0" width="1569" height="310.856" filterUnits="userSpaceOnUse" color-interpolation-filters="sRGB">
<feFlood flood-opacity="0" result="BackgroundImageFix"/>
<feColorMatrix in="SourceAlpha" type="matrix" values="0 0 0 0 0 0 0 0 0 0 0 0 0 0 0 0 0 0 127 0" result="hardAlpha"/>
<feOffset dy="4"/>
<feGaussianBlur stdDeviation="2"/>
<feComposite in2="hardAlpha" operator="out"/>
<feColorMatrix type="matrix" values="0 0 0 0 0 0 0 0 0 0 0 0 0 0 0 0 0 0 0.25 0"/>
<feBlend mode="normal" in2="BackgroundImageFix" result="effect1_dropShadow_290_1921"/>
<feBlend mode="normal" in="SourceGraphic" in2="effect1_dropShadow_290_1921" result="shape"/>
</filter>
<clipPath id="clip0_290_1921">
<rect width="1561" height="302.857" fill="white" transform="translate(4)"/>
</clipPath>
</defs>
</svg>
