<svg width="145" height="45" viewBox="0 0 145 45" fill="none" xmlns="http://www.w3.org/2000/svg">
<path d="M5.51698 7.91276V16.4816H15.598V20.3881H5.51698V29.335H16.8582V33.2414H0.728484V4.00635H16.8582V7.91276H5.51698ZM34.4334 9.71895C36.2536 9.71895 37.8777 10.097 39.3059 10.8531C40.762 11.6091 41.8962 12.7293 42.7082 14.2134C43.5203 15.6976 43.9264 17.4898 43.9264 19.59V33.2414H39.1799V20.304C39.1799 18.2318 38.6618 16.6497 37.6257 15.5576C36.5896 14.4374 35.1755 13.8774 33.3833 13.8774C31.5911 13.8774 30.1629 14.4374 29.0988 15.5576C28.0627 16.6497 27.5447 18.2318 27.5447 20.304V33.2414H22.7562V10.097H27.5447V12.7433C28.3287 11.7912 29.3229 11.0491 30.527 10.517C31.7591 9.98497 33.0612 9.71895 34.4334 9.71895ZM59.3594 9.71895C61.1516 9.71895 62.7337 10.083 64.1059 10.8111C65.506 11.5111 66.5981 12.3932 67.3822 13.4573V10.097H72.2127V33.6194C72.2127 35.7477 71.7647 37.6379 70.8686 39.29C69.9725 40.9702 68.6703 42.2863 66.9622 43.2384C65.282 44.1905 63.2658 44.6666 60.9135 44.6666C57.7772 44.6666 55.1729 43.9245 53.1007 42.4404C51.0285 40.9842 49.8524 38.996 49.5723 36.4757H54.3188C54.6829 37.6799 55.453 38.646 56.6291 39.374C57.8332 40.1301 59.2614 40.5082 60.9135 40.5082C62.8457 40.5082 64.3999 39.9201 65.576 38.744C66.7801 37.5678 67.3822 35.8597 67.3822 33.6194V29.755C66.5701 30.8471 65.464 31.7712 64.0639 32.5273C62.6917 33.2554 61.1236 33.6194 59.3594 33.6194C57.3432 33.6194 55.495 33.1154 53.8148 32.1073C52.1626 31.0712 50.8465 29.643 49.8664 27.8228C48.9143 25.9746 48.4382 23.8884 48.4382 21.5642C48.4382 19.2399 48.9143 17.1817 49.8664 15.3895C50.8465 13.5973 52.1626 12.2112 53.8148 11.2311C55.495 10.223 57.3432 9.71895 59.3594 9.71895ZM67.3822 21.6482C67.3822 20.052 67.0462 18.6659 66.3741 17.4898C65.73 16.3136 64.8759 15.4175 63.8118 14.8015C62.7477 14.1854 61.5996 13.8774 60.3675 13.8774C59.1353 13.8774 57.9872 14.1854 56.9231 14.8015C55.859 15.3895 54.9909 16.2716 54.3188 17.4477C53.6748 18.5959 53.3527 19.968 53.3527 21.5642C53.3527 23.1603 53.6748 24.5605 54.3188 25.7646C54.9909 26.9687 55.859 27.8928 56.9231 28.5369C58.0152 29.153 59.1633 29.461 60.3675 29.461C61.5996 29.461 62.7477 29.153 63.8118 28.5369C64.8759 27.9208 65.73 27.0247 66.3741 25.8486C67.0462 24.6445 67.3822 23.2444 67.3822 21.6482ZM83.2907 2.15816V33.2414H78.5022V2.15816H83.2907ZM92.0138 7.03067C91.1457 7.03067 90.4177 6.73663 89.8296 6.14857C89.2415 5.56051 88.9475 4.83244 88.9475 3.96435C88.9475 3.09626 89.2415 2.36818 89.8296 1.78012C90.4177 1.19206 91.1457 0.898026 92.0138 0.898026C92.8539 0.898026 93.568 1.19206 94.1561 1.78012C94.7441 2.36818 95.0381 3.09626 95.0381 3.96435C95.0381 4.83244 94.7441 5.56051 94.1561 6.14857C93.568 6.73663 92.8539 7.03067 92.0138 7.03067ZM94.3661 10.097V33.2414H89.5776V10.097H94.3661ZM109.054 33.6194C107.234 33.6194 105.595 33.2974 104.139 32.6533C102.711 31.9813 101.577 31.0852 100.737 29.9651C99.8969 28.8169 99.4488 27.5428 99.3928 26.1427H104.349C104.433 27.1228 104.895 27.9488 105.735 28.6209C106.604 29.265 107.682 29.587 108.97 29.587C110.314 29.587 111.35 29.335 112.078 28.8309C112.834 28.2989 113.212 27.6268 113.212 26.8147C113.212 25.9466 112.792 25.3026 111.952 24.8825C111.14 24.4625 109.838 24.0004 108.046 23.4964C106.31 23.0203 104.895 22.5583 103.803 22.1102C102.711 21.6622 101.759 20.9761 100.947 20.052C100.163 19.1279 99.7709 17.9098 99.7709 16.3976C99.7709 15.1655 100.135 14.0454 100.863 13.0373C101.591 12.0012 102.627 11.1891 103.971 10.601C105.343 10.013 106.912 9.71895 108.676 9.71895C111.308 9.71895 113.422 10.391 115.018 11.7352C116.643 13.0513 117.511 14.8575 117.623 17.1537H112.834C112.75 16.1176 112.33 15.2915 111.574 14.6755C110.818 14.0594 109.796 13.7514 108.508 13.7514C107.248 13.7514 106.282 13.9894 105.609 14.4654C104.937 14.9415 104.601 15.5716 104.601 16.3556C104.601 16.9717 104.825 17.4898 105.273 17.9098C105.721 18.3298 106.268 18.6659 106.912 18.9179C107.556 19.1419 108.508 19.436 109.768 19.8C111.448 20.248 112.82 20.7101 113.884 21.1861C114.976 21.6342 115.915 22.3063 116.699 23.2023C117.483 24.0984 117.889 25.2886 117.917 26.7727C117.917 28.0889 117.553 29.265 116.825 30.3011C116.097 31.3372 115.06 32.1493 113.716 32.7373C112.4 33.3254 110.846 33.6194 109.054 33.6194ZM135.062 9.71895C136.826 9.71895 138.394 10.097 139.767 10.8531C141.167 11.6091 142.259 12.7293 143.043 14.2134C143.855 15.6976 144.261 17.4898 144.261 19.59V33.2414H139.515V20.304C139.515 18.2318 138.996 16.6497 137.96 15.5576C136.924 14.4374 135.51 13.8774 133.718 13.8774C131.926 13.8774 130.498 14.4374 129.433 15.5576C128.397 16.6497 127.879 18.2318 127.879 20.304V33.2414H123.091V2.15816H127.879V12.7853C128.691 11.8052 129.714 11.0491 130.946 10.517C132.206 9.98497 133.578 9.71895 135.062 9.71895Z" fill="black"/>
</svg>
