<svg width="102" height="49" viewBox="0 0 102 49" fill="none" xmlns="http://www.w3.org/2000/svg">
<path d="M19.7799 0.494666C22.5858 0.494666 25.0768 0.995719 27.2528 1.99782C29.4574 2.99993 31.1753 4.44582 32.4064 6.33551C33.6376 8.22519 34.2532 10.4298 34.2532 12.9494V13.6795H28.8418V13.0353C28.8418 11.2315 28.398 9.74267 27.5104 8.56877C26.6515 7.36624 25.5349 6.47867 24.1605 5.90603C22.7862 5.3334 21.326 5.04709 19.7799 5.04709C17.3462 5.04709 15.2561 5.64835 13.5096 6.85087C11.7631 8.02477 10.8469 9.88582 10.761 12.434H15.5711V17.0723H10.8039V44.2151H5.2637V17.0723H0.496543V12.434H5.2637C5.3496 9.91445 6.00812 7.76709 7.23928 5.99193C8.49907 4.18814 10.2026 2.82814 12.35 1.91193C14.4974 0.967086 16.974 0.494666 19.7799 0.494666ZM27.3641 24.8029C26.362 24.8029 25.546 25.0033 24.9161 25.4041C24.2863 25.805 23.9713 26.4635 23.9713 27.3797C23.9713 27.9524 24.1288 28.4534 24.4437 28.8829C24.7587 29.3124 25.1881 29.6416 25.7321 29.8707C26.3334 29.7561 27.0492 29.6989 27.8795 29.6989C30.8286 29.6989 33.1334 30.4147 34.794 31.8462C36.4547 33.2778 37.4281 35.1102 37.7145 37.3435H32.389C32.1886 36.4846 31.6875 35.7401 30.8858 35.1102C30.0841 34.4517 29.0534 34.1225 27.7936 34.1225C26.3048 34.1225 25.1023 34.5949 24.186 35.5397C23.2985 36.4846 22.8547 37.7157 22.8547 39.2332C22.8547 40.7507 23.2985 41.9818 24.186 42.9267C25.1023 43.8429 26.3048 44.301 27.7936 44.301C28.9961 44.301 29.9983 44.0004 30.7999 43.3991C31.6303 42.7692 32.1599 42.0248 32.389 41.1658H37.7145C37.4568 43.4564 36.426 45.3174 34.6223 46.749C32.8471 48.1806 30.5709 48.8964 27.7936 48.8964C25.6749 48.8964 23.8281 48.4812 22.2534 47.6509C20.7073 46.8206 19.5191 45.6753 18.6888 44.2151C17.8585 42.7262 17.4433 41.0227 17.4433 39.1044C17.4433 37.4151 17.8012 35.9119 18.517 34.5949C19.2614 33.2492 20.2921 32.1612 21.6092 31.3309C20.6071 30.7869 19.834 30.0997 19.29 29.2694C18.746 28.4105 18.474 27.4227 18.474 26.306C18.474 24.5881 19.0896 23.2425 20.3208 22.269C21.5806 21.2955 23.2698 20.8088 25.3886 20.8088H29.6833V17.0723H13.7498V12.434H40.6778V17.0723H34.9658V24.8029H27.3641ZM76.0638 25.7477C74.1741 25.7477 72.6423 26.2345 71.4684 27.2079C70.2945 28.1814 69.7076 29.5414 69.7076 31.2879C69.7076 32.8627 70.18 34.1225 71.1248 35.0673C72.0697 35.9835 73.3295 36.4416 74.9042 36.4416C76.1926 36.4416 77.2949 36.0408 78.2112 35.2391C79.156 34.4374 79.6284 33.2921 79.6284 31.8033H84.7391V45.3747H79.3278V38.2884C78.6979 39.1187 77.8676 39.7629 76.8368 40.221C75.8061 40.6505 74.6322 40.8652 73.3151 40.8652C71.5973 40.8652 70.0368 40.493 68.6339 39.7486C67.2309 39.0041 66.1143 37.9018 65.284 36.4416C64.4537 34.9814 64.0385 33.2062 64.0385 31.1161C64.0385 29.7991 64.2389 28.5679 64.6398 27.4227H58.713C59.7151 28.797 60.2162 30.4433 60.2162 32.3616C60.2162 34.0509 59.8297 35.5111 59.0566 36.7422C58.2836 37.9734 57.2242 38.9039 55.8785 39.5338C54.5615 40.1637 53.0869 40.4787 51.4549 40.4787C49.737 40.4787 48.1766 40.1208 46.7737 39.405C45.3707 38.6892 44.2541 37.6728 43.4238 36.3557C42.5935 35.01 42.1783 33.4353 42.1783 31.6315C42.1783 29.7418 42.6078 28.1385 43.4667 26.8214C44.3257 25.4757 45.4853 24.4736 46.9455 23.8151C48.4343 23.1279 50.0949 22.7844 51.9274 22.7844H68.4191C70.3661 21.5818 72.7282 20.9806 75.5055 20.9806H77.6528V17.0723H38.9143V12.434H88.6474L88.6044 17.0723H83.236V25.7477H76.0638ZM51.5408 35.7974C52.772 35.7974 53.7884 35.4109 54.5901 34.6378C55.3918 33.8361 55.7926 32.8197 55.7926 31.5886C55.7926 30.386 55.3918 29.3982 54.5901 28.6252C53.7884 27.8235 52.772 27.4227 51.5408 27.4227C50.2524 27.4227 49.193 27.8235 48.3627 28.6252C47.561 29.3982 47.1602 30.4004 47.1602 31.6315C47.1602 32.8627 47.561 33.8648 48.3627 34.6378C49.193 35.4109 50.2524 35.7974 51.5408 35.7974ZM101.885 12.434V17.0723H97.1181V44.2151H91.5778V17.0723H86.8107V12.434H91.7496V10.7161C91.7496 9.17003 91.4633 7.8673 90.8907 6.80793C90.3181 5.71993 89.273 5.17593 87.7555 5.17593C86.2094 5.17593 85.1501 5.71993 84.5774 6.80793C83.9762 7.8673 83.6755 9.17003 83.6755 10.7161V13.6795H78.3071V11.0168C78.3071 7.7814 79.0658 5.21888 80.5833 3.32919C82.0722 1.43951 84.4629 0.494666 87.7555 0.494666C93.9972 0.494666 97.1181 4.00203 97.1181 11.0168V12.434H101.885Z" fill="black"/>
</svg>
