<svg width="73" height="65" viewBox="0 0 73 65" fill="none" xmlns="http://www.w3.org/2000/svg">
<path d="M12.1667 10.1562C12.1667 6.79199 14.8915 4.0625 18.25 4.0625H54.75C58.1085 4.0625 60.8333 6.79199 60.8333 10.1562V48.75H12.1667V10.1562ZM51.8351 16.123C50.6437 14.9297 48.7174 14.9297 47.5387 16.123L33.471 30.2148L27.5144 24.248C26.3231 23.0547 24.3967 23.0547 23.2181 24.248C22.0394 25.4414 22.0267 27.3711 23.2181 28.5518L31.3292 36.6768C32.5205 37.8701 34.4469 37.8701 35.6255 36.6768L51.8351 20.4395C53.0264 19.2461 53.0264 17.3164 51.8351 16.1357V16.123ZM0 42.6562C0 39.292 2.72483 36.5625 6.08333 36.5625H8.11111V52.8125H64.8889V36.5625H66.9167C70.2752 36.5625 73 39.292 73 42.6562V54.8438C73 58.208 70.2752 60.9375 66.9167 60.9375H6.08333C2.72483 60.9375 0 58.208 0 54.8438V42.6562Z" fill="#2C3779"/>
</svg>
