<svg width="79" height="79" viewBox="0 0 79 79" fill="none" xmlns="http://www.w3.org/2000/svg">
<path d="M51.8434 47.7292C51.1887 47.7292 50.5607 47.9893 50.0978 48.4523C49.6348 48.9153 49.3747 49.5432 49.3747 50.1979C49.3747 50.8527 49.6348 51.4806 50.0978 51.9436C50.5607 52.4066 51.1887 52.6667 51.8434 52.6667H60.0726C60.7273 52.6667 61.3553 52.4066 61.8183 51.9436C62.2812 51.4806 62.5413 50.8527 62.5413 50.1979C62.5413 49.5432 62.2812 48.9153 61.8183 48.4523C61.3553 47.9893 60.7273 47.7292 60.0726 47.7292H51.8434ZM6.58301 27.1563C6.58301 24.319 7.71011 21.598 9.71635 19.5917C11.7226 17.5855 14.4437 16.4584 17.2809 16.4584H61.7184C63.1233 16.4584 64.5144 16.7351 65.8123 17.2727C67.1103 17.8103 68.2896 18.5983 69.283 19.5917C70.2764 20.5851 71.0644 21.7644 71.602 23.0624C72.1396 24.3603 72.4163 25.7514 72.4163 27.1563V51.8438C72.4163 53.2487 72.1396 54.6398 71.602 55.9377C71.0644 57.2356 70.2764 58.415 69.283 59.4084C68.2896 60.4017 67.1103 61.1897 65.8123 61.7274C64.5144 62.265 63.1233 62.5417 61.7184 62.5417H17.2809C14.4437 62.5417 11.7226 61.4146 9.71635 59.4084C7.71011 57.4021 6.58301 54.681 6.58301 51.8438V27.1563ZM67.4788 31.2709V27.1563C67.4788 25.6285 66.8719 24.1633 65.7916 23.0831C64.7114 22.0028 63.2462 21.3959 61.7184 21.3959H17.2809C15.7532 21.3959 14.288 22.0028 13.2077 23.0831C12.1274 24.1633 11.5205 25.6285 11.5205 27.1563V31.2709H67.4788ZM11.5205 36.2084V51.8438C11.5205 55.0235 14.1012 57.6042 17.2809 57.6042H61.7184C63.2462 57.6042 64.7114 56.9973 65.7916 55.917C66.8719 54.8367 67.4788 53.3715 67.4788 51.8438V36.2084H11.5205Z" fill="#248792"/>
</svg>
