<svg width="59" height="59" viewBox="0 0 59 59" fill="none" xmlns="http://www.w3.org/2000/svg">
<path fill-rule="evenodd" clip-rule="evenodd" d="M29.5 59C45.7924 59 59 45.7924 59 29.5C59 13.2076 45.7924 0 29.5 0C13.2076 0 0 13.2076 0 29.5C0 45.7924 13.2076 59 29.5 59Z" fill="#E9F3FF"/>
<path d="M29 19V28L33 29L29.1016 39H29V30.9688L25 29.9688L28.8984 19H29ZM31 17H27.4883L27.0156 18.3281L23.1133 29.3008L22.3789 31.375L24.5156 31.9102L27 32.5312V41H30.4688L30.9648 39.7266L34.8633 29.7266L35.6875 27.6094L31 26.4375V17Z" fill="#385173"/>
</svg>
