<svg width="59" height="59" viewBox="0 0 59 59" fill="none" xmlns="http://www.w3.org/2000/svg">
<path fill-rule="evenodd" clip-rule="evenodd" d="M29.5 59C45.7924 59 59 45.7924 59 29.5C59 13.2076 45.7924 0 29.5 0C13.2076 0 0 13.2076 0 29.5C0 45.7924 13.2076 59 29.5 59Z" fill="#E9F3FF"/>
<path d="M29 16C27.8945 16 27 16.8945 27 18C27 18.0859 27.0195 18.168 27.0312 18.25C23.5742 19.1328 21 22.2734 21 26V35C21 35.5664 20.5664 36 20 36H19V38H26.1875C26.0742 38.3164 26 38.6484 26 39C26 40.6445 27.3555 42 29 42C30.6445 42 32 40.6445 32 39C32 38.6484 31.9258 38.3164 31.8125 38H39V36H38C37.4336 36 37 35.5664 37 35V26.2812C37 22.5234 34.4883 19.1719 30.9688 18.25C30.9805 18.168 31 18.0859 31 18C31 16.8945 30.1055 16 29 16ZM28.5625 20C28.707 19.9883 28.8516 20 29 20C29.0625 20 29.125 20 29.1875 20C32.4531 20.0977 35 22.9609 35 26.2812V35C35 35.3516 35.0742 35.6836 35.1875 36H22.8125C22.9258 35.6836 23 35.3516 23 35V26C23 22.8242 25.4453 20.2266 28.5625 20ZM29 38C29.5625 38 30 38.4375 30 39C30 39.5625 29.5625 40 29 40C28.4375 40 28 39.5625 28 39C28 38.4375 28.4375 38 29 38Z" fill="#385173"/>
</svg>
