<svg width="79" height="79" viewBox="0 0 79 79" fill="none" xmlns="http://www.w3.org/2000/svg">
<path d="M16.9282 35.2678C16.9282 33.3971 17.6713 31.603 18.9941 30.2802C20.3169 28.9574 22.111 28.2142 23.9817 28.2142C25.8524 28.2142 27.6466 28.9574 28.9694 30.2802C30.2922 31.603 31.0353 33.3971 31.0353 35.2678C31.0353 37.1385 30.2922 38.9326 28.9694 40.2554C27.6466 41.5782 25.8524 42.3214 23.9817 42.3214C22.111 42.3214 20.3169 41.5782 18.9941 40.2554C17.6713 38.9326 16.9282 37.1385 16.9282 35.2678ZM23.9817 32.4464C23.2334 32.4464 22.5158 32.7436 21.9867 33.2728C21.4576 33.8019 21.1603 34.5195 21.1603 35.2678C21.1603 36.0161 21.4576 36.7337 21.9867 37.2629C22.5158 37.792 23.2334 38.0892 23.9817 38.0892C24.73 38.0892 25.4477 37.792 25.9768 37.2629C26.5059 36.7337 26.8032 36.0161 26.8032 35.2678C26.8032 34.5195 26.5059 33.8019 25.9768 33.2728C25.4477 32.7436 24.73 32.4464 23.9817 32.4464ZM23.9817 47.9642C22.111 47.9642 20.3169 48.7074 18.9941 50.0302C17.6713 51.353 16.9282 53.1471 16.9282 55.0178C16.9282 56.8885 17.6713 58.6826 18.9941 60.0054C20.3169 61.3282 22.111 62.0714 23.9817 62.0714C25.8524 62.0714 27.6466 61.3282 28.9694 60.0054C30.2922 58.6826 31.0353 56.8885 31.0353 55.0178C31.0353 53.1471 30.2922 51.353 28.9694 50.0302C27.6466 48.7074 25.8524 47.9642 23.9817 47.9642ZM21.1603 55.0178C21.1603 54.2695 21.4576 53.5519 21.9867 53.0228C22.5158 52.4936 23.2334 52.1964 23.9817 52.1964C24.73 52.1964 25.4477 52.4936 25.9768 53.0228C26.5059 53.5519 26.8032 54.2695 26.8032 55.0178C26.8032 55.7661 26.5059 56.4837 25.9768 57.0129C25.4477 57.542 24.73 57.8392 23.9817 57.8392C23.2334 57.8392 22.5158 57.542 21.9867 57.0129C21.4576 56.4837 21.1603 55.7661 21.1603 55.0178ZM36.6782 34.5624C36.6782 34.0012 36.9011 33.463 37.2979 33.0662C37.6948 32.6693 38.233 32.4464 38.7942 32.4464H59.9549C60.5162 32.4464 61.0544 32.6693 61.4512 33.0662C61.8481 33.463 62.071 34.0012 62.071 34.5624C62.071 35.1237 61.8481 35.6619 61.4512 36.0587C61.0544 36.4556 60.5162 36.6785 59.9549 36.6785H38.7942C38.233 36.6785 37.6948 36.4556 37.2979 36.0587C36.9011 35.6619 36.6782 35.1237 36.6782 34.5624ZM38.7942 52.1964C38.233 52.1964 37.6948 52.4193 37.2979 52.8162C36.9011 53.213 36.6782 53.7512 36.6782 54.3124C36.6782 54.8737 36.9011 55.4119 37.2979 55.8087C37.6948 56.2056 38.233 56.4285 38.7942 56.4285H59.9549C60.5162 56.4285 61.0544 56.2056 61.4512 55.8087C61.8481 55.4119 62.071 54.8737 62.071 54.3124C62.071 53.7512 61.8481 53.213 61.4512 52.8162C61.0544 52.4193 60.5162 52.1964 59.9549 52.1964H38.7942ZM16.9282 20.4553C16.9282 19.8941 17.1511 19.3559 17.5479 18.959C17.9448 18.5622 18.483 18.3392 19.0442 18.3392H59.9549C60.5162 18.3392 61.0544 18.5622 61.4512 18.959C61.8481 19.3559 62.071 19.8941 62.071 20.4553C62.071 21.0165 61.8481 21.5548 61.4512 21.9516C61.0544 22.3484 60.5162 22.5714 59.9549 22.5714H19.0442C18.483 22.5714 17.9448 22.3484 17.5479 21.9516C17.1511 21.5548 16.9282 21.0165 16.9282 20.4553ZM19.0442 8.46423C16.2381 8.46423 13.547 9.57895 11.5628 11.5631C9.57858 13.5474 8.46387 16.2385 8.46387 19.0446V59.9553C8.46387 62.7614 9.57858 65.4525 11.5628 67.4367C13.547 69.421 16.2381 70.5357 19.0442 70.5357H59.9549C62.761 70.5357 65.4522 69.421 67.4364 67.4367C69.4206 65.4525 70.5353 62.7614 70.5353 59.9553V19.0446C70.5353 16.2385 69.4206 13.5474 67.4364 11.5631C65.4522 9.57895 62.761 8.46423 59.9549 8.46423H19.0442ZM12.696 19.0446C12.696 17.3609 13.3648 15.7462 14.5554 14.5557C15.7459 13.3652 17.3606 12.6964 19.0442 12.6964H59.9549C61.6386 12.6964 63.2533 13.3652 64.4438 14.5557C65.6343 15.7462 66.3032 17.3609 66.3032 19.0446V59.9553C66.3032 61.639 65.6343 63.2536 64.4438 64.4442C63.2533 65.6347 61.6386 66.3035 59.9549 66.3035H19.0442C17.3606 66.3035 15.7459 65.6347 14.5554 64.4442C13.3648 63.2536 12.696 61.639 12.696 59.9553V19.0446Z" fill="#2C3779"/>
</svg>
