<svg width="59" height="59" viewBox="0 0 59 59" fill="none" xmlns="http://www.w3.org/2000/svg">
<path fill-rule="evenodd" clip-rule="evenodd" d="M29.5 59C45.7924 59 59 45.7924 59 29.5C59 13.2076 45.7924 0 29.5 0C13.2076 0 0 13.2076 0 29.5C0 45.7924 13.2076 59 29.5 59Z" fill="#E9F3FF"/>
<path d="M24.5 19L24.1875 19.4062L23 21H22V20H18V21H16V39H42V21H35L33.8125 19.4062L33.5 19H24.5ZM25.5 21H32.5L33.6875 22.5938L34 23H40V27H34.1875C33.1445 25.2148 31.207 24 29 24C26.793 24 24.8555 25.2148 23.8125 27H18V23H24L24.3125 22.5938L25.5 21ZM36 24V26H38V24H36ZM29 26C31.2227 26 33 27.7773 33 30C33 32.2227 31.2227 34 29 34C26.7773 34 25 32.2227 25 30C25 27.7773 26.7773 26 29 26ZM18 29H23.0938C23.0391 29.3203 23 29.6641 23 30C23 33.3008 25.6992 36 29 36C32.3008 36 35 33.3008 35 30C35 29.6641 34.9609 29.3203 34.9062 29H40V37H18V29Z" fill="#385173"/>
</svg>
