<svg width="334" height="153" viewBox="0 0 334 153" fill="none" xmlns="http://www.w3.org/2000/svg">
<path d="M62.7578 58.0725C62.7578 68.1259 62.7912 68.8774 63.0751 69.7458C63.9936 72.4679 65.9475 74.5554 68.6028 75.6242C68.9201 75.7578 69.4211 75.9582 69.6883 76.0918C70.0891 76.2755 72.0096 76.3423 79.6749 76.3757L89.1438 76.4258V73.9208V71.4158L80.1759 71.3657C70.1225 71.3156 70.7571 71.3824 69.4378 70.0631C68.1018 68.7271 68.1853 69.5788 68.1352 57.822L68.0851 47.3511H65.4298H62.7578V58.0725Z" fill="#2C3779"/>
<path d="M102.872 47.635C102.788 47.802 102.638 48.2696 102.504 48.6871C102.387 49.1046 102.12 49.9563 101.903 50.6076C101.703 51.2422 101.402 52.1941 101.252 52.6951C101.118 53.1961 100.918 53.7639 100.851 53.9476C100.768 54.1313 100.55 54.8494 100.35 55.5341C100.133 56.2188 99.8991 56.9202 99.8156 57.0705C99.7321 57.2375 99.6653 57.488 99.6653 57.6216C99.6653 57.7552 99.5985 58.0057 99.515 58.1727C99.4148 58.323 99.1476 59.1246 98.9138 59.9596C98.68 60.7779 98.3794 61.7298 98.2625 62.0471C98.1456 62.3644 97.9118 63.0825 97.7448 63.6336C97.5945 64.1847 97.3941 64.7859 97.3273 64.9696C97.0768 65.5541 96.5257 67.2742 96.342 68.0591C96.2251 68.4766 96.0748 68.9609 96.008 69.1446C95.7909 69.6289 95.4068 70.8313 95.0728 71.9836C94.505 74.0043 94.171 74.6389 93.6032 74.7057C93.1857 74.7558 93.1523 74.8059 93.1523 75.5908V76.4091H95.6573H98.1623V75.5574C98.1623 74.856 98.1122 74.689 97.8283 74.6222C97.4776 74.522 97.3607 73.8373 97.6613 73.6536C97.7615 73.6035 97.8283 73.3697 97.8283 73.1526C97.8283 72.9188 97.9285 72.4512 98.0621 72.1172C98.179 71.7665 98.5297 70.6977 98.8303 69.7291C99.1309 68.7605 99.4983 67.5581 99.6653 67.0571C100.367 64.9028 101.001 62.7485 101.001 62.5314C101.001 62.3978 101.068 62.2141 101.135 62.1306C101.202 62.0304 101.402 61.5127 101.569 60.9616C101.736 60.4105 102.104 59.325 102.371 58.5401C102.638 57.7552 103.022 56.6196 103.222 55.985C103.657 54.6657 103.924 54.5989 104.291 55.7011C104.408 56.1186 104.592 56.6029 104.675 56.7866C104.759 56.9703 105.059 57.9055 105.36 58.8741C105.661 59.8427 105.961 60.6944 106.045 60.7779C106.112 60.8781 106.178 61.0952 106.178 61.2789C106.178 61.4793 106.295 61.8467 106.429 62.1139C106.562 62.3644 106.679 62.7318 106.679 62.8988C106.679 63.0825 106.746 63.3497 106.846 63.5167C106.93 63.667 107.531 65.4205 108.182 67.3911C108.817 69.3617 109.435 71.1987 109.535 71.4826C110.053 72.9188 110.387 74.2381 110.303 74.4719C110.236 74.6222 110.003 74.7391 109.769 74.7391C109.351 74.7391 109.335 74.7725 109.401 75.524L109.468 76.3256L112.24 76.3757L115.029 76.4091V75.4906C115.029 74.9395 114.963 74.5888 114.862 74.6556C114.779 74.7057 114.528 74.7057 114.311 74.6556C113.977 74.5721 113.844 74.3216 113.543 73.2695C113.326 72.5681 113.059 71.7164 112.908 71.3824C112.407 70.1633 112.424 70.1466 115.631 70.0965C117.785 70.0631 118.536 70.1132 118.653 70.2635C118.753 70.3804 118.954 70.8981 119.104 71.3991C119.271 71.9001 119.455 72.4679 119.522 72.6516C119.755 73.2528 120.039 74.1713 120.039 74.3717C120.039 74.4719 119.789 74.6055 119.488 74.6556C118.971 74.7558 118.954 74.7892 118.954 75.5407L118.971 76.3256L121.759 76.3757L124.548 76.4091V75.6075C124.548 74.856 124.515 74.8059 124.014 74.6556C123.513 74.5053 123.446 74.3717 123.045 73.0691C122.795 72.2842 122.561 71.5327 122.511 71.3991C122.394 71.1152 121.142 67.1072 120.757 65.8046C120.624 65.337 120.44 64.8193 120.373 64.6356C120.29 64.4519 119.989 63.5167 119.705 62.5481C119.421 61.5795 119.121 60.6443 119.037 60.4606C118.971 60.2769 118.77 59.6757 118.62 59.1246C118.453 58.5735 118.085 57.3711 117.785 56.4526C117.484 55.5341 116.883 53.647 116.466 52.2776C116.031 50.8915 115.497 49.2382 115.28 48.6036L114.896 47.4346L113.142 47.3845L111.372 47.3344L111.522 47.802C111.606 48.0525 111.79 48.6704 111.94 49.1714C112.374 50.5742 112.441 50.5408 109.218 50.5241C107.665 50.5074 106.312 50.4406 106.212 50.3738C106.095 50.307 105.811 49.6223 105.56 48.8374L105.093 47.4346L104.057 47.3845C103.206 47.3511 103.005 47.3845 102.872 47.635ZM112.591 51.5094C112.741 51.6263 112.858 51.8601 112.858 52.0104C112.858 52.1607 113.042 52.7953 113.276 53.4466C113.51 54.0812 113.66 54.6991 113.627 54.7993C113.543 55.0164 108.316 55.1333 107.798 54.9496C107.464 54.816 106.412 51.5261 106.663 51.3758C106.746 51.309 108.065 51.2756 109.568 51.2756C111.623 51.2756 112.374 51.3424 112.591 51.5094ZM113.977 55.9015C114.128 56.152 115.196 59.1914 115.196 59.4085C115.196 59.492 113.827 59.5254 112.157 59.5087L109.101 59.4586L108.55 57.8053C108.249 56.9035 108.032 56.0518 108.082 55.9349C108.199 55.6176 113.777 55.5842 113.977 55.9015ZM116.098 62.164C116.415 63.166 116.633 64.0177 116.566 64.0845C116.466 64.1847 114.228 64.2515 111.656 64.2348C110.57 64.2181 110.57 64.2181 109.869 62.0304C109.301 60.2435 109.084 60.3771 112.508 60.3771H115.514L116.098 62.164ZM117.551 66.5561C117.802 67.341 118.069 68.2595 118.119 68.5935L118.236 69.2114L116.299 69.2615C115.246 69.2949 113.894 69.2949 113.293 69.2615L112.207 69.1947L111.606 67.341C110.971 65.3537 110.938 65.1032 111.188 65.0197C111.272 64.9863 112.641 65.003 114.211 65.0531L117.067 65.1366L117.551 66.5561Z" fill="#2A859E"/>
<path d="M128.89 61.6129C128.89 69.4619 128.839 76.0083 128.789 76.1586C128.689 76.4091 129.457 76.4258 138.425 76.359C148.662 76.2922 148.211 76.3256 150.433 75.5574C152.954 74.7057 155.86 72.7518 157.563 70.7979C158.899 69.2448 159.952 67.2742 160.352 65.5541C160.519 64.8694 160.72 64.168 160.803 64.0177C160.887 63.8507 160.954 63.0157 160.954 62.164C160.954 60.6276 160.636 58.9409 160.002 57.0538C159.4 55.2669 157.463 52.6116 155.676 51.1754C154.591 50.2903 152.336 48.8541 152.036 48.8541C151.969 48.8541 151.668 48.7539 151.384 48.6203C151.084 48.4867 150.433 48.2529 149.932 48.1026C149.431 47.9523 148.796 47.7352 148.512 47.635C148.178 47.5181 144.905 47.4346 138.459 47.3845L128.89 47.3344V61.6129ZM148.512 52.9289C150.266 53.5969 151.384 54.315 152.637 55.5842C154.691 57.6383 155.743 60.661 155.276 63.166C154.891 65.1366 154.24 66.506 152.988 67.8754C151.785 69.2114 150.7 69.9796 149.063 70.681C147.877 71.1653 147.41 71.2655 145.59 71.3991C143.252 71.5828 134.902 71.6162 134.501 71.4659C134.267 71.3657 134.234 70.3804 134.234 61.9803C134.234 56.8033 134.284 52.5281 134.35 52.4613C134.417 52.3945 137.373 52.3611 140.914 52.3945L147.343 52.4613L148.512 52.9289Z" fill="#2C3779"/>
<path d="M166.915 47.468C166.848 47.5181 166.798 54.0645 166.798 61.997V76.4258L176.701 76.3757C183.766 76.3423 186.688 76.2755 186.922 76.1252C187.106 76.025 187.707 75.8079 188.258 75.6409C192.867 74.2214 196.975 70.3303 198.261 66.1386C198.445 65.5875 198.662 64.9529 198.762 64.7358C198.862 64.502 198.946 63.333 198.946 61.8801C198.946 60.4272 198.862 59.2582 198.762 59.0244C198.662 58.8073 198.428 58.1727 198.261 57.6216C197.376 54.7826 194.988 51.7599 192.249 50.0565C190.279 48.8207 188.709 48.2028 186.254 47.6851C184.884 47.3845 183.933 47.3678 175.883 47.3511C171.007 47.3511 166.965 47.4012 166.915 47.468ZM186.07 52.7452C189.143 53.7973 191.448 55.7345 192.583 58.2395C193.251 59.7091 193.351 60.1934 193.351 61.8968C193.351 66.0885 190.88 69.2615 186.254 71.0317C185.302 71.3991 182.713 71.5661 177.787 71.5661C175.065 71.5661 172.727 71.516 172.577 71.4659C172.343 71.3657 172.309 70.3804 172.309 61.9803C172.309 56.8033 172.359 52.5281 172.426 52.4613C172.493 52.3945 175.416 52.3611 178.906 52.4112C184.267 52.4613 185.385 52.5114 186.07 52.7452Z" fill="#2C3779"/>
<path d="M211.222 47.6183C208.182 48.4199 205.994 50.5241 205.059 53.5468C204.942 53.9476 204.876 56.7198 204.876 61.9803C204.876 70.4973 204.859 70.1967 205.861 72.2174C206.479 73.4031 207.965 74.8226 209.301 75.4572C209.852 75.7244 210.453 76.025 210.637 76.1252C210.888 76.2755 214.495 76.3423 224.047 76.3757L237.123 76.4258L237.073 73.9542L237.023 71.4826L224.582 71.3991L212.123 71.3156L211.606 70.8981C210.503 70.013 210.387 69.5955 210.387 66.339C210.387 64.7358 210.437 63.2996 210.487 63.1493C210.587 62.9155 211.656 62.8821 220.924 62.8821H231.262V60.4606V58.0391H220.924C211.656 58.0391 210.587 58.0057 210.487 57.7719C210.437 57.6216 210.387 56.8367 210.387 56.0017C210.387 54.2482 210.67 53.5468 211.689 52.8621L212.307 52.4446L224.665 52.3611L237.023 52.2776V49.8561V47.4346L224.582 47.4012C214.127 47.3845 211.99 47.4179 211.222 47.6183Z" fill="#2C3779"/>
<path d="M242.784 61.8801V76.4091H245.623H248.462V69.8794C248.445 65.1366 248.496 63.2829 248.646 63.1159C248.796 62.9322 249.447 62.8821 251.735 62.8821C256.779 62.8821 258.298 63.6002 260.085 66.8066C261.605 69.5788 262.056 70.3637 262.34 70.7645C262.524 70.9983 262.657 71.2488 262.657 71.3156C262.657 71.3824 262.908 71.8667 263.225 72.3844C263.776 73.3029 264.06 73.7872 265.012 75.4906L265.479 76.3256L268.569 76.3757C270.272 76.3924 271.675 76.3924 271.675 76.359C271.675 76.2755 271.124 75.2902 270.356 73.9542C269.705 72.852 269.437 72.3677 268.502 70.681C268.135 70.013 267.767 69.3617 267.667 69.2281C267.584 69.0945 267.35 68.6436 267.133 68.2261C266.932 67.8086 266.632 67.2909 266.481 67.0571C266.331 66.8233 265.93 66.1052 265.596 65.4706C265.246 64.8193 264.828 64.0511 264.644 63.7338C264.461 63.4165 264.361 63.1159 264.444 63.0491C264.511 62.9823 265.112 62.7819 265.747 62.6149C266.932 62.3143 267.55 62.0137 268.819 61.162C270.089 60.3103 271.675 57.7385 271.675 56.5027C271.675 56.2522 271.759 56.0017 271.842 55.9516C271.942 55.9015 272.009 55.5174 272.009 55.1166C272.009 54.7158 271.942 54.3317 271.842 54.2816C271.759 54.2315 271.675 54.0144 271.675 53.814C271.675 53.2629 271.057 51.7432 270.506 50.9249C269.604 49.6223 267.2 47.8521 266.314 47.8521C266.181 47.8521 265.964 47.7519 265.864 47.635C265.697 47.4847 263.091 47.4179 254.224 47.3845L242.784 47.3344V61.8801ZM264.444 52.5448C264.695 52.6283 265.129 52.9122 265.379 53.1627C266.866 54.5655 266.582 56.6196 264.778 57.5715C264.077 57.9556 264.043 57.9556 256.311 57.9556H248.546L248.496 55.3671C248.479 53.9476 248.496 52.6951 248.529 52.5782C248.646 52.2943 263.709 52.2609 264.444 52.5448Z" fill="#2C3779"/>
<path d="M82.6615 89.528H85.4473V87.5751H77.7217V89.528H80.5075V97.3398H82.6615V89.528ZM95.9135 87.5751V91.4666H92.6969V87.5751H90.5429V97.3398H92.6969V93.4195H95.9135V97.3398H98.2111V87.5751H95.9135ZM109.761 95.3868H106.257V93.4195H109.617V91.4666H106.257V89.528H109.761V87.5751H104.103V97.3398H109.761V95.3868ZM130.449 94.0227C130.046 94.8842 129.07 95.473 128.065 95.473C126.485 95.473 125.222 94.1232 125.222 92.4574C125.222 90.806 126.485 89.4419 128.065 89.4419C129.056 89.4419 130.032 89.9875 130.434 90.8635H132.832C132.172 88.8675 130.291 87.4315 128.065 87.4315C125.293 87.4315 123.039 89.686 123.039 92.4574C123.039 95.2289 125.293 97.4834 128.065 97.4834C130.291 97.4834 132.186 96.033 132.847 94.0227H130.449ZM142.93 93.6062H140.46L141.695 90.1311L142.93 93.6062ZM146.578 97.3398L142.614 87.5751H140.79L136.827 97.3398H139.139L139.843 95.3725H143.562L144.266 97.3398H146.578ZM153.836 93.8503H153.85L156.176 97.3398H158.905L156.105 93.7498C157.34 93.4483 158.33 92.3569 158.33 90.7055C158.33 88.8531 156.923 87.5751 155.344 87.5751H153.836H153.304H151.682V97.3398H153.836V93.8503ZM154.985 89.2695C155.616 89.2695 156.277 89.8152 156.277 90.7055C156.277 91.6389 155.616 92.1559 154.985 92.1559H153.836V89.2695H154.985ZM169.413 95.3868H165.909V93.4195H169.269V91.4666H165.909V89.528H169.413V87.5751H163.755V97.3398H169.413V95.3868ZM180.954 95.3868H177.45V93.4195H180.81V91.4666H177.45V89.528H180.954V87.5751H175.296V97.3398H180.954V95.3868ZM188.991 93.8503H189.005L191.331 97.3398H194.06L191.259 93.7498C192.494 93.4483 193.485 92.3569 193.485 90.7055C193.485 88.8531 192.078 87.5751 190.498 87.5751H188.991H188.459H186.837V97.3398H188.991V93.8503ZM190.139 89.2695C190.771 89.2695 191.432 89.8152 191.432 90.7055C191.432 91.6389 190.771 92.1559 190.139 92.1559H188.991V89.2695H190.139ZM211.547 89.4419C212.494 89.4419 213.471 89.8296 213.945 90.8635H216.314C215.639 88.8387 213.701 87.4315 211.547 87.4315C208.79 87.4315 206.521 89.7003 206.521 92.4574C206.521 95.2145 208.79 97.4834 211.547 97.4834C214.333 97.4834 216.558 95.2289 216.558 92.4574V92.1271H211.748V93.7498H214.232C213.701 95.2289 212.494 95.5304 211.547 95.5304C209.996 95.5304 208.703 94.1375 208.703 92.4861C208.703 90.8348 209.996 89.4419 211.547 89.4419ZM227.79 87.5751V93.2185C227.79 94.5683 227.388 95.3294 225.909 95.3294C224.444 95.3294 224.028 94.5683 224.028 93.2185V87.5751H221.874V93.5344C221.874 96.1336 223.367 97.4834 225.909 97.4834C228.451 97.4834 229.944 96.1336 229.944 93.5344V87.5751H227.79ZM237.775 93.8503H237.79L240.116 97.3398H242.844L240.044 93.7498C241.279 93.4483 242.27 92.3569 242.27 90.7055C242.27 88.8531 240.863 87.5751 239.283 87.5751H237.775H237.244H235.621V97.3398H237.775V93.8503ZM238.924 89.2695C239.556 89.2695 240.217 89.8152 240.217 90.7055C240.217 91.6389 239.556 92.1559 238.924 92.1559H237.775V89.2695H238.924ZM253.396 87.5751V93.2185C253.396 94.5683 252.994 95.3294 251.515 95.3294C250.05 95.3294 249.633 94.5683 249.633 93.2185V87.5751H247.48V93.5344C247.48 96.1336 248.973 97.4834 251.515 97.4834C254.056 97.4834 255.55 96.1336 255.55 93.5344V87.5751H253.396Z" fill="white"/>
</svg>
