<svg width="210" height="54" viewBox="0 0 210 54" fill="none" xmlns="http://www.w3.org/2000/svg">
<path d="M19.9042 42.1937H22.69V40.2407H14.9644V42.1937H17.7502V50.0054H19.9042V42.1937ZM33.1562 40.2407V44.1322H29.9396V40.2407H27.7856V50.0054H29.9396V46.0852H33.1562V50.0054H35.4538V40.2407H33.1562ZM47.0034 48.0525H43.4996V46.0852H46.8598V44.1322H43.4996V42.1937H47.0034V40.2407H41.3456V50.0054H47.0034V48.0525ZM67.6912 46.6883C67.2892 47.5499 66.3127 48.1386 65.3075 48.1386C63.7279 48.1386 62.4643 46.7888 62.4643 45.1231C62.4643 43.4717 63.7279 42.1075 65.3075 42.1075C66.2983 42.1075 67.2748 42.6532 67.6769 43.5291H70.075C69.4144 41.5331 67.5333 40.0971 65.3075 40.0971C62.5361 40.0971 60.2816 42.3516 60.2816 45.1231C60.2816 47.8945 62.5361 50.149 65.3075 50.149C67.5333 50.149 69.4288 48.6987 70.0893 46.6883H67.6912ZM80.1728 46.2719H77.7029L78.9378 42.7968L80.1728 46.2719ZM83.8202 50.0054L79.8569 40.2407H78.0332L74.0698 50.0054H76.3818L77.0854 48.0381H80.8046L81.5082 50.0054H83.8202ZM91.0784 46.516H91.0928L93.4191 50.0054H96.1475L93.3473 46.4155C94.5822 46.1139 95.5731 45.0226 95.5731 43.3712C95.5731 41.5187 94.1658 40.2407 92.5862 40.2407H91.0784H90.5471H88.9245V50.0054H91.0784V46.516ZM92.2272 41.9352C92.8591 41.9352 93.5196 42.4809 93.5196 43.3712C93.5196 44.3046 92.8591 44.8215 92.2272 44.8215H91.0784V41.9352H92.2272ZM106.656 48.0525H103.152V46.0852H106.512V44.1322H103.152V42.1937H106.656V40.2407H100.998V50.0054H106.656V48.0525ZM118.196 48.0525H114.693V46.0852H118.053V44.1322H114.693V42.1937H118.196V40.2407H112.539V50.0054H118.196V48.0525ZM126.233 46.516H126.248L128.574 50.0054H131.302L128.502 46.4155C129.737 46.1139 130.728 45.0226 130.728 43.3712C130.728 41.5187 129.321 40.2407 127.741 40.2407H126.233H125.702H124.079V50.0054H126.233V46.516ZM127.382 41.9352C128.014 41.9352 128.674 42.4809 128.674 43.3712C128.674 44.3046 128.014 44.8215 127.382 44.8215H126.233V41.9352H127.382ZM148.789 42.1075C149.737 42.1075 150.714 42.4952 151.188 43.5291H153.557C152.882 41.5044 150.943 40.0971 148.789 40.0971C146.032 40.0971 143.763 42.366 143.763 45.1231C143.763 47.8802 146.032 50.149 148.789 50.149C151.575 50.149 153.801 47.8945 153.801 45.1231V44.7928H148.99V46.4155H151.475C150.943 47.8945 149.737 48.1961 148.789 48.1961C147.239 48.1961 145.946 46.8032 145.946 45.1518C145.946 43.5004 147.239 42.1075 148.789 42.1075ZM165.033 40.2407V45.8841C165.033 47.234 164.631 47.9951 163.152 47.9951C161.687 47.9951 161.271 47.234 161.271 45.8841V40.2407H159.117V46.2001C159.117 48.7992 160.61 50.149 163.152 50.149C165.694 50.149 167.187 48.7992 167.187 46.2001V40.2407H165.033ZM175.018 46.516H175.032L177.359 50.0054H180.087L177.287 46.4155C178.522 46.1139 179.513 45.0226 179.513 43.3712C179.513 41.5187 178.105 40.2407 176.526 40.2407H175.018H174.487H172.864V50.0054H175.018V46.516ZM176.167 41.9352C176.799 41.9352 177.459 42.4809 177.459 43.3712C177.459 44.3046 176.799 44.8215 176.167 44.8215H175.018V41.9352H176.167ZM190.638 40.2407V45.8841C190.638 47.234 190.236 47.9951 188.757 47.9951C187.293 47.9951 186.876 47.234 186.876 45.8841V40.2407H184.722V46.2001C184.722 48.7992 186.216 50.149 188.757 50.149C191.299 50.149 192.792 48.7992 192.792 46.2001V40.2407H190.638Z" fill="white"/>
<path d="M0 10.7381C0 20.7915 0.0334 21.543 0.3173 22.4114C1.2358 25.1335 3.1897 27.221 5.845 28.2898C6.1623 28.4234 6.6633 28.6238 6.9305 28.7574C7.3313 28.9411 9.2518 29.0079 16.9171 29.0413L26.386 29.0914V26.5864V24.0814L17.4181 24.0313C7.3647 23.9812 7.9993 24.048 6.68 22.7287C5.344 21.3927 5.4275 22.2444 5.3774 10.4876L5.3273 0.0167314H2.672H0V10.7381Z" fill="#2C3779"/>
<path d="M40.1139 0.300608C40.0304 0.467608 39.8801 0.935208 39.7465 1.35271C39.6296 1.77021 39.3624 2.62191 39.1453 3.27321C38.9449 3.90781 38.6443 4.85971 38.494 5.36071C38.3604 5.86171 38.16 6.42951 38.0932 6.61321C38.0097 6.79691 37.7926 7.51501 37.5922 8.19971C37.3751 8.88441 37.1413 9.58581 37.0578 9.73611C36.9743 9.90311 36.9075 10.1536 36.9075 10.2872C36.9075 10.4208 36.8407 10.6713 36.7572 10.8383C36.657 10.9886 36.3898 11.7902 36.156 12.6252C35.9222 13.4435 35.6216 14.3954 35.5047 14.7127C35.3878 15.03 35.154 15.7481 34.987 16.2992C34.8367 16.8503 34.6363 17.4515 34.5695 17.6352C34.319 18.2197 33.7679 19.9398 33.5842 20.7247C33.4673 21.1422 33.317 21.6265 33.2502 21.8102C33.0331 22.2945 32.649 23.4969 32.315 24.6492C31.7472 26.6699 31.4132 27.3045 30.8454 27.3713C30.4279 27.4214 30.3945 27.4715 30.3945 28.2564V29.0747H32.8995H35.4045V28.223C35.4045 27.5216 35.3544 27.3546 35.0705 27.2878C34.7198 27.1876 34.6029 26.5029 34.9035 26.3192C35.0037 26.2691 35.0705 26.0353 35.0705 25.8182C35.0705 25.5844 35.1707 25.1168 35.3043 24.7828C35.4212 24.4321 35.7719 23.3633 36.0725 22.3947C36.3731 21.4261 36.7405 20.2237 36.9075 19.7227C37.6089 17.5684 38.2435 15.4141 38.2435 15.197C38.2435 15.0634 38.3103 14.8797 38.3771 14.7962C38.4439 14.696 38.6443 14.1783 38.8113 13.6272C38.9783 13.0761 39.3457 11.9906 39.6129 11.2057C39.8801 10.4208 40.2642 9.28521 40.4646 8.65061C40.8988 7.33131 41.166 7.26451 41.5334 8.36671C41.6503 8.78421 41.834 9.26851 41.9175 9.45221C42.001 9.63591 42.3016 10.5711 42.6022 11.5397C42.9028 12.5083 43.2034 13.36 43.2869 13.4435C43.3537 13.5437 43.4205 13.7608 43.4205 13.9445C43.4205 14.1449 43.5374 14.5123 43.671 14.7795C43.8046 15.03 43.9215 15.3974 43.9215 15.5644C43.9215 15.7481 43.9883 16.0153 44.0885 16.1823C44.172 16.3326 44.7732 18.0861 45.4245 20.0567C46.0591 22.0273 46.677 23.8643 46.7772 24.1482C47.2949 25.5844 47.6289 26.9037 47.5454 27.1375C47.4786 27.2878 47.2448 27.4047 47.011 27.4047C46.5935 27.4047 46.5768 27.4381 46.6436 28.1896L46.7104 28.9912L49.4826 29.0413L52.2715 29.0747V28.1562C52.2715 27.6051 52.2047 27.2544 52.1045 27.3212C52.021 27.3713 51.7705 27.3713 51.5534 27.3212C51.2194 27.2377 51.0858 26.9872 50.7852 25.9351C50.5681 25.2337 50.3009 24.382 50.1506 24.048C49.6496 22.8289 49.6663 22.8122 52.8727 22.7621C55.027 22.7287 55.7785 22.7788 55.8954 22.9291C55.9956 23.046 56.196 23.5637 56.3463 24.0647C56.5133 24.5657 56.697 25.1335 56.7638 25.3172C56.9976 25.9184 57.2815 26.8369 57.2815 27.0373C57.2815 27.1375 57.031 27.2711 56.7304 27.3212C56.2127 27.4214 56.196 27.4548 56.196 28.2063L56.2127 28.9912L59.0016 29.0413L61.7905 29.0747V28.2731C61.7905 27.5216 61.7571 27.4715 61.2561 27.3212C60.7551 27.1709 60.6883 27.0373 60.2875 25.7347C60.037 24.9498 59.8032 24.1983 59.7531 24.0647C59.6362 23.7808 58.3837 19.7728 57.9996 18.4702C57.866 18.0026 57.6823 17.4849 57.6155 17.3012C57.532 17.1175 57.2314 16.1823 56.9475 15.2137C56.6636 14.2451 56.363 13.3099 56.2795 13.1262C56.2127 12.9425 56.0123 12.3413 55.862 11.7902C55.695 11.2391 55.3276 10.0367 55.027 9.11821C54.7264 8.19971 54.1252 6.31261 53.7077 4.94321C53.2735 3.55711 52.7391 1.90381 52.522 1.26921L52.1379 0.100208L50.3844 0.0501078L48.6142 7.77841e-06L48.7645 0.467608C48.848 0.718108 49.0317 1.33601 49.182 1.83701C49.6162 3.23981 49.683 3.20641 46.4599 3.18971C44.9068 3.17301 43.5541 3.10621 43.4539 3.03941C43.337 2.97261 43.0531 2.28791 42.8026 1.50301L42.335 0.100208L41.2996 0.0501078C40.4479 0.0167078 40.2475 0.0501078 40.1139 0.300608ZM49.8333 4.17501C49.9836 4.29191 50.1005 4.52571 50.1005 4.67601C50.1005 4.82631 50.2842 5.46091 50.518 6.11221C50.7518 6.74681 50.9021 7.36471 50.8687 7.46491C50.7852 7.68201 45.5581 7.79891 45.0404 7.61521C44.7064 7.48161 43.6543 4.19171 43.9048 4.04141C43.9883 3.97461 45.3076 3.94121 46.8106 3.94121C48.8647 3.94121 49.6162 4.00801 49.8333 4.17501ZM51.2194 8.56711C51.3697 8.81761 52.4385 11.857 52.4385 12.0741C52.4385 12.1576 51.0691 12.191 49.3991 12.1743L46.343 12.1242L45.7919 10.4709C45.4913 9.56911 45.2742 8.71741 45.3243 8.60051C45.4412 8.28321 51.019 8.24981 51.2194 8.56711ZM53.3403 14.8296C53.6576 15.8316 53.8747 16.6833 53.8079 16.7501C53.7077 16.8503 51.4699 16.9171 48.8981 16.9004C47.8126 16.8837 47.8126 16.8837 47.1112 14.696C46.5434 12.9091 46.3263 13.0427 49.7498 13.0427H52.7558L53.3403 14.8296ZM54.7932 19.2217C55.0437 20.0066 55.3109 20.9251 55.361 21.2591L55.4779 21.877L53.5407 21.9271C52.4886 21.9605 51.1359 21.9605 50.5347 21.9271L49.4492 21.8603L48.848 20.0066C48.2134 18.0193 48.18 17.7688 48.4305 17.6853C48.514 17.6519 49.8834 17.6686 51.4532 17.7187L54.3089 17.8022L54.7932 19.2217Z" fill="#2A859E"/>
<path d="M66.1313 14.2786C66.1313 22.1276 66.0812 28.674 66.0311 28.8243C65.9309 29.0748 66.6991 29.0915 75.667 29.0247C85.9041 28.9579 85.4532 28.9913 87.6743 28.2231C90.196 27.3714 93.1018 25.4175 94.8052 23.4636C96.1412 21.9105 97.1933 19.9399 97.5941 18.2198C97.7611 17.5351 97.9615 16.8337 98.045 16.6834C98.1285 16.5164 98.1953 15.6814 98.1953 14.8297C98.1953 13.2933 97.878 11.6066 97.2434 9.71945C96.6422 7.93256 94.705 5.27726 92.9181 3.84106C91.8326 2.95596 89.5781 1.51976 89.2775 1.51976C89.2107 1.51976 88.9101 1.41956 88.6262 1.28596C88.3256 1.15236 87.6743 0.918556 87.1733 0.768256C86.6723 0.617956 86.0377 0.400856 85.7538 0.300656C85.4198 0.183756 82.1466 0.100256 75.7004 0.0501562L66.1313 5.62094e-05V14.2786ZM85.7538 5.59456C87.5073 6.26256 88.6262 6.98066 89.8787 8.24986C91.9328 10.304 92.9849 13.3267 92.5173 15.8317C92.1332 17.8023 91.4819 19.1717 90.2294 20.5411C89.027 21.8771 87.9415 22.6453 86.3049 23.3467C85.1192 23.831 84.6516 23.9312 82.8313 24.0648C80.4933 24.2485 72.1433 24.2819 71.7425 24.1316C71.5087 24.0314 71.4753 23.0461 71.4753 14.646C71.4753 9.46895 71.5254 5.19376 71.5922 5.12696C71.659 5.06016 74.6149 5.02676 78.1553 5.06016L84.5848 5.12696L85.7538 5.59456Z" fill="#2C3779"/>
<path d="M104.158 0.133631C104.091 0.183731 104.041 6.73013 104.041 14.6626V29.0914L113.944 29.0413C121.008 29.0079 123.931 28.9411 124.165 28.7908C124.348 28.6906 124.949 28.4735 125.501 28.3065C130.11 26.887 134.218 22.9959 135.504 18.8042C135.688 18.2531 135.905 17.6185 136.005 17.4014C136.105 17.1676 136.189 15.9986 136.189 14.5457C136.189 13.0928 136.105 11.9238 136.005 11.69C135.905 11.4729 135.671 10.8383 135.504 10.2872C134.619 7.44823 132.231 4.42553 129.492 2.72213C127.521 1.48633 125.951 0.868431 123.497 0.350731C122.127 0.0501314 121.175 0.0334314 113.126 0.0167314C108.249 0.0167314 104.208 0.0668314 104.158 0.133631ZM123.313 5.41083C126.386 6.46293 128.69 8.40013 129.826 10.9051C130.494 12.3747 130.594 12.859 130.594 14.5624C130.594 18.7541 128.122 21.9271 123.497 23.6973C122.545 24.0647 119.956 24.2317 115.03 24.2317C112.308 24.2317 109.97 24.1816 109.819 24.1315C109.585 24.0313 109.552 23.046 109.552 14.6459C109.552 9.46893 109.602 5.19373 109.669 5.12693C109.736 5.06013 112.658 5.02673 116.149 5.07683C121.509 5.12693 122.628 5.17703 123.313 5.41083Z" fill="#2C3779"/>
<path d="M148.463 0.283931C145.424 1.08553 143.236 3.18973 142.301 6.21243C142.184 6.61323 142.117 9.38543 142.117 14.6459C142.117 23.1629 142.101 22.8623 143.103 24.883C143.72 26.0687 145.207 27.4882 146.543 28.1228C147.094 28.39 147.695 28.6906 147.879 28.7908C148.129 28.9411 151.736 29.0079 161.289 29.0413L174.365 29.0914L174.315 26.6198L174.265 24.1482L161.823 24.0647L149.365 23.9812L148.847 23.5637C147.745 22.6786 147.628 22.2611 147.628 19.0046C147.628 17.4014 147.678 15.9652 147.728 15.8149C147.829 15.5811 148.897 15.5477 158.166 15.5477H168.503V13.1262V10.7047H158.166C148.897 10.7047 147.829 10.6713 147.728 10.4375C147.678 10.2872 147.628 9.50233 147.628 8.66733C147.628 6.91383 147.912 6.21243 148.931 5.52773L149.549 5.11023L161.907 5.02673L174.265 4.94323V2.52173V0.100231L161.823 0.0668314C151.369 0.0501314 149.231 0.0835314 148.463 0.283931Z" fill="#2C3779"/>
<path d="M180.025 14.5458V29.0748H182.864H185.703V22.5451C185.687 17.8023 185.737 15.9486 185.887 15.7816C186.037 15.5979 186.689 15.5478 188.977 15.5478C194.02 15.5478 195.54 16.2659 197.327 19.4723C198.846 22.2445 199.297 23.0294 199.581 23.4302C199.765 23.664 199.898 23.9145 199.898 23.9813C199.898 24.0481 200.149 24.5324 200.466 25.0501C201.017 25.9686 201.301 26.4529 202.253 28.1563L202.721 28.9913L205.81 29.0414C207.514 29.0581 208.916 29.0581 208.916 29.0247C208.916 28.9412 208.365 27.9559 207.597 26.6199C206.946 25.5177 206.679 25.0334 205.743 23.3467C205.376 22.6787 205.009 22.0274 204.908 21.8938C204.825 21.7602 204.591 21.3093 204.374 20.8918C204.174 20.4743 203.873 19.9566 203.723 19.7228C203.572 19.489 203.172 18.7709 202.838 18.1363C202.487 17.485 202.069 16.7168 201.886 16.3995C201.702 16.0822 201.602 15.7816 201.685 15.7148C201.752 15.648 202.353 15.4476 202.988 15.2806C204.174 14.98 204.791 14.6794 206.061 13.8277C207.33 12.976 208.916 10.4042 208.916 9.16837C208.916 8.91787 209 8.66737 209.083 8.61727C209.184 8.56717 209.25 8.18307 209.25 7.78227C209.25 7.38147 209.184 6.99737 209.083 6.94727C209 6.89717 208.916 6.68007 208.916 6.47967C208.916 5.92857 208.298 4.40887 207.747 3.59057C206.846 2.28797 204.441 0.517769 203.556 0.517769C203.422 0.517769 203.205 0.417569 203.105 0.300669C202.938 0.150369 200.333 0.0835688 191.465 0.0501688L180.025 6.88136e-05V14.5458ZM201.685 5.21047C201.936 5.29397 202.37 5.57787 202.62 5.82837C204.107 7.23117 203.823 9.28527 202.019 10.2372C201.318 10.6213 201.284 10.6213 193.552 10.6213H185.787L185.737 8.03277C185.72 6.61327 185.737 5.36077 185.77 5.24387C185.887 4.95997 200.95 4.92657 201.685 5.21047Z" fill="#2C3779"/>
</svg>
