<svg width="1370" height="431" viewBox="0 0 1370 431" fill="none" xmlns="http://www.w3.org/2000/svg">
<path d="M1201.04 344.307C1201.04 344.307 1187.38 328.358 1200.2 318.23C1200.2 318.23 1209.57 312.559 1217.21 313.023C1217.21 313.023 1206.38 331.172 1209.88 332.975C1213.39 334.783 1220.48 311.88 1220.48 311.88C1220.48 311.88 1241.8 309.816 1248.66 313.112C1248.66 313.112 1230.44 328.026 1234.27 328.916C1238.11 329.801 1257.8 315.163 1257.8 315.163C1257.8 315.163 1277.63 318.539 1276.58 330.643C1275.52 342.748 1268.68 346.484 1265.68 346.161C1262.67 345.843 1245.1 339.133 1244.71 341.596C1244.33 344.054 1254.91 352.103 1262.32 352.478C1262.32 352.478 1248.33 367.907 1239.04 363.454C1229.74 359.001 1228.95 351.944 1223.15 349.294C1217.36 346.648 1212.41 346.658 1214.81 349.355C1217.2 352.057 1227.69 354.679 1231 360.541C1234.31 366.404 1237.28 370.356 1227.67 368.909C1218.05 367.462 1202.42 360.424 1201.73 352.366C1201.04 344.307 1201.04 344.307 1201.04 344.307" fill="#233862"/>
<path d="M1266.83 330.971C1266.83 330.971 1212.94 328.892 1201.05 344.307C1201.05 344.307 1198.41 352.188 1190.31 359.366L1189.05 362.808C1189.05 362.808 1198.39 352.96 1201.73 352.366C1201.73 352.366 1196.5 333.27 1266.83 330.971" fill="#77A4E5"/>
<path d="M1190.31 359.366C1190.31 359.366 1178.75 367.921 1177.94 383.205L1180.05 383.392C1180.05 383.392 1183.74 367.588 1190.41 361.407C1197.09 355.226 1190.31 359.366 1190.31 359.366" fill="#77A4E5"/>
<path d="M1153.26 324.252C1153.26 324.252 1175 312.077 1164.86 295.553C1164.86 295.553 1156.74 285.406 1148.04 282.797C1148.04 282.797 1152.68 307.437 1148.04 308.017C1143.4 308.598 1144.85 280.189 1144.85 280.189C1144.85 280.189 1121.95 269.171 1112.97 270.042C1112.97 270.042 1127.18 294.106 1122.54 293.525C1117.9 292.944 1101.95 268.595 1101.95 268.595C1101.95 268.595 1078.48 264.245 1074.71 278.162C1070.94 292.073 1077.03 299.032 1080.5 299.903C1083.98 300.774 1106.3 300.483 1105.72 303.382C1105.14 306.28 1090.07 310.916 1081.67 308.308C1081.67 308.308 1090.94 331.21 1103.11 330.049C1115.29 328.892 1119.06 321.353 1126.59 320.773C1134.13 320.192 1139.64 322.224 1135.87 324.252C1132.1 326.284 1119.35 324.917 1113.26 330.091C1107.17 335.27 1102.24 338.459 1113.55 340.776C1124.85 343.094 1145.15 341.647 1149.2 332.947C1153.26 324.252 1153.26 324.252 1153.26 324.252" fill="#374497"/>
<path d="M1085.43 282.507C1085.43 282.507 1146.31 302.221 1153.26 324.252C1153.26 324.252 1152.97 334.109 1159.06 345.417V349.762C1159.06 349.762 1152.68 334.98 1149.2 332.947C1149.2 332.947 1162.82 313.815 1085.43 282.507Z" fill="#77A4E5"/>
<path d="M1159.06 345.417C1159.06 345.417 1168.44 359.67 1163.1 377.024L1160.68 376.377C1160.68 376.377 1163.02 357.263 1158.11 347.65C1153.2 338.032 1159.06 345.417 1159.06 345.417Z" fill="#77A4E5"/>
<path d="M1187.85 307.46C1187.85 307.46 1159.19 291.413 1172.56 269.63C1172.56 269.63 1183.26 256.257 1194.72 252.815C1194.72 252.815 1188.61 285.298 1194.72 286.061C1200.84 286.824 1198.93 249.378 1198.93 249.378C1198.93 249.378 1229.11 234.858 1240.96 236.005C1240.96 236.005 1222.24 267.72 1228.35 266.956C1234.46 266.193 1255.48 234.095 1255.48 234.095C1255.48 234.095 1286.43 228.358 1291.4 246.705C1296.36 265.046 1288.34 274.214 1283.75 275.362C1279.17 276.509 1249.75 276.125 1250.51 279.946C1251.27 283.771 1271.15 289.882 1282.22 286.445C1282.22 286.445 1270 316.633 1253.95 315.102C1237.9 313.576 1232.93 303.639 1223 302.876C1213.06 302.113 1205.81 304.787 1210.77 307.46C1215.74 310.134 1232.55 308.336 1240.58 315.158C1248.6 321.981 1255.1 326.186 1240.2 329.243C1225.29 332.301 1198.55 330.391 1193.2 318.923C1187.85 307.46 1187.85 307.46 1187.85 307.46" fill="#2C3677"/>
<path d="M1277.26 252.436C1277.26 252.436 1197.02 278.419 1187.85 307.46C1187.85 307.46 1188.23 320.454 1180.21 335.359V341.09C1180.21 341.09 1188.61 321.601 1193.2 318.923C1193.2 318.923 1175.24 293.703 1277.26 252.436" fill="#9FC1F4"/>
<path d="M1180.21 335.359C1180.21 335.359 1167.83 354.15 1174.89 377.024L1178.07 376.171C1178.07 376.171 1174.98 350.975 1181.46 338.299C1187.93 325.628 1180.21 335.359 1180.21 335.359Z" fill="#9FC1F4"/>
<path d="M1186.88 426.635C1217.89 426.635 1243.01 401.499 1243.01 370.492H1130.75C1130.75 401.499 1155.88 426.635 1186.88 426.635" fill="#233862"/>
<path d="M1200.69 426.204C1198.41 426.49 1196.08 426.635 1193.72 426.635C1162.72 426.635 1137.59 401.499 1137.59 370.492H1151.54C1151.54 399.139 1172.98 422.767 1200.69 426.204Z" fill="#AFCDFB"/>
<path d="M1244.29 372.215H1128.9V370.492H1244.29V372.215Z" fill="#9FC1F4"/>
<path d="M925.551 423.872L870.392 194.906L874.245 185.893L928.89 423.849C929.03 424.458 928.566 425.038 927.944 425.038H927.031C926.328 425.038 925.715 424.556 925.551 423.872Z" fill="#77A4E5"/>
<path d="M676.61 425.038C675.477 425.038 674.615 424.022 674.798 422.903L691.045 324.42H698.007L678.633 423.376C678.441 424.341 677.598 425.038 676.61 425.038" fill="#77A4E5"/>
<path d="M832.457 425.038C831.324 425.038 830.462 424.022 830.645 422.903L846.891 324.42H853.854L834.479 423.376C834.292 424.341 833.445 425.038 832.457 425.038" fill="#77A4E5"/>
<path d="M870.246 324.626H676.221L716.416 72.5895H910.446L870.246 324.626Z" fill="#F5FBFF"/>
<path d="M884.766 330.119H661.927V322.706H884.766V330.119Z" fill="#77A4E5"/>
<path d="M793.259 125.324C793.109 127.323 792.814 129.281 792.388 131.191C788.343 149.205 772.307 163.004 754.182 163.037C734.134 163.07 719.118 146.241 720.649 125.45C722.18 104.655 739.677 87.7749 759.726 87.7374C763.931 87.7328 767.915 88.4679 771.567 89.8258C773.21 90.4346 774.793 91.1697 776.296 92.022C779.541 93.8622 782.429 96.2362 784.864 99.0411C786.222 100.605 787.439 102.3 788.502 104.112C789.12 105.156 789.682 106.243 790.188 107.367C791.597 110.485 792.571 113.871 793.039 117.443C793.278 119.237 793.386 121.077 793.362 122.955C793.348 123.737 793.315 124.528 793.259 125.324" fill="#BDD1F9"/>
<path d="M790.188 107.367L756.954 125.385C756.954 125.385 770.668 101.237 776.296 92.022C779.541 93.8623 782.429 96.2363 784.864 99.0412C786.222 100.605 787.439 102.3 788.502 104.112C789.12 105.157 789.682 106.243 790.188 107.367" fill="white"/>
<path d="M793.638 102.811L763.284 119.27C763.284 119.27 775.809 97.2104 780.95 88.7912C783.913 90.4722 786.554 92.6403 788.778 95.2063C790.019 96.6298 791.129 98.1844 792.098 99.8326C792.664 100.793 793.175 101.785 793.638 102.811" fill="#F99746"/>
<path d="M696.386 304.529L853.83 304.538L869.674 214.241L712.23 214.231L696.386 304.529ZM854.795 305.47L695.094 305.456L711.261 213.304L870.967 213.314L854.795 305.47" fill="#BDD1F9"/>
<path d="M845.272 292.832L703.639 292.823C703.639 292.823 728.763 279.346 735.655 280.053C742.547 280.76 752.449 286.216 758.822 286.426C765.189 286.642 772.086 267.514 779.179 268.417C786.268 269.316 788.937 286.234 792.608 284.581C796.278 282.928 807.305 282.212 813.653 284.581C820.002 286.951 829.254 277.052 834.835 277.366C840.416 277.675 845.272 292.832 845.272 292.832Z" fill="#F99746"/>
<path d="M737.697 265.748L710.644 265.744L710.896 264.311H737.945L737.697 265.748" fill="#F99746"/>
<path d="M737.159 268.811H710.105L710.358 267.373L737.411 267.378L737.159 268.811" fill="#F99746"/>
<path d="M711.743 246.63L853.376 246.639C853.376 246.639 832.981 233.163 825.841 233.865C818.701 234.572 806.883 240.027 800.441 240.238C793.993 240.449 793.811 221.321 786.404 222.224C778.997 223.123 770.391 240.041 767.301 238.388C764.206 236.735 753.437 236.014 746.255 238.384C739.077 240.753 733.3 230.854 727.606 231.163C721.917 231.472 711.743 246.63 711.743 246.63" fill="#BDD1F9"/>
<path d="M745.337 222.187H718.284L718.537 220.754H745.59L745.337 222.187Z" fill="#BDD1F9"/>
<path d="M744.799 225.254H717.746L717.999 223.816H745.052L744.799 225.254Z" fill="#BDD1F9"/>
<path d="M720.926 200.451H714.713L720.111 171.339H726.324L720.926 200.451Z" fill="#BDD1F9"/>
<path d="M729.386 200.451H723.173L727.354 177.9H733.567L729.386 200.451Z" fill="#BDD1F9"/>
<path d="M737.852 200.451H731.639L735.998 176.93H742.211L737.852 200.451Z" fill="#BDD1F9"/>
<path d="M746.312 200.451H740.099L743.418 182.563H749.631L746.312 200.451Z" fill="#BDD1F9"/>
<path d="M754.778 200.451H748.564L752.123 181.262H758.336L754.778 200.451Z" fill="#BDD1F9"/>
<path d="M763.237 200.451H757.023L759.786 185.57H765.994L763.237 200.451" fill="#BDD1F9"/>
<path d="M804.028 200.451H797.814L803.213 171.339H809.426L804.028 200.451Z" fill="#F99746"/>
<path d="M812.488 200.451H806.279L810.46 177.9H816.669L812.488 200.451Z" fill="#F99746"/>
<path d="M820.953 200.451H814.74L819.099 176.93H825.312L820.953 200.451Z" fill="#F99746"/>
<path d="M829.413 200.451H823.2L826.52 182.563H832.733L829.413 200.451Z" fill="#F99746"/>
<path d="M837.879 200.451H831.666L835.224 181.262H841.437L837.879 200.451Z" fill="#F99746"/>
<path d="M846.339 200.451H840.126L842.888 185.57H849.102L846.339 200.451Z" fill="#F99746"/>
<path d="M833.937 105.414H813.715L814.235 102.647H834.456L833.937 105.414Z" fill="#BDD1F9"/>
<path d="M858.748 105.414H836.414L836.938 102.647H859.267L858.748 105.414" fill="#BDD1F9"/>
<path d="M874.661 105.414H860.423L860.943 102.647H875.181L874.661 105.414Z" fill="#BDD1F9"/>
<path d="M887.949 105.414H876.965L877.485 102.647H888.469L887.949 105.414Z" fill="#BDD1F9"/>
<path d="M831.717 117.238H811.495L812.015 114.465H832.237L831.717 117.238Z" fill="#BDD1F9"/>
<path d="M856.523 117.238H834.194L834.714 114.465H857.048L856.523 117.238" fill="#BDD1F9"/>
<path d="M872.442 117.238H858.204L858.724 114.465H872.962L872.442 117.238Z" fill="#BDD1F9"/>
<path d="M885.73 117.238H874.746L875.266 114.465H886.25L885.73 117.238Z" fill="#BDD1F9"/>
<path d="M845.956 98.9521H814.928L815.447 96.1801H846.476L845.956 98.9521Z" fill="#BDD1F9"/>
<path d="M866.796 98.9521H848.91L849.43 96.1801H867.315L866.796 98.9521Z" fill="#BDD1F9"/>
<path d="M889.181 98.9521H869.319L869.839 96.1801H889.7L889.181 98.9521Z" fill="#BDD1F9"/>
<path d="M843.595 111.52H812.567L813.087 108.748H844.115L843.595 111.52Z" fill="#BDD1F9"/>
<path d="M864.436 111.52H846.551L847.07 108.748H864.956L864.436 111.52Z" fill="#BDD1F9"/>
<path d="M886.82 111.52H866.959L867.479 108.748H887.34L886.82 111.52Z" fill="#BDD1F9"/>
<path d="M829.498 129.056H809.276L809.796 126.284H830.018L829.498 129.056Z" fill="#BDD1F9"/>
<path d="M854.304 129.056H831.976L832.495 126.284H854.824L854.304 129.056Z" fill="#BDD1F9"/>
<path d="M870.223 129.056H855.984L856.504 126.284H870.742L870.223 129.056Z" fill="#BDD1F9"/>
<path d="M883.511 129.056H872.526L873.046 126.284H884.03L883.511 129.056Z" fill="#BDD1F9"/>
<path d="M841.377 123.339H810.349L810.868 120.571H841.897L841.377 123.339Z" fill="#BDD1F9"/>
<path d="M862.217 123.339H844.331L844.851 120.571H862.736L862.217 123.339Z" fill="#BDD1F9"/>
<path d="M884.597 123.339H864.735L865.26 120.571H885.121L884.597 123.339Z" fill="#BDD1F9"/>
<path d="M827.419 140.14H807.192L807.712 137.368H827.939L827.419 140.14Z" fill="#BDD1F9"/>
<path d="M852.225 140.14H829.896L830.416 137.368H852.745L852.225 140.14Z" fill="#BDD1F9"/>
<path d="M868.14 140.14H853.906L854.426 137.368H868.659L868.14 140.14Z" fill="#BDD1F9"/>
<path d="M881.432 140.14H870.447L870.967 137.368H881.951L881.432 140.14Z" fill="#BDD1F9"/>
<path d="M839.293 134.422H808.27L808.789 131.65H839.813L839.293 134.422Z" fill="#BDD1F9"/>
<path d="M860.134 134.422H842.248L842.772 131.65H860.653L860.134 134.422" fill="#BDD1F9"/>
<path d="M882.518 134.422H862.656L863.176 131.65H883.037L882.518 134.422Z" fill="#BDD1F9"/>
<path d="M781.395 175.666H771.497L771.755 174.313H781.652L781.395 175.666Z" fill="#BDD1F9"/>
<path d="M793.539 175.666H782.611L782.864 174.313H793.792L793.539 175.666Z" fill="#BDD1F9"/>
<path d="M780.308 181.454H770.41L770.668 180.096H780.566L780.308 181.454Z" fill="#BDD1F9"/>
<path d="M792.453 181.454H781.525L781.778 180.096H792.706L792.453 181.454Z" fill="#BDD1F9"/>
<path d="M787.28 172.505H772.091L772.348 171.147H787.532L787.28 172.505" fill="#BDD1F9"/>
<path d="M797.477 172.505H788.727L788.979 171.147H797.735L797.477 172.505Z" fill="#BDD1F9"/>
<path d="M786.123 178.658H770.939L771.192 177.3H786.376L786.123 178.658Z" fill="#BDD1F9"/>
<path d="M796.326 178.658H787.57L787.823 177.3H796.579L796.326 178.658Z" fill="#BDD1F9"/>
<path d="M860.685 175.666H850.787L851.045 174.313H860.942L860.685 175.666Z" fill="#BDD1F9"/>
<path d="M872.83 175.666H861.897L862.155 174.313H873.083L872.83 175.666Z" fill="#BDD1F9"/>
<path d="M859.599 181.454H849.701L849.959 180.096H859.857L859.599 181.454Z" fill="#BDD1F9"/>
<path d="M871.744 181.454H860.812L861.069 180.096H871.997L871.744 181.454Z" fill="#BDD1F9"/>
<path d="M866.571 172.505H851.382L851.639 171.147H866.823L866.571 172.505" fill="#BDD1F9"/>
<path d="M876.768 172.505H868.018L868.27 171.147H877.026L876.768 172.505Z" fill="#BDD1F9"/>
<path d="M865.414 178.658H850.226L850.483 177.3H865.667L865.414 178.658" fill="#BDD1F9"/>
<path d="M875.617 178.658H866.861L867.114 177.3H875.87L875.617 178.658Z" fill="#BDD1F9"/>
<path d="M913.35 421.302C912.999 426.04 906.318 426.092 898.733 425.212C891.148 424.331 893.166 426.251 882.547 426.396C871.928 426.546 868.266 423.034 867.751 421.517C867.293 420.173 872.41 419.04 877.879 417.705C878.567 417.542 879.26 417.368 879.948 417.19C886.119 415.622 890.207 411.005 895.483 406.973C900.484 403.152 906.931 389.329 906.931 389.329L921.436 388.674C921.436 388.674 915.331 401.068 913.036 406.407C911.683 409.553 912.259 413.412 912.844 416.376C913.158 417.986 913.472 419.635 913.35 421.302" fill="#FFB27D"/>
<path d="M898.733 425.212C891.148 424.331 893.166 426.251 882.547 426.396C871.928 426.546 868.266 423.034 867.751 421.517C867.293 420.173 872.41 419.04 877.879 417.705L877.944 417.808C877.944 417.808 884.785 421.475 893.526 420.599C900.657 419.883 907.928 416.909 912.844 416.376C913.158 417.986 913.472 419.635 913.35 421.302C912.999 426.04 906.318 426.092 898.733 425.212" fill="#233862"/>
<path d="M1013.54 422.285C1013.19 427.024 1006.51 427.08 998.924 426.209C991.339 425.338 993.357 427.253 982.738 427.412C972.119 427.571 968.457 424.064 967.942 422.547C967.479 421.199 972.596 420.061 978.065 418.726C978.753 418.558 979.442 418.384 980.135 418.211C986.301 416.633 990.384 412.011 995.656 407.975C1000.65 404.149 995.66 381.505 995.66 381.505L1011.62 379.955C1011.62 379.955 1010.85 399.017 1010.86 407.685C1010.87 411.108 1012.44 414.395 1013.03 417.359C1013.34 418.97 1013.66 420.618 1013.54 422.285Z" fill="#FFB27D"/>
<path d="M998.924 426.209C991.339 425.338 993.357 427.253 982.738 427.412C972.119 427.571 968.457 424.064 967.942 422.547C967.479 421.199 972.596 420.061 978.065 418.726L978.131 418.824C978.131 418.824 984.971 422.486 993.717 421.601C1000.84 420.88 1008.11 417.897 1013.03 417.359C1013.34 418.97 1013.66 420.618 1013.54 422.285C1013.19 427.024 1006.51 427.08 998.924 426.209" fill="#233862"/>
<path d="M966.973 30.9386C964.225 19.6397 968.204 14.3765 971.8 11.5764C973.505 7.41831 975.448 4.42147 977.437 3.29299C981.061 1.22799 985.406 1.00323 988.445 1.18585C987.663 0.375775 986.123 0.0807943 986.123 0.0807943C988.01 -0.195475 992.219 1.67285 992.219 1.67285C1018.43 -8.43203 1022.55 30.1754 1022.01 39.1471C1021.46 48.1141 1021.53 58.6779 1035.17 65.7438C1061.2 79.2295 1026.52 130.044 1026.52 130.044C1027.18 122.796 993.74 84.5441 976.295 73.086C972.048 66.8348 970.541 55.7887 970.428 54.9178C971.159 63.6788 972.657 68.5908 973.996 71.3582C966.046 64.0394 964.866 46.4612 966.973 30.9386" fill="#A9453D"/>
<path d="M977.331 73.6572C977.242 73.6994 985.754 78.1197 992.154 76.3637C998.175 74.7248 1002.11 66.9144 1002.03 66.8957C999.477 66.39 998.742 62.8874 998.798 47.8237L997.646 48.0532L978.258 51.8929C978.258 51.8929 978.703 57.9942 978.712 63.7397C978.726 68.5673 978.436 73.1421 977.331 73.6572" fill="#FFB27D"/>
<path d="M978.257 51.8927C978.257 51.8927 978.702 57.994 978.711 63.7395C989.559 63.4351 995.295 53.5363 997.645 48.0531L978.257 51.8927" fill="#ED975D"/>
<path d="M899.388 397.013C898.437 399.992 900.577 403.063 903.7 403.208L911.271 403.564L919.287 403.808C921.291 403.869 923.205 402.993 924.47 401.438C930.865 393.595 950.553 367.439 962.497 329.44C962.835 328.372 963.186 327.295 963.56 326.204C971.45 303.204 987.799 274.336 996.414 248.208C997.786 244.045 999.018 240.126 1000.12 236.422C1000.47 235.232 1000.82 234.066 1001.15 232.919C1007.5 210.855 1009.34 196.367 1011.03 180.887L948.816 181.388C948.816 181.388 935.716 283.2 899.388 397.013" fill="#2A4E96"/>
<path d="M957.525 145.632C957.679 175.245 953.18 187.944 953.18 187.944C953.18 187.944 979.821 201.481 1011.48 191.516C1011.85 191.399 1034.13 185.092 1034.13 185.092C1033.6 183.893 1029.2 164.081 1028.68 162.981C1022 148.624 1020.18 142.598 1019.38 138.187C1017.91 129.946 1017.88 121.419 1018.61 113.379C1020.55 92.0923 1026.29 74.4252 1026.29 74.4252C1017.67 72.4585 1009.59 69.0122 1000.61 65.6454C998.545 68.2162 992.229 70.9086 986.75 70.7822C980.444 70.6464 978.402 67.9446 978.725 64.9993C972.007 68.7359 966.646 72.2712 966.646 72.2712C960.934 82.1935 949.35 91.8301 948.507 107.048C948.301 110.79 957.52 144.803 957.525 145.632" fill="white"/>
<path d="M1011.03 148.933C1013.75 152.782 1018.96 176.181 1031.94 179.122C1025.25 162.447 1020.18 155.133 1019.38 150.006C1017.91 140.439 1017.88 130.536 1018.61 121.194C1014.27 113.58 1011.03 108.364 1011.03 108.364C1010.69 107.132 1004.13 86.8478 1002.03 104.979C999.931 123.114 1007.99 144.63 1011.03 148.933" fill="#5F9AA8"/>
<path d="M974.638 57.3339C974.638 57.3339 1000.3 57.7553 1000.32 41.7692C1000.34 25.7784 1003.66 15.0694 987.275 14.1189C970.893 13.173 967.699 19.2697 966.398 24.6077C965.091 29.9411 967.962 56.8141 974.638 57.3339Z" fill="#FFB27D"/>
<path d="M975.589 13.7303C975.589 13.7303 982.612 32.4884 993.399 35.2605C1004.18 38.0326 1008.86 35.1434 1008.86 35.1434C1008.86 35.1434 1000.59 28.5739 998.873 17.1017C998.873 17.1017 980.889 4.80071 975.589 13.7303" fill="#A9453D"/>
<path d="M977.33 15.252C977.33 15.252 972.081 19.4382 970.803 23.512C969.52 27.5811 968.944 35.9628 966.505 35.6772C966.505 35.6772 961.209 22.9314 967.16 15.7156C973.467 8.06907 977.33 15.252 977.33 15.252Z" fill="#A9453D"/>
<path d="M934.255 166.184L922.133 203.148L929.044 205.92L949.088 173.264L934.255 166.184" fill="#FFB27D"/>
<path d="M966.935 70.0939C966.935 70.0939 952.641 75.7644 948.507 84.6097C944.368 93.455 938.103 152.773 935.612 158.865C933.117 164.957 931.239 169.78 931.239 169.78C931.239 169.78 938.445 175.853 945.693 176.298C952.941 176.748 966.935 70.0939 966.935 70.0939Z" fill="#F99746"/>
<path d="M978.725 64.9992C978.725 64.9992 963.879 101.682 963.443 109.109C963.008 116.53 961.697 230.522 961.697 230.522C961.697 230.522 962.567 235.761 952.524 233.575C942.481 231.393 939.859 229.211 939.859 229.211C939.859 229.211 949.467 158.898 946.85 134.436C944.228 109.98 966.936 70.0938 966.936 70.0938L978.725 64.9992" fill="#F99746"/>
<path d="M911.271 403.564L919.97 403.827C921.524 403.878 923.018 403.208 924.006 402.005C929.854 394.925 950.249 368.413 962.497 329.44C962.834 328.372 963.185 327.295 963.56 326.204C971.449 303.204 987.799 274.336 996.414 248.208C997.786 244.045 999.017 240.126 1000.12 236.422C1000.47 235.232 1000.82 234.066 1001.15 232.919L991.985 225.966C991.985 225.966 964.478 270.511 955.961 312.433C948.563 348.849 918.94 392.663 911.271 403.564Z" fill="#1E3D70"/>
<path d="M991.03 316.338C990.88 335.625 991.793 378.611 994.143 399.626C994.359 401.546 995.983 402.998 997.917 402.998H1004.41C1007.15 402.998 1009.19 402.979 1010.55 402.96C1011.73 402.941 1012.74 402.099 1012.96 400.942C1019.42 368.089 1024.04 340.795 1027.42 317.209C1030.25 297.472 1032.77 280.545 1034.7 265.978C1036.65 251.317 1038 239.039 1038.48 228.667C1038.56 227.033 1038.61 225.446 1038.65 223.9C1038.67 222.351 1038.68 220.847 1038.67 219.382L984.915 214.142C985.594 249.86 991.119 304.487 991.03 316.338Z" fill="#2A4E96"/>
<path d="M1004.41 402.998C1006.87 402.998 1008.77 402.984 1010.11 402.965C1011.55 402.946 1012.77 401.921 1013.04 400.521C1019.45 367.855 1024.05 340.692 1027.42 317.209C1030.25 297.472 1032.77 280.545 1034.7 265.978C1036.65 251.317 1038 239.039 1038.48 228.667L1018.76 240.271C1018.76 240.271 1031.35 244.714 1026.54 278.339C1021.74 311.969 1011.1 398.24 1004.41 402.998" fill="#1E3D70"/>
<path d="M1001.87 228.335C1001.87 228.335 1005.66 242.017 1018.76 240.271C1031.86 238.524 1050.49 230.662 1050.49 230.662C1050.49 230.662 1044.89 212.972 1037.93 189.728C1029.5 161.59 1019.07 125.315 1014.15 102.436C1012.77 96.021 1011.83 90.6689 1011.48 86.8339L1000.61 65.7438C1000.61 65.7438 984.405 102.122 983.53 111.291C982.659 120.464 1001.87 228.335 1001.87 228.335" fill="#F99746"/>
<path d="M1014.95 109.923L1000.61 65.7439C1000.65 65.7626 1018.72 71.1241 1027.82 75.7176C1027.82 75.7176 1033.51 83.0505 1037.02 99.959C1037.02 99.959 1040.74 140.552 1032.44 155.4C1032.44 155.4 1006.24 160.645 964.314 146.232V136.623C964.314 136.623 1010.17 139.025 1019.56 140.116L1014.95 109.923" fill="#FFB27D"/>
<path d="M1002.45 130.508C1003.04 145.356 1006.53 174.182 1037.68 189.61C1037.76 189.653 1037.85 189.695 1037.93 189.728C1029.5 161.59 1019.07 125.315 1014.15 102.436C1008.43 110.986 1002.13 122.332 1002.45 130.508Z" fill="#ED7D2B"/>
<path d="M1000.61 65.7438C1000.61 65.7438 1027.2 67.6168 1033.6 81.8845C1040.01 96.1521 1042.05 143.609 1033.89 157.587C1033.89 157.587 1022.67 160.78 1002.82 157.072C1002.58 157.025 1002.34 156.978 1002.09 156.931C1002.09 156.931 995.759 141.427 1001.43 138.37C1001.43 138.37 1018.17 139.241 1016.43 133.711C1014.68 128.181 1000.61 65.7438 1000.61 65.7438" fill="#F99746"/>
<path d="M933.937 142.56L934.718 145.075L978.351 131.5C978.351 131.5 978.936 130.84 978.646 129.96C978.332 128.986 977.569 128.986 977.569 128.986L933.937 142.56" fill="#A9453D"/>
<path d="M930.781 144.939L933.937 142.56L934.719 145.075L930.781 144.939Z" fill="#A9453D"/>
<path d="M923.856 202.136C923.856 202.136 912.783 208.252 911.327 212.916C909.871 217.575 910.873 227.333 912.628 227.188C914.389 227.043 917.011 216.699 918.467 215.973C919.923 215.243 921.96 213.061 921.96 214.662C921.96 216.264 920.504 219.176 921.234 219.616C921.96 220.052 924.292 215.538 925.893 214.662C927.494 213.786 928.168 206.585 929.723 204.651C931.282 202.717 923.856 202.136 923.856 202.136Z" fill="#FFB27D"/>
<path d="M964.314 136.623C964.314 136.623 954.416 130.526 950.263 131.463C946.11 132.399 935.529 140.065 940.618 141.727C945.708 143.385 949.833 141.647 951.79 142.851C953.747 144.059 955.194 146.26 964.314 146.232C973.44 146.199 964.314 136.623 964.314 136.623Z" fill="#FFB27D"/>
<path d="M484.897 425.024H484.733C484.251 425.024 483.811 424.823 483.502 424.505H486.185C485.852 424.828 485.394 425.024 484.897 425.024Z" fill="#A6C4EF"/>
<path d="M483.502 424.505C483.193 424.186 483.005 423.751 483.019 423.268L485.496 315.809H492.922L486.746 423.278C486.718 423.76 486.507 424.191 486.184 424.505H483.502" fill="#A1C0ED"/>
<path d="M440.281 425.024H440.117C439.635 425.024 439.2 424.828 438.891 424.509H441.564C441.232 424.828 440.778 425.024 440.281 425.024Z" fill="#A6C4EF"/>
<path d="M438.891 424.509C438.582 424.191 438.39 423.751 438.404 423.268L440.886 315.613C441.433 315.739 442.005 315.809 442.595 315.809H448.307L442.131 423.278C442.103 423.765 441.892 424.196 441.564 424.509H438.891Z" fill="#A1C0ED"/>
<path d="M563.556 425.024H563.393C562.892 425.024 562.433 424.823 562.096 424.495H564.797C564.484 424.823 564.043 425.024 563.556 425.024Z" fill="#A6C4EF"/>
<path d="M562.095 424.495C561.777 424.181 561.571 423.755 561.543 423.278L555.367 315.809H562.793L565.27 423.268C565.284 423.746 565.101 424.177 564.797 424.495H562.095" fill="#A1C0ED"/>
<path d="M540.014 303.621H435.206V226.42C435.206 212.836 446.218 201.823 459.801 201.823H515.419C529.002 201.823 540.014 212.836 540.014 226.42V303.621Z" fill="#A1C0ED"/>
<path d="M481.605 315.809H442.594C442.004 315.809 441.433 315.739 440.885 315.612C437.631 314.84 435.206 311.913 435.206 308.425V303.62H540.014H549.978H481.605C478.59 303.62 476.146 306.065 476.146 309.08V310.349C476.146 313.365 478.59 315.809 481.605 315.809" fill="#A1C0ED"/>
<path d="M562.845 315.809H481.606C478.591 315.809 476.146 313.365 476.146 310.349V309.08C476.146 306.065 478.591 303.62 481.606 303.62H549.978H562.845C565.865 303.62 568.309 306.065 568.309 309.08V310.349C568.309 313.365 565.865 315.809 562.845 315.809" fill="#A1C0ED"/>
<path d="M623.627 380.1C624.404 383.982 629.933 383.336 636.114 381.823C642.294 380.316 640.824 382.109 649.617 381.135C658.414 380.161 661.079 376.883 661.345 375.577C661.584 374.416 657.239 374.008 652.581 373.47C651.991 373.404 651.405 373.329 650.815 373.259C645.553 372.599 641.699 369.204 636.919 366.413C632.391 363.772 625.635 353.007 625.635 353.007L613.574 353.962C613.574 353.962 619.904 363.576 622.353 367.757C623.791 370.216 623.716 373.465 623.538 375.975C623.444 377.342 623.355 378.733 623.627 380.1" fill="#FFB27D"/>
<path d="M636.114 381.823C642.294 380.316 640.824 382.109 649.617 381.135C658.415 380.161 661.079 376.883 661.346 375.577C661.584 374.416 657.239 374.008 652.581 373.47L652.534 373.559C652.534 373.559 647.262 377.3 639.944 377.473C633.974 377.619 627.658 375.909 623.538 375.975C623.444 377.342 623.355 378.733 623.627 380.1C624.404 383.982 629.934 383.336 636.114 381.823" fill="#233862"/>
<path d="M519.984 397.458C517.587 400.609 521.731 404.327 526.951 407.961C532.172 411.599 529.854 411.684 536.4 417.635C542.95 423.587 547.168 423.418 548.33 422.753C549.36 422.163 546.789 418.637 544.111 414.783C543.769 414.301 543.437 413.809 543.1 413.322C540.113 408.94 540.113 403.803 539.04 398.371C538.029 393.23 546.424 374.326 546.424 374.326L532.935 372.627C532.935 372.627 531.17 384.043 529.657 388.646C528.763 391.352 525.017 393.136 523.018 394.658C521.932 395.491 520.827 396.348 519.984 397.458" fill="#FFB27D"/>
<path d="M526.951 407.961C532.172 411.599 529.854 411.684 536.4 417.635C542.95 423.587 547.168 423.418 548.33 422.753C549.36 422.163 546.789 418.637 544.111 414.783L544.013 414.812C544.013 414.812 537.72 413.327 532.748 407.956C528.693 403.578 525.79 397.706 523.018 394.658C521.932 395.491 520.827 396.348 519.984 397.458C517.587 400.609 521.731 404.327 526.951 407.961" fill="#233862"/>
<path d="M575.083 300.825L562.76 333.987L546.672 377.286C546.672 377.286 542.308 377.708 538.127 376.504C534.278 375.39 529.863 372.482 529.863 372.482C529.863 372.482 534.33 325.989 542.664 299.303C544.799 292.453 547.192 286.913 549.832 283.79C562.75 268.525 575.083 300.825 575.083 300.825" fill="#163560"/>
<path d="M562.554 248.161C554.482 245.557 530.154 247.112 507.029 251.64L503.484 245.44L453.527 241.54C453.527 241.54 437.041 278.101 446.068 301.396C447.393 304.819 450.029 307.015 454.524 307.09H455.254C455.254 307.09 484.986 307.072 494.64 307.072C519.488 307.072 547.22 289.99 550.811 289.273C556.682 288.098 559.033 299.846 564.904 312.18C570.775 324.514 620.106 366.802 620.106 366.802C620.106 366.802 627.691 366.877 630.823 365.701C634.189 364.437 635.421 362.798 635.421 362.798C635.421 362.798 580.762 254.033 562.554 248.161" fill="#2A4E96"/>
<path d="M485.988 94.2087C478.96 92.5323 469.408 94.499 467.826 94.6816C448.854 96.8964 444.612 126.373 446.021 134.614C448.625 149.809 441.325 154.089 432.617 166.24C415.162 190.603 427.218 210.668 441.433 215.641C449.959 218.623 461.575 210.499 461.575 210.499C461.791 210.579 491.742 181.983 506.561 168.09C531.465 157.825 503.911 98.4745 485.988 94.2087Z" fill="#233862"/>
<path d="M490.052 163.697C490.141 163.725 482.327 168.829 475.959 167.757C469.971 166.75 463.631 158.935 463.711 158.907C466.131 158.172 468.271 155.344 466.759 140.767L467.897 140.875L487.042 142.71C487.042 142.71 487.205 148.662 487.749 154.229C488.203 158.902 488.933 163.304 490.052 163.697" fill="#FFB27D"/>
<path d="M487.042 142.711C487.042 142.711 487.205 148.662 487.749 154.23C477.219 154.983 470.706 145.96 467.896 140.875L487.042 142.711Z" fill="#ED975D"/>
<path d="M491.073 147.632C491.073 147.632 466.267 150.53 464.699 135.05C463.13 119.574 458.874 109.521 474.648 107.015C490.422 104.51 494.102 110.106 495.881 115.144C497.66 120.183 497.487 146.475 491.073 147.632" fill="#FFB27D"/>
<path d="M492.922 107.193C492.922 107.193 480.94 124.345 470.771 128.077C460.597 131.809 455.788 129.463 455.788 129.463C455.788 129.463 460.639 122.781 462.24 113.59C462.713 110.878 464.595 108.621 467.189 107.713C474.484 105.166 488.549 101.265 492.922 107.193Z" fill="#233862"/>
<path d="M483.02 108.458C483.02 108.458 489.425 112.115 491.981 115.388C494.449 118.544 497.089 126.93 496.705 130.625C496.705 130.625 500.741 113.018 494.28 106.613C487.43 99.8184 483.02 108.458 483.02 108.458Z" fill="#233862"/>
<path d="M509.127 204.763C508.378 254.88 508.921 244.41 503.438 249.163C502.118 250.31 498.405 250.989 493.517 251.312C478.155 252.333 451.144 249.8 450.114 246.962C446.57 237.133 449.074 234.08 446.115 219.04C445.806 217.439 445.427 215.706 444.978 213.819C442.515 203.49 440.113 199.973 448.859 183.373C456.795 168.338 465.359 156.327 466.098 156.767C487.027 169.19 488.39 158.556 488.39 158.556C488.39 158.556 509.492 180.32 509.127 204.763" fill="white"/>
<path d="M562.76 333.987L546.307 379.089C546.307 379.089 540.398 381.013 536.091 380.391C531.708 379.749 529.302 377.356 529.302 377.356C529.302 377.356 534.33 325.989 542.664 299.303L562.76 333.987" fill="#2A4E96"/>
<path d="M488.39 158.551C488.39 158.551 509.923 162.204 512.451 171.475C514.984 180.746 533.473 231.842 533.473 231.842C533.473 231.842 518.917 237.222 513.855 232.165C508.799 227.108 496.26 185.242 496.26 185.242L488.39 158.551Z" fill="white"/>
<path d="M493.517 251.312C478.155 252.333 451.144 249.8 450.114 246.962C446.569 237.133 449.074 234.08 446.115 219.04L453.326 202.628C453.326 202.628 452.3 221.41 459.155 227.52C466 233.636 487.215 239.32 490.548 244.429C492.154 246.882 493.212 249.341 493.517 251.312" fill="#DFEBFD"/>
<path d="M494.771 240.617C494.771 240.617 499.346 244.565 500.647 244.888C501.949 245.201 502.694 244.906 502.694 244.906L499.355 241.001L494.771 240.617" fill="#FFB27D"/>
<path d="M492.955 235.967L504.543 238.96C504.543 238.96 504.244 239.784 502.933 239.985C501.622 240.191 498.101 239.653 498.101 239.653L492.955 235.967" fill="#FFB27D"/>
<path d="M473.309 242.354C473.309 242.354 489.85 234.994 492.955 235.968C496.064 236.942 504.023 241.156 505.273 242.93C506.523 244.705 498.751 242.71 496.326 242.561C494.753 242.462 491.105 244.616 489.293 245.66C481.671 250.039 476.38 249.65 476.38 249.65L473.309 242.354Z" fill="#FFB27D"/>
<path d="M466.099 156.767C466.099 156.767 442.698 161.159 438.362 167.645C428.904 181.8 408.767 240.444 420.041 248.306C432.744 257.165 477.841 250.624 477.841 250.624C477.841 250.624 479.34 243.609 477.251 240.214C475.168 236.82 441.232 231.341 439.668 229.772C438.1 228.208 455.138 205.559 453.326 201.223C447.511 187.339 466.099 156.767 466.099 156.767Z" fill="white"/>
<path d="M558.612 239.854C558.612 239.854 574.99 244.279 576.671 246.822C578.356 249.364 581.653 257.137 581.512 259.165C581.372 261.192 576.9 255.152 575.229 253.607C574.143 252.605 570.214 252.019 568.281 251.706C563.416 250.914 561.065 248.685 559.244 247.576C558.017 246.831 556.533 246.971 556.533 246.971L558.612 239.854" fill="#FFB27D"/>
<path d="M575.242 251.275C575.242 251.275 576.235 256.851 576.993 257.849C577.756 258.851 578.468 259.076 578.468 259.076L578.351 254.262L575.242 251.275" fill="#FFB27D"/>
<path d="M576.67 246.821L583.333 255.845C583.333 255.845 582.626 256.266 581.549 255.639C580.476 255.011 578.234 252.543 578.234 252.543L576.67 246.821Z" fill="#FFB27D"/>
<path d="M559.243 247.575C559.243 247.575 560.76 251.261 563.789 252.581C566.823 253.906 569.047 255.892 569.534 255.175C570.021 254.463 567.24 250.703 567.24 250.703L559.243 247.575Z" fill="#FFB27D"/>
<path d="M529.124 219.761L563.57 241.54C563.57 241.54 559.951 246.377 558.743 246.821C552.366 249.158 523.683 246.92 513.855 232.165L529.124 219.761" fill="white"/>
<path d="M515.476 243.427C517.508 243.427 537.725 242.027 537.725 242.027C537.725 242.027 537.14 245.609 538.39 247.529L518.688 251.298L514.643 250.109L515.476 243.427" fill="#F9DDBF"/>
<path d="M481.755 246.676L515.476 243.427C515.476 243.427 514.291 249.668 518.688 251.298L481.517 254.019C481.517 254.019 478.52 249.8 481.755 246.676" fill="#F99746"/>
<path d="M537.669 242.471L514.881 244.227C514.881 244.227 515.049 243.441 515.475 243.427C515.902 243.417 538.113 241.806 538.113 241.806L538.034 242.429L537.669 242.471" fill="#F99746"/>
<path d="M518.687 251.298L538.76 247.482L538.572 246.962L517.185 251.059L518.687 251.298" fill="#F99746"/>
<path d="M285.141 424.846H284.96C283.891 424.846 283.033 423.961 283.057 422.889L285.942 297.089L294.442 296.091L287.194 422.899C287.131 423.99 286.231 424.846 285.141 424.846" fill="#77A4E5"/>
<path d="M235.613 424.846H235.432C234.363 424.846 233.504 423.961 233.529 422.889L236.414 297.089L244.913 296.091L237.666 422.899C237.603 423.99 236.702 424.846 235.613 424.846" fill="#77A4E5"/>
<path d="M372.281 424.846H372.462C373.531 424.846 374.389 423.961 374.365 422.889L371.479 297.089L362.98 296.091L370.228 422.899C370.291 423.99 371.191 424.846 372.281 424.846" fill="#77A4E5"/>
<path d="M229.981 289.287V203.082C229.981 187.915 242.205 175.619 257.284 175.619H319.024C334.103 175.619 346.326 187.915 346.326 203.082V292.579L229.981 289.287" fill="#77A4E5"/>
<path d="M357.388 302.895H238.203C233.663 302.895 229.981 299.214 229.981 294.672V289.287H357.388V302.895Z" fill="#77A4E5"/>
<path d="M371.656 302.895H281.505C278.147 302.895 275.426 300.174 275.426 296.817V295.365C275.426 292.008 278.147 289.287 281.505 289.287H371.656C375.014 289.287 377.736 292.008 377.736 295.365V296.817C377.736 300.174 375.014 302.895 371.656 302.895Z" fill="#77A4E5"/>
<path d="M323.179 143.778C323.179 143.778 318.011 148.175 316.888 159.577C316.035 168.235 322.041 235.448 326.56 240.79C339.274 255.817 355.209 249.467 361.451 251.748L367.34 246.456C367.34 246.456 346.636 231.177 345.061 226.19C338.995 206.997 342.755 151.027 323.179 143.778" fill="#F9DDBF"/>
<path d="M319.464 88.9551C319.464 88.9551 319.814 76.6307 303.558 74.2098C287.303 71.7936 282.811 75.5912 280.047 79.7399C277.283 83.8839 272.101 100.816 272.619 107.554C273.137 114.292 291.679 122.622 291.376 126.556C291.074 130.484 319.464 88.9551 319.464 88.9551Z" fill="#163560"/>
<path d="M394.861 414.212C394.334 418.375 400.015 419.602 406.622 420.183C413.233 420.763 411.182 422.07 420.195 424.074C429.208 426.083 432.935 423.685 433.633 422.463C434.26 421.377 430.102 419.49 425.678 417.368C425.121 417.106 424.559 416.83 424.002 416.558C419.025 414.109 416.351 409.385 412.559 404.96C408.963 400.764 405.877 387.648 405.877 387.648L393.645 384.516C393.645 384.516 396.692 396.33 397.716 401.363C398.319 404.323 397.16 407.568 396.145 410.031C395.598 411.37 395.045 412.742 394.861 414.212Z" fill="#FFB27D"/>
<path d="M406.622 420.183C413.233 420.763 411.182 422.07 420.195 424.074C429.208 426.083 432.935 423.685 433.633 422.463C434.26 421.377 430.103 419.49 425.678 417.368L425.603 417.443C425.603 417.443 419.147 419.415 411.857 417.106C405.91 415.228 400.24 411.361 396.145 410.031C395.598 411.37 395.045 412.742 394.861 414.212C394.334 418.375 400.016 419.602 406.622 420.183Z" fill="#233862"/>
<path d="M303.264 244.377C303.264 244.377 385.053 252.862 398.534 265.388C412.016 277.909 409.614 394.56 409.614 394.56C407.516 396.737 405.966 396.686 402.651 396.428C399.468 396.175 392.98 393.441 392.98 393.441C392.98 393.441 375.464 336.159 375.245 322.898C375.027 309.633 372.257 287.129 366.693 285.799C361.13 284.474 294.917 291.9 287.658 270.983C280.399 250.066 292.452 232.858 292.452 232.858L303.264 244.377" fill="#ED7D2B"/>
<path d="M265.061 265.421C268.59 267.781 274.9 271.424 285.488 271.803C304.434 272.491 328.075 270.234 332.729 265.837C333.937 264.704 334.527 262.822 334.693 260.438C335.206 253.166 331.734 241.203 329.402 231.304C327.889 224.875 326.858 219.316 327.702 216.479C330.273 207.83 338.259 190.215 338.948 184.427C339.637 178.639 332.729 147.618 323.179 143.778C313.622 139.934 276.761 143.778 276.761 143.778C262.359 146.7 261.753 177.408 266.536 203.546C266.66 204.22 266.785 204.89 266.914 205.55C272.097 232.09 255.214 258.823 265.061 265.421" fill="#F9DDBF"/>
<path d="M312.685 149.425C312.426 151.111 307.816 153.841 297.962 151.247C288.52 148.755 287.387 145.679 287.389 143.652C287.391 141.245 291.493 138.009 291.44 123.217L292.572 123.442L311.608 127.211C311.608 127.211 311.175 133.2 311.162 138.847C311.149 143.586 313.116 146.625 312.685 149.425" fill="#FFB27D"/>
<path d="M311.607 127.211C311.607 127.211 311.174 133.2 311.161 138.847C300.509 138.548 294.878 128.827 292.571 123.442L311.607 127.211" fill="#ED975D"/>
<path d="M315.165 132.554C315.165 132.554 289.962 132.971 289.944 117.27C289.927 101.57 286.662 91.048 302.753 90.1209C318.844 89.1891 321.977 95.178 323.258 100.418C324.538 105.657 321.72 132.043 315.165 132.554" fill="#FFB27D"/>
<path d="M314.232 89.737C314.232 89.737 307.332 108.153 296.742 110.879C286.151 113.604 281.558 110.766 281.558 110.766C281.558 110.766 289.681 104.309 291.367 93.0428C291.367 93.0428 309.027 80.9666 314.232 89.737Z" fill="#163560"/>
<path d="M312.521 91.2307C312.521 91.2307 317.675 95.3419 318.931 99.3408C320.188 103.34 320.753 111.572 323.152 111.291C323.152 111.291 328.351 98.7695 322.508 91.6896C316.313 84.1788 312.521 91.2307 312.521 91.2307" fill="#163560"/>
<path d="M333.435 417.635C333.375 421.836 339.155 422.397 345.785 422.21C352.415 422.028 350.524 423.559 359.702 424.514C368.881 425.469 372.316 422.66 372.877 421.363C373.376 420.215 369.037 418.82 364.403 417.223C363.82 417.022 363.236 416.816 362.651 416.61C357.432 414.746 354.249 410.363 349.989 406.402C345.953 402.651 354.861 384.497 354.861 384.497L343.184 378.719C343.184 378.719 340.969 391.675 338.118 403.016C337.381 405.943 334.98 410.771 334.246 413.332C333.851 414.727 333.454 416.156 333.435 417.635" fill="#FFB27D"/>
<path d="M265.564 262.297C269.093 264.662 274.9 271.423 285.488 271.803C302.962 267.827 322.857 263.201 334.693 260.438C335.206 253.166 331.734 241.202 329.402 231.304C315.602 235.518 295.065 221.161 288.162 215.486C280.906 209.525 281.134 189.667 281.134 189.667L266.536 203.546C266.66 204.22 266.785 204.89 266.915 205.55C272.097 232.09 255.718 255.7 265.564 262.297" fill="#F2CCAA"/>
<path d="M345.785 422.21C352.415 422.028 350.524 423.559 359.702 424.514C368.881 425.469 372.316 422.66 372.877 421.363C373.376 420.215 369.037 418.82 364.403 417.223L364.339 417.303C364.339 417.303 358.142 420.005 350.641 418.553C344.527 417.368 338.461 414.184 334.246 413.332C333.851 414.727 333.454 416.156 333.435 417.635C333.375 421.836 339.155 422.397 345.785 422.21" fill="#233862"/>
<path d="M285.617 249.369C306.382 248.774 368.403 253.728 380.318 262.709C394.983 273.769 353.087 393.356 353.087 393.356C353.087 393.356 348.222 393.824 346.681 393.651C340.028 392.897 337.318 390.87 337.318 390.87C337.318 390.87 337.48 320.487 342.375 307.02C346.898 294.583 349.67 290.182 344.003 289.437C338.336 288.693 267.61 297.716 261.707 276.363C257.096 259.684 263.908 244.246 263.908 244.246C263.908 244.246 266.46 249.912 285.617 249.369" fill="#F99746"/>
<path d="M276.762 143.778C276.762 143.778 262.337 145 261.214 156.402C260.362 165.06 254.088 226.471 258.606 231.814C271.32 246.84 313.715 250.029 319.957 252.31L321.674 245.201C321.674 245.201 276.416 222.398 277.107 217.214C277.798 212.031 290.596 141.727 276.762 143.778Z" fill="#F9DDBF"/>
<path d="M287.898 80.4093C287.898 80.4093 288.932 73.8304 279.811 72.1353C270.691 70.4356 270.52 89.8118 269.543 94.485C268.565 99.1535 271.001 101.954 274.48 102.235C277.959 102.52 287.898 80.4093 287.898 80.4093" fill="#163560"/>
<path d="M322.166 244.888C322.166 244.888 335.055 241.24 338.126 242.092C341.196 242.944 351.715 249.912 350.236 251.804C348.757 253.695 339.491 250.671 335.226 251.247C330.962 251.818 327.664 253.92 324.594 253.466C321.524 253.012 318.313 251.804 318.313 251.804L322.166 244.888" fill="#FFB27D"/>
<path d="M322.166 244.888C322.166 244.888 328.472 241.647 330.266 239.802C330.493 239.573 330.876 239.62 331.049 239.896C331.53 240.655 331.98 242.116 329.768 243.572C326.584 245.67 322.166 244.888 322.166 244.888" fill="#FFB27D"/>
<path d="M367.339 246.456C367.339 246.456 380.715 247.191 383.342 248.994C385.969 250.797 393.659 260.799 391.646 262.11C389.634 263.421 381.85 257.549 377.631 256.706C373.411 255.868 369.609 256.786 366.853 255.358C364.096 253.934 361.451 251.748 361.451 251.748L367.339 246.456Z" fill="#FFB27D"/>
<path d="M275.453 425.947H221.031C218.414 422.749 219.378 410.963 219.774 407.114C219.856 406.336 219.912 405.887 219.912 405.887C219.912 405.887 238.496 391.02 241.049 402.403C241.126 402.764 241.221 403.11 241.324 403.452C244.54 414.1 258.965 418.942 267.296 420.286C272.711 421.166 274.713 423.98 275.453 425.947" fill="#1B3051"/>
<path d="M126.955 249.093C128.92 249.093 220.178 266.226 235.273 284.914C242.813 294.251 243.934 402.061 243.934 402.061C243.934 402.061 234.604 413.632 214.456 406.912C214.456 406.912 199.683 333.149 200.775 310.775C201.076 304.59 138.422 309.881 126.955 306.912C115.487 303.944 87.4686 278.995 93.6424 266.844C99.8162 254.688 126.955 249.093 126.955 249.093" fill="#233862"/>
<path d="M193.031 244.026C193.031 244.026 198.872 249.064 204.861 250.488C208.277 251.303 211.586 252.23 213.554 253.134C218.973 255.62 229.253 266.722 228.296 267.827C225.232 271.367 212.886 262.147 210.524 262.798C208.162 263.449 214.398 268.806 211.924 270.262C210.632 271.026 208.198 266.394 205.92 265.744C202.839 264.863 200.794 260.209 199.872 259.89C198.076 259.272 190.577 252.548 190.577 252.548L193.031 244.026" fill="#FFB27D"/>
<path d="M299.506 425.947H245.083C242.466 422.749 243.431 410.963 243.827 407.114C243.908 406.336 243.964 405.887 243.964 405.887C243.964 405.887 262.548 391.02 265.101 402.403C265.179 402.764 265.273 403.11 265.377 403.452C268.593 414.1 283.018 418.942 291.348 420.286C296.764 421.166 298.766 423.98 299.506 425.947" fill="#1E3C68"/>
<path d="M153.848 249.093C155.812 249.093 247.07 266.226 262.165 284.914C269.706 294.251 270.827 402.061 270.827 402.061C270.827 402.061 261.497 413.632 241.349 406.912C241.349 406.912 226.576 333.149 227.667 310.775C227.969 304.59 165.315 309.881 153.848 306.912C142.38 303.944 114.361 278.995 120.535 266.844C126.709 254.688 153.848 249.093 153.848 249.093" fill="#2B478B"/>
<path d="M148.136 138.182C141.571 137.639 134.688 135.888 128.739 133.959C121.302 131.547 115.308 128.017 119.171 121.222C122.731 114.957 128.493 100.961 128.103 89.3671L141.941 100.521L151.341 108.092C151.341 108.092 151.302 112.56 150.275 120.389C150.087 121.812 149.867 123.353 149.608 125.001C149.399 126.331 150.01 127.656 151.153 128.368C151.225 128.41 151.295 128.452 151.366 128.499C156.037 131.435 153.634 138.637 148.136 138.182" fill="#FFB27D"/>
<path d="M151.34 106.252C151.34 106.252 151.821 107.872 150.995 113.861C142.615 112.494 134.781 105.807 134.781 105.807C139.048 104.637 140.6 100.024 143.778 100.455L151.34 106.252Z" fill="#ED975D"/>
<path d="M159.092 107.615C159.092 107.615 126.858 112.972 123.832 92.8463C120.806 72.7161 114.607 59.8532 135.06 55.5828C155.513 51.3123 160.676 58.3876 163.32 64.8635C165.964 71.3348 167.399 105.705 159.092 107.615" fill="#FFB27D"/>
<path d="M168.06 55.9572C169.445 60.8036 165.74 66.7035 159.522 68.6468C150.291 71.5359 152.33 82.8582 148.176 82.7037C144.022 82.5492 142.347 76.195 138.637 81.2709C135.472 85.6022 141.271 90.7389 140.872 93.113C140.187 97.1914 133.8 105.536 128.045 105.114C122.29 104.698 111.52 77.3422 113.674 68.8809C115.828 60.4196 124.444 51.4947 132.598 50.2632C140.752 49.0317 152.076 52.5529 154.691 52.5529C157.307 52.5529 167.313 53.3349 168.06 55.9572" fill="#2B478B"/>
<path d="M176.055 243.057C175.516 247.702 174.538 250.862 173.001 251.888C168.196 255.11 161.823 259.108 154.713 263.074C129.498 277.136 94.9763 290.706 87.9556 266.942C79.7067 239.03 85.1262 186.618 93.2149 154.065C97.8708 135.312 110.75 115.631 119.458 115.65C134.293 115.678 155.621 119.593 164.234 140.837C167.567 149.069 172.467 177.59 174.967 203.714C176.459 219.279 177.098 233.991 176.055 243.057" fill="white"/>
<path d="M117.963 115.833L121.322 108.261C121.322 108.261 151.105 111.295 156.159 128.41C156.159 128.41 133.137 116.198 117.963 115.833" fill="#DFEBFD"/>
<path d="M176.055 243.057C175.517 247.702 174.538 250.862 173.002 251.888C168.196 255.109 161.824 259.108 154.713 263.074C147.293 258.561 132.058 247.795 128.495 235.11C123.839 218.52 127.103 198.109 127.103 198.109L176.055 243.057Z" fill="#DFEBFD"/>
<path d="M124.004 141.357C124.004 141.357 126.587 212.648 130.641 226.743C137.553 250.783 200.6 259.343 200.6 259.343C200.6 259.343 204.319 255.128 202.656 248.137C202.656 248.137 164.965 218.427 163.862 212.77C162.76 207.114 172.075 168.783 161.429 154.847C150.784 140.908 131.156 128.831 124.004 141.357Z" fill="white"/>
<path d="M44.9622 425.268L44.7548 425.263C43.0571 425.23 41.7461 423.844 41.9058 422.247L53.2317 309.122L63.1151 310.003L46.8519 423.736C46.7246 424.626 45.9122 425.286 44.9622 425.268" fill="#77A4E5"/>
<path d="M103.261 425.268L103.053 425.263C101.355 425.23 100.044 423.844 100.204 422.247L111.53 309.122L121.413 310.003L105.15 423.736C105.022 424.626 104.21 425.286 103.261 425.268" fill="#77A4E5"/>
<path d="M212.705 425.268L212.913 425.263C214.611 425.23 215.922 423.844 215.762 422.247L204.436 309.122L194.553 310.003L210.816 423.736C210.943 424.626 211.756 425.286 212.705 425.268" fill="#77A4E5"/>
<path d="M48.1632 293.099L37.4132 198.61C36.0039 184.998 40.56 171.662 60.2065 170.632L94.7701 168.525C115.256 167.682 124.505 184.731 127.098 197.861L147.617 301.719L48.1632 293.099" fill="#77A4E5"/>
<path d="M53.9394 310.775H207.343C210.425 310.775 212.947 308.256 212.947 305.17V298.273C212.947 295.187 210.425 292.668 207.343 292.668H48.3359V305.17C48.3359 308.256 50.8577 310.775 53.9394 310.775Z" fill="#77A4E5"/>
<path d="M52.6879 310.775H143.266C145.66 310.775 147.618 308.818 147.618 306.425V297.018C147.618 294.625 145.66 292.668 143.266 292.668H48.3359V306.425C48.3359 308.818 50.2944 310.775 52.6879 310.775" fill="#77A4E5"/>
<path d="M1367.46 430.124H1.92808C0.867586 430.124 0 429.257 0 428.199V426.443C0 425.38 0.867586 424.514 1.92808 424.514H1367.46C1368.52 424.514 1369.38 425.38 1369.38 426.443V428.199C1369.38 429.257 1368.52 430.124 1367.46 430.124Z" fill="#2E3552"/>
</svg>
