<svg width="114" height="32" viewBox="0 0 114 32" fill="none" xmlns="http://www.w3.org/2000/svg">
<path d="M28.4213 7.51298C28.4213 8.46507 28.2393 9.24916 27.8753 9.86522C27.5112 10.4813 27.1052 10.9713 26.6571 11.3354C26.0131 11.8674 25.145 12.2595 24.0529 12.5115C22.9608 12.7635 21.5886 12.8895 19.9364 12.8895H14.5179V9.73921H21.1966C22.0927 9.73921 22.7647 9.6972 23.2128 9.61319C23.6888 9.50118 24.0669 9.33316 24.3469 9.10914C24.5709 8.91312 24.7249 8.6891 24.809 8.43707C24.921 8.18505 24.977 7.89101 24.977 7.55498C24.977 7.19094 24.921 6.86891 24.809 6.58888C24.6969 6.30885 24.5289 6.07083 24.3049 5.87481C24.0249 5.65078 23.6748 5.48276 23.2548 5.37075C22.8347 5.25874 22.1347 5.20273 21.1546 5.20273H5.94899V2.05241H20.9025C22.4427 2.05241 23.6468 2.16442 24.5149 2.38844C25.411 2.61246 26.1811 3.00451 26.8252 3.56456C27.3012 3.98461 27.6793 4.51666 27.9593 5.16073C28.2673 5.7768 28.4213 6.56088 28.4213 7.51298ZM15.946 31.2454C12.5577 31.2454 9.74339 30.7974 7.50315 29.9013C5.29092 28.9772 3.63875 27.7311 2.54664 26.1629C1.45452 24.5668 0.908466 22.7746 0.908466 20.7864C0.908466 19.2182 1.2305 17.8461 1.87457 16.6699C2.54664 15.4658 3.45673 14.5417 4.60485 13.8976C5.75297 13.2256 7.06911 12.8895 8.55326 12.8895C9.72939 12.8895 10.7375 13.1136 11.5776 13.5616C12.4177 13.9816 13.0617 14.5837 13.5098 15.3678C13.9578 16.1519 14.1818 17.062 14.1818 18.0981C14.1818 19.8063 13.5938 21.1784 12.4177 22.2145C11.2695 23.2226 9.64538 23.7267 7.54516 23.7267C6.92909 23.7267 6.34103 23.6707 5.78097 23.5586C5.22092 23.4186 4.70286 23.2506 4.22681 23.0546C3.75076 22.8586 3.30272 22.6345 2.88267 22.3825L3.1767 19.4002C3.73676 19.8203 4.32482 20.1563 4.94089 20.4083C5.58495 20.6603 6.28503 20.7864 7.04111 20.7864C8.41325 20.7864 9.37935 20.5343 9.93941 20.0303C10.5275 19.5262 10.8215 18.8822 10.8215 18.0981C10.8215 17.37 10.5975 16.8239 10.1494 16.4599C9.72938 16.0679 9.12732 15.8718 8.34324 15.8718C7.50315 15.8718 6.74707 16.0679 6.075 16.4599C5.43094 16.8519 4.91288 17.398 4.52084 18.0981C4.1288 18.7701 3.93278 19.5402 3.93278 20.4083V20.6183C3.93278 21.8225 4.21281 22.8866 4.77287 23.8107C5.36093 24.7068 6.17301 25.4628 7.20912 26.0789C8.24523 26.695 9.47736 27.157 10.9055 27.4651C12.3617 27.7731 13.9718 27.9271 15.736 27.9271C18.0603 27.9271 19.9785 27.6891 21.4906 27.213C23.0308 26.737 24.2349 26.1209 25.103 25.3648C25.9711 24.6088 26.5731 23.7967 26.9092 22.9286C27.2732 22.0605 27.4552 21.2204 27.4552 20.4083V18.5601C27.2032 17.804 26.7412 17.174 26.0691 16.6699C25.397 16.1379 24.5709 15.8718 23.5908 15.8718C22.8908 15.8718 22.2467 16.0819 21.6586 16.5019C21.0986 16.894 20.8185 17.538 20.8185 18.4341C20.8185 19.0502 21.0426 19.5962 21.4906 20.0723C21.9387 20.5483 22.6387 20.7864 23.5908 20.7864C24.3189 20.7864 24.949 20.6603 25.481 20.4083C26.0131 20.1283 26.4331 19.7502 26.7412 19.2742C27.0772 18.7701 27.3152 18.1961 27.4552 17.552L28.1273 21.3324C27.7073 21.8365 27.2452 22.2705 26.7412 22.6346C26.2651 22.9986 25.719 23.2786 25.103 23.4746C24.5149 23.6427 23.8289 23.7267 23.0448 23.7267C21.9807 23.7267 21.0286 23.5166 20.1885 23.0966C19.3484 22.6766 18.6903 22.0885 18.2143 21.3324C17.7382 20.5483 17.5002 19.6242 17.5002 18.5601C17.5002 16.992 17.9902 15.7738 18.9703 14.9057C19.9785 14.0097 21.3086 13.5616 22.9608 13.5616C23.1288 13.5616 23.3108 13.5756 23.5068 13.6036C23.7308 13.6316 23.9689 13.6736 24.2209 13.7296C24.4729 13.7856 24.7109 13.8556 24.935 13.9396L24.4309 13.9816C23.8149 13.6736 23.0868 13.4216 22.2467 13.2256C21.4346 13.0015 20.6225 12.8335 19.8104 12.7215C18.9983 12.6095 18.2843 12.5535 17.6682 12.5535L18.2563 9.94923C20.4125 10.1452 22.2747 10.5513 23.8429 11.1674C25.411 11.7834 26.6851 12.5535 27.6653 13.4776C28.6734 14.4017 29.4154 15.4518 29.8915 16.6279C30.3675 17.804 30.6056 19.0782 30.6056 20.4503C30.6056 21.9905 30.3115 23.4186 29.7235 24.7348C29.1634 26.0509 28.2813 27.199 27.0772 28.1791C25.9011 29.1312 24.3889 29.8873 22.5407 30.4474C20.6925 30.9794 18.4943 31.2454 15.946 31.2454ZM47.0427 31.2454C44.1024 31.2454 41.6242 30.7414 39.6079 29.7333C37.6197 28.7252 36.1076 27.339 35.0715 25.5749C34.0634 23.7827 33.5593 21.7385 33.5593 19.4422C33.5593 17.37 33.9094 15.6198 34.6094 14.1917C35.3375 12.7355 36.3036 11.6294 37.5077 10.8733C38.7119 10.1172 40.056 9.73921 41.5401 9.73921C42.6603 9.73921 43.6264 9.96323 44.4384 10.4113C45.2785 10.8313 45.9226 11.4474 46.3707 12.2595C46.8467 13.0436 47.0847 13.9816 47.0847 15.0738C47.0847 16.1939 46.8467 17.202 46.3707 18.0981C45.8946 18.9662 45.1665 19.6522 44.1864 20.1563C43.2343 20.6323 42.0162 20.8704 40.532 20.8704C39.6079 20.8704 38.7539 20.7164 37.9698 20.4083C37.1857 20.1003 36.4996 19.7222 35.9116 19.2742C35.3515 18.8262 34.8895 18.3921 34.5254 17.9721L35.4915 15.3678C35.7155 15.6758 36.0236 16.0399 36.4156 16.4599C36.8357 16.8519 37.3677 17.202 38.0118 17.51C38.6558 17.79 39.4259 17.9301 40.322 17.9301C41.4701 17.9301 42.3242 17.692 42.8843 17.216C43.4724 16.7399 43.7664 16.0819 43.7664 15.2418C43.7664 14.4297 43.5424 13.8136 43.0943 13.3936C42.6463 12.9455 42.0582 12.7215 41.3301 12.7215C39.986 12.7215 38.9079 13.2676 38.0958 14.3597C37.2837 15.4518 36.8777 16.936 36.8777 18.8122V19.5682C36.8777 20.6883 37.0737 21.7525 37.4657 22.7606C37.8858 23.7407 38.5018 24.6228 39.3139 25.4068C40.126 26.1909 41.1621 26.807 42.4222 27.255C43.7104 27.7031 45.2085 27.9271 46.9167 27.9271C49.997 27.9271 52.4333 27.283 54.2255 25.9949C56.0177 24.7068 56.9137 22.8586 56.9137 20.4503C56.9137 18.8262 56.4517 17.37 55.5276 16.0819C54.6315 14.7937 53.2174 13.7576 51.2852 12.9735L52.9653 9.73921C55.2896 10.7473 57.1098 12.1475 58.4259 13.9396C59.742 15.7318 60.4001 17.832 60.4001 20.2403C60.4001 22.3125 59.9381 24.1887 59.014 25.8689C58.0899 27.5211 56.6337 28.8372 54.6455 29.8173C52.6853 30.7694 50.151 31.2454 47.0427 31.2454ZM66.7421 31.2454C64.8659 31.2454 63.2277 30.7694 61.8276 29.8173C60.3995 28.8652 59.1393 27.6191 58.0472 26.0789L59.7274 23.3486C60.5115 24.3847 61.2815 25.2388 62.0376 25.9109C62.8217 26.583 63.6198 27.087 64.4319 27.423C65.272 27.7591 66.1401 27.9271 67.0361 27.9271C68.4643 27.9271 69.5564 27.4791 70.3125 26.583C71.0686 25.6589 71.4466 24.3427 71.4466 22.6346C71.4466 21.0104 71.1106 19.5962 70.4385 18.3921C69.7944 17.16 68.9123 16.1099 67.7922 15.2418C66.7001 14.3457 65.454 13.5896 64.0538 12.9735L65.608 9.73921C67.3442 10.4673 68.9123 11.4474 70.3125 12.6795C71.7126 13.9116 72.8327 15.3398 73.6728 16.964C74.5129 18.5881 74.933 20.3943 74.933 22.3825C74.933 25.1548 74.2329 27.325 72.8327 28.8932C71.4326 30.4614 69.4024 31.2454 66.7421 31.2454ZM88.7399 9.73921C90.9242 9.73921 92.8004 10.1593 94.3685 10.9993C95.9367 11.8114 97.1268 12.9875 97.9389 14.5277C98.779 16.0399 99.199 17.8741 99.199 20.0303C99.199 21.7945 99.031 23.3486 98.695 24.6928C98.3589 26.0369 97.9389 27.227 97.4348 28.2631C96.9588 29.2992 96.4547 30.2373 95.9227 31.0774L92.4363 29.5233C92.9684 28.7392 93.4864 27.9271 93.9905 27.087C94.4945 26.2469 94.9006 25.2948 95.2086 24.2307C95.5446 23.1386 95.7127 21.8785 95.7127 20.4503C95.7127 19.0782 95.4886 17.818 95.0406 16.6699C94.5925 15.5218 93.8365 14.6117 92.7724 13.9396C91.7362 13.2396 90.3221 12.8895 88.5299 12.8895C87.1018 12.8895 85.8696 13.1836 84.8335 13.7716C83.7974 14.3597 82.9853 15.2138 82.3973 16.3339C81.8372 17.454 81.5572 18.8122 81.5572 20.4083C81.5572 22.3125 81.8652 23.9927 82.4813 25.4488C83.0973 26.877 83.8814 28.2351 84.8335 29.5233L81.3472 31.0774C80.3951 29.6213 79.611 27.9971 78.9949 26.2049C78.3789 24.4127 78.0708 22.4945 78.0708 20.4503C78.0708 18.5181 78.4629 16.7399 79.2469 15.1158C80.059 13.4916 81.2492 12.1895 82.8173 11.2094C84.4135 10.2293 86.3877 9.73921 88.7399 9.73921ZM87.4798 12.8895C86.6677 12.8895 85.8836 12.7355 85.1276 12.4275C84.3995 12.1195 83.7274 11.5454 83.1113 10.7053C82.4953 9.83722 81.9632 8.61909 81.5152 7.05093L85.0015 5.91681C85.4216 7.45697 85.8276 8.47908 86.2197 8.98313C86.6117 9.48718 87.1158 9.73921 87.7318 9.73921C88.2919 9.73921 88.8099 9.57119 89.286 9.23515C89.79 8.87112 90.4901 8.12904 91.3862 7.00892L92.6883 5.32875C93.6404 4.09662 94.5085 3.11652 95.2926 2.38844C96.1047 1.66037 96.9588 1.12831 97.8549 0.792275C98.751 0.456241 99.8151 0.288224 101.047 0.288224L101.299 3.52256C100.319 3.57857 99.4931 3.73258 98.821 3.98461C98.1769 4.23663 97.5749 4.64268 97.0148 5.20273C96.4827 5.73479 95.8527 6.46287 95.1246 7.38696L94.1585 8.64709C93.3744 9.6552 92.6323 10.4673 91.9323 11.0833C91.2322 11.6994 90.5181 12.1615 89.79 12.4695C89.09 12.7495 88.3199 12.8895 87.4798 12.8895ZM105.752 31.2454C103.876 31.2454 102.238 30.7694 100.838 29.8173C99.4094 28.8652 98.1492 27.6191 97.0571 26.0789L98.7373 23.3486C99.5214 24.3847 100.291 25.2388 101.048 25.9109C101.832 26.583 102.63 27.087 103.442 27.423C104.282 27.7591 105.15 27.9271 106.046 27.9271C107.474 27.9271 108.566 27.4791 109.322 26.583C110.078 25.6589 110.457 24.3427 110.457 22.6346C110.457 21.0104 110.12 19.5962 109.448 18.3921C108.804 17.16 107.922 16.1099 106.802 15.2418C105.71 14.3457 104.464 13.5896 103.064 12.9735L104.618 9.73921C106.354 10.4673 107.922 11.4474 109.322 12.6795C110.723 13.9116 111.843 15.3398 112.683 16.964C113.523 18.5881 113.943 20.3943 113.943 22.3825C113.943 25.1548 113.243 27.325 111.843 28.8932C110.443 30.4614 108.412 31.2454 105.752 31.2454Z" fill="black"/>
</svg>
