<svg width="32" height="32" viewBox="0 0 32 32" fill="none" xmlns="http://www.w3.org/2000/svg">
<path fill-rule="evenodd" clip-rule="evenodd" d="M22.5847 4.00073C24.3727 4.00073 26.0927 4.7074 27.358 5.9754C28.6247 7.24073 29.3327 8.9474 29.3327 10.7341V21.2674C29.3327 24.9874 26.306 28.0007 22.5847 28.0007H9.41268C5.69135 28.0007 2.66602 24.9874 2.66602 21.2674V10.7341C2.66602 7.01407 5.67802 4.00073 9.41268 4.00073H22.5847ZM24.7059 12.7205L24.8126 12.6139C25.1313 12.2272 25.1313 11.6672 24.7979 11.2805C24.6126 11.0819 24.3579 10.9605 24.0926 10.9339C23.8126 10.9192 23.5459 11.0139 23.3446 11.2005L17.3326 16.0005C16.5593 16.6419 15.4513 16.6419 14.6659 16.0005L8.66592 11.2005C8.25126 10.8939 7.67792 10.9339 7.33259 11.2939C6.97259 11.6539 6.93259 12.2272 7.23792 12.6272L7.41259 12.8005L13.4793 17.5339C14.2259 18.1205 15.1313 18.4405 16.0793 18.4405C17.0246 18.4405 17.9459 18.1205 18.6913 17.5339L24.7059 12.7205Z" fill="#233862"/>
</svg>
