<svg width="32" height="32" viewBox="0 0 32 32" fill="none" xmlns="http://www.w3.org/2000/svg">
<path fill-rule="evenodd" clip-rule="evenodd" d="M6.67729 14.2601C6.67729 13.4353 6.68723 12.6104 6.69721 11.7817C6.70227 11.3616 6.70734 10.9405 6.71113 10.5179C6.71113 5.97751 9.55343 2.66707 13.4785 2.66707H18.5202C22.4453 2.66707 25.2876 5.97751 25.2876 10.5179C25.3214 12.3367 25.3327 14.1555 25.3327 15.9873C25.3327 17.8192 25.3214 19.6641 25.2876 21.4829C25.2876 26.0233 22.4453 29.3337 18.5202 29.3337H13.4785C9.55343 29.3337 6.71113 26.0233 6.71113 21.4698C6.68857 19.7557 6.66602 18.0024 6.66602 16.2228L6.67729 14.2601ZM17.7053 26.1869V26.4002C17.7053 27.2984 16.9544 28.0002 15.9987 28.0002C15.0657 28.0002 14.292 27.2984 14.292 26.4002V26.1869C14.292 25.3122 15.0657 24.5869 15.9987 24.5869C16.9544 24.5869 17.7053 25.3122 17.7053 26.1869ZM9.35529 11.2583C9.34816 11.7969 9.34106 12.3331 9.34106 12.8692L9.33301 14.145C9.33301 15.3017 9.34912 16.4414 9.36523 17.5555C9.36523 20.5153 11.3954 22.6671 14.1991 22.6671H17.8003C20.6039 22.6671 22.6341 20.5153 22.6341 17.564C22.6583 16.3818 22.6663 15.1826 22.6663 13.9919C22.6663 12.8012 22.6583 11.619 22.6341 10.4368C22.6341 7.48552 20.6039 5.33374 17.8003 5.33374H14.1991C11.3954 5.33374 9.36523 7.48552 9.36523 10.4368C9.36252 10.7115 9.3589 10.9852 9.35529 11.2583Z" fill="#233862"/>
</svg>
