<svg width="32" height="33" viewBox="0 0 32 33" fill="none" xmlns="http://www.w3.org/2000/svg">
<path opacity="0.1" fill-rule="evenodd" clip-rule="evenodd" d="M0 16.6401C0 7.80358 7.16344 0.640137 16 0.640137C24.8366 0.640137 32 7.80358 32 16.6401C32 25.4767 24.8366 32.6401 16 32.6401C7.16344 32.6401 0 25.4767 0 16.6401Z" fill="black"/>
<path fill-rule="evenodd" clip-rule="evenodd" d="M22.6679 11.1398C23.4022 11.3413 23.9805 11.935 24.1768 12.689C24.5335 14.0556 24.5335 16.9069 24.5335 16.9069C24.5335 16.9069 24.5335 19.7581 24.1768 21.1247C23.9805 21.8788 23.4022 22.4725 22.6679 22.6741C21.3371 23.0402 16.0001 23.0402 16.0001 23.0402C16.0001 23.0402 10.6632 23.0402 9.3323 22.6741C8.59795 22.4725 8.01962 21.8788 7.82335 21.1247C7.4668 19.7581 7.4668 16.9069 7.4668 16.9069C7.4668 16.9069 7.4668 14.0556 7.82335 12.689C8.01962 11.935 8.59795 11.3413 9.3323 11.1398C10.6632 10.7736 16.0001 10.7736 16.0001 10.7736C16.0001 10.7736 21.3371 10.7736 22.6679 11.1398ZM14.4001 14.5068V19.8402L18.6668 17.1736L14.4001 14.5068Z" fill="black"/>
</svg>
