<svg width="32" height="33" viewBox="0 0 32 33" fill="none" xmlns="http://www.w3.org/2000/svg">
<path opacity="0.1" fill-rule="evenodd" clip-rule="evenodd" d="M0 16.6401C0 7.80358 7.16344 0.640137 16 0.640137C24.8366 0.640137 32 7.80358 32 16.6401C32 25.4767 24.8366 32.6401 16 32.6401C7.16344 32.6401 0 25.4767 0 16.6401Z" fill="black"/>
<path fill-rule="evenodd" clip-rule="evenodd" d="M16.0009 8.10693C13.6834 8.10693 13.3925 8.11707 12.4823 8.15849C11.5739 8.20009 10.9538 8.34391 10.4112 8.55494C9.84993 8.7729 9.37384 9.06445 8.89952 9.53895C8.42485 10.0133 8.13329 10.4894 7.91462 11.0504C7.70307 11.5932 7.55906 12.2135 7.51818 13.1216C7.47746 14.0318 7.4668 14.3228 7.4668 16.6404C7.4668 18.9579 7.47711 19.2478 7.51835 20.1581C7.56013 21.0665 7.70395 21.6866 7.9148 22.2292C8.13294 22.7905 8.4245 23.2666 8.89899 23.7409C9.37313 24.2155 9.84922 24.5078 10.4101 24.7258C10.9531 24.9368 11.5733 25.0806 12.4816 25.1222C13.3918 25.1636 13.6825 25.1738 15.9999 25.1738C18.3176 25.1738 18.6075 25.1636 19.5178 25.1222C20.4262 25.0806 21.047 24.9368 21.59 24.7258C22.151 24.5078 22.6264 24.2155 23.1006 23.7409C23.5752 23.2666 23.8668 22.7905 24.0855 22.2294C24.2952 21.6866 24.4392 21.0664 24.4819 20.1583C24.5228 19.248 24.5335 18.9579 24.5335 16.6404C24.5335 14.3228 24.5228 14.032 24.4819 13.1217C24.4392 12.2133 24.2952 11.5932 24.0855 11.0506C23.8668 10.4894 23.5752 10.0133 23.1006 9.53895C22.6259 9.06428 22.1512 8.77272 21.5894 8.55494C21.0454 8.34391 20.425 8.20009 19.5165 8.15849C18.6063 8.11707 18.3165 8.10693 15.9983 8.10693H16.0009ZM15.2354 9.6447C15.4626 9.64435 15.7161 9.6447 16.0009 9.6447C18.2793 9.6447 18.5494 9.65288 19.4491 9.69377C20.2811 9.73182 20.7327 9.87084 21.0335 9.98764C21.4317 10.1423 21.7156 10.3272 22.0141 10.6259C22.3128 10.9245 22.4977 11.209 22.6527 11.6072C22.7695 11.9077 22.9087 12.3592 22.9466 13.1912C22.9875 14.0908 22.9963 14.361 22.9963 16.6384C22.9963 18.9157 22.9875 19.186 22.9466 20.0855C22.9085 20.9175 22.7695 21.3691 22.6527 21.6695C22.498 22.0678 22.3128 22.3513 22.0141 22.6498C21.7154 22.9485 21.4319 23.1334 21.0335 23.288C20.733 23.4054 20.2811 23.5441 19.4491 23.5821C18.5495 23.623 18.2793 23.6319 16.0009 23.6319C13.7223 23.6319 13.4522 23.623 12.5527 23.5821C11.7207 23.5437 11.2691 23.4047 10.9681 23.2879C10.5699 23.1332 10.2855 22.9483 9.98679 22.6496C9.68812 22.351 9.50323 22.0672 9.3482 21.6688C9.2314 21.3684 9.0922 20.9168 9.05433 20.0848C9.01344 19.1852 9.00527 18.915 9.00527 16.6362C9.00527 14.3575 9.01344 14.0887 9.05433 13.1891C9.09238 12.3571 9.2314 11.9055 9.3482 11.6047C9.50287 11.2065 9.68812 10.9221 9.98679 10.6234C10.2855 10.3247 10.5699 10.1398 10.9681 9.9848C11.2689 9.86746 11.7207 9.72879 12.5527 9.69057C13.3399 9.65501 13.645 9.64435 15.2354 9.64257V9.6447ZM20.556 11.0616C19.9906 11.0616 19.532 11.5197 19.532 12.0853C19.532 12.6506 19.9906 13.1093 20.556 13.1093C21.1213 13.1093 21.58 12.6506 21.58 12.0853C21.58 11.5199 21.1213 11.0616 20.556 11.0616ZM16.0009 12.2581C13.5808 12.2581 11.6187 14.2202 11.6187 16.6403C11.6187 19.0604 13.5808 21.0217 16.0009 21.0217C18.4211 21.0217 20.3825 19.0604 20.3825 16.6403C20.3825 14.2202 18.4211 12.2581 16.0009 12.2581ZM16.0009 13.7959C17.5718 13.7959 18.8454 15.0693 18.8454 16.6403C18.8454 18.2112 17.5718 19.4848 16.0009 19.4848C14.4299 19.4848 13.1564 18.2112 13.1564 16.6403C13.1564 15.0693 14.4299 13.7959 16.0009 13.7959Z" fill="black"/>
</svg>
