<svg width="33" height="33" viewBox="0 0 33 33" fill="none" xmlns="http://www.w3.org/2000/svg">
<path opacity="0.1" fill-rule="evenodd" clip-rule="evenodd" d="M0.666016 16.6401C0.666016 7.80358 7.82946 0.640137 16.666 0.640137C25.5026 0.640137 32.666 7.80358 32.666 16.6401C32.666 25.4767 25.5026 32.6401 16.666 32.6401C7.82946 32.6401 0.666016 25.4767 0.666016 16.6401Z" fill="black"/>
<path fill-rule="evenodd" clip-rule="evenodd" d="M16.1868 13.6454L16.2204 14.199L15.6608 14.1312C13.6239 13.8713 11.8444 12.99 10.3336 11.5099L9.59492 10.7755L9.40467 11.3178C9.00177 12.5268 9.25917 13.8035 10.0985 14.6622C10.5462 15.1368 10.4455 15.2046 9.67327 14.9221C9.40467 14.8317 9.16964 14.7639 9.14726 14.7978C9.06892 14.8769 9.33752 15.9051 9.55016 16.3118C9.84114 16.8768 10.4343 17.4304 11.0834 17.7581L11.6318 18.018L10.9827 18.0293C10.356 18.0293 10.3336 18.0406 10.4007 18.2778C10.6246 19.0122 11.5087 19.7918 12.4936 20.1308L13.1875 20.3681L12.5831 20.7296C11.6878 21.2494 10.6357 21.5431 9.58373 21.5657C9.08011 21.577 8.66602 21.6222 8.66602 21.6561C8.66602 21.7691 10.0314 22.4018 10.826 22.6504C13.2098 23.3848 16.0413 23.0685 18.1677 21.8143C19.6786 20.9217 21.1895 19.1478 21.8946 17.4304C22.2751 16.5152 22.6556 14.843 22.6556 14.0408C22.6556 13.5211 22.6892 13.4533 23.3159 12.8319C23.6852 12.4703 24.0322 12.0748 24.0993 11.9619C24.2112 11.7472 24.2001 11.7472 23.6293 11.9393C22.678 12.2782 22.5437 12.233 23.0137 11.7246C23.3607 11.363 23.7748 10.7077 23.7748 10.5156C23.7748 10.4817 23.6069 10.5382 23.4166 10.6399C23.2152 10.7529 22.7675 10.9224 22.4318 11.0241L21.8274 11.2161L21.279 10.8433C20.9769 10.6399 20.5516 10.4139 20.3277 10.3461C19.757 10.188 18.884 10.2106 18.3692 10.3913C16.9702 10.8998 16.0861 12.2104 16.1868 13.6454Z" fill="black"/>
</svg>
