<svg width="33" height="33" viewBox="0 0 33 33" fill="none" xmlns="http://www.w3.org/2000/svg">
<path opacity="0.1" fill-rule="evenodd" clip-rule="evenodd" d="M0.333984 16.6401C0.333984 7.80358 7.49743 0.640137 16.334 0.640137C25.1705 0.640137 32.334 7.80358 32.334 16.6401C32.334 25.4767 25.1705 32.6401 16.334 32.6401C7.49743 32.6401 0.333984 25.4767 0.333984 16.6401Z" fill="black"/>
<path fill-rule="evenodd" clip-rule="evenodd" d="M24.8675 16.6284C24.8675 17.2055 24.8087 17.7818 24.6933 18.3436C24.5808 18.892 24.4141 19.4304 24.1958 19.9451C23.9824 20.4507 23.7178 20.9379 23.4087 21.3922C23.1041 21.8437 22.7532 22.2673 22.3678 22.6534C21.9815 23.0378 21.5565 23.3877 21.1052 23.6936C20.6494 24.0007 20.1614 24.2649 19.6556 24.4792C19.1401 24.6964 18.6005 24.8628 18.0525 24.9751C17.4901 25.0908 16.9117 25.1499 16.3337 25.1499C15.7554 25.1499 15.177 25.0908 14.6153 24.9751C14.0666 24.8628 13.5269 24.6964 13.0119 24.4792C12.5061 24.2649 12.0177 24.0007 11.5618 23.6936C11.1106 23.3878 10.6855 23.0378 10.3001 22.6534C9.91425 22.2673 9.56338 21.8437 9.25837 21.3922C8.95086 20.9379 8.68582 20.4506 8.47166 19.9451C8.25329 19.4304 8.08622 18.8919 7.97329 18.3436C7.85913 17.7818 7.80078 17.2055 7.80078 16.6284C7.80078 16.0509 7.8591 15.4734 7.97333 14.9129C8.08625 14.3645 8.25332 13.8252 8.47169 13.3114C8.68586 12.8054 8.95089 12.3178 9.25841 11.8634C9.56342 11.4115 9.91429 10.9888 10.3001 10.6022C10.6856 10.2177 11.1106 9.86866 11.5619 9.56325C12.0177 9.25491 12.5061 8.99073 13.0119 8.77601C13.527 8.55835 14.0666 8.39153 14.6154 8.28003C15.177 8.1652 15.7554 8.10693 16.3338 8.10693C16.9117 8.10693 17.4901 8.1652 18.0526 8.28003C18.6005 8.39156 19.1401 8.55839 19.6556 8.77601C20.1614 8.9907 20.6494 9.25491 21.1052 9.56325C21.5565 9.86866 21.9816 10.2177 22.3678 10.6022C22.7532 10.9888 23.1041 11.4115 23.4087 11.8634C23.7178 12.3178 23.9824 12.8054 24.1958 13.3114C24.4141 13.8252 24.5808 14.3645 24.6933 14.9129C24.8087 15.4734 24.8675 16.0509 24.8675 16.6284ZM13.2244 10.0463C11.1922 11.0046 9.67541 12.8745 9.20247 15.128C9.39458 15.1297 12.4314 15.168 15.9303 14.2396C14.669 12.0019 13.3215 10.1758 13.2244 10.0463ZM16.5341 15.3602C12.7818 16.4819 9.18122 16.4012 9.05206 16.3963C9.04996 16.4745 9.04622 16.5502 9.04622 16.6284C9.04622 18.4979 9.7525 20.2022 10.9134 21.4908C10.9109 21.4871 12.9052 17.9541 16.8379 16.6842C16.9329 16.6526 17.0296 16.6243 17.1254 16.5968C16.9425 16.1832 16.7429 15.7688 16.5341 15.3602ZM21.1465 11.1669C19.8635 10.0371 18.1788 9.3519 16.3337 9.3519C15.7416 9.3519 15.167 9.42347 14.6165 9.55578C14.7257 9.70226 16.0945 11.5155 17.3408 13.8007C20.0906 12.7713 21.1285 11.1935 21.1465 11.1669ZM17.6221 17.8026C17.6059 17.808 17.5897 17.8126 17.5738 17.8184C13.2741 19.3152 11.8699 22.3317 11.8547 22.3646C13.0919 23.3253 14.6437 23.905 16.3338 23.905C17.3429 23.905 18.3042 23.6998 19.1789 23.3283C19.0709 22.6925 18.6476 20.4639 17.6221 17.8026ZM20.406 22.6634C22.0423 21.5607 23.2045 19.8099 23.5286 17.7818C23.3786 17.7335 21.3398 17.089 18.9876 17.4656C19.9434 20.0886 20.3318 22.2248 20.406 22.6634ZM17.9018 14.885C18.0709 15.232 18.2347 15.5852 18.3859 15.9402C18.4397 16.0675 18.4922 16.1924 18.5434 16.3172C21.0469 16.0026 23.5133 16.5319 23.6187 16.5535C23.6021 14.8284 22.9841 13.2452 21.9616 12.0057C21.9478 12.0252 20.779 13.7116 17.9018 14.885Z" fill="black"/>
</svg>
